<?xml version="1.0" encoding="UTF-8" standalone="no"?>
<!-- Generator: Adobe Illustrator 17.0.0, SVG Export Plug-In . SVG Version: 6.00 Build 0)  -->

<svg
   xmlns:dc="http://purl.org/dc/elements/1.1/"
   xmlns:cc="http://creativecommons.org/ns#"
   xmlns:rdf="http://www.w3.org/1999/02/22-rdf-syntax-ns#"
   xmlns:svg="http://www.w3.org/2000/svg"
   xmlns="http://www.w3.org/2000/svg"
   xmlns:sodipodi="http://sodipodi.sourceforge.net/DTD/sodipodi-0.dtd"
   xmlns:inkscape="http://www.inkscape.org/namespaces/inkscape"
   version="1.1"
   id="Layer_1"
   x="0px"
   y="0px"
   width="217.2065"
   height="120.53805"
   viewBox="0 0 217.20649 120.53805"
   enable-background="new 0 0 1845.185 400"
   xml:space="preserve"
   sodipodi:docname="indiehosters.svg"
   inkscape:version="0.92.2 (5c3e80d, 2017-08-06)"><metadata
     id="metadata39"><rdf:RDF><cc:Work
         rdf:about=""><dc:format>image/svg+xml</dc:format><dc:type
           rdf:resource="http://purl.org/dc/dcmitype/StillImage" /><dc:title></dc:title></cc:Work></rdf:RDF></metadata><defs
     id="defs37" /><sodipodi:namedview
     pagecolor="#ffffff"
     bordercolor="#666666"
     borderopacity="1"
     objecttolerance="10"
     gridtolerance="10"
     guidetolerance="10"
     inkscape:pageopacity="0"
     inkscape:pageshadow="2"
     inkscape:window-width="1366"
     inkscape:window-height="713"
     id="namedview35"
     showgrid="false"
     fit-margin-top="0"
     fit-margin-left="0"
     fit-margin-right="0"
     fit-margin-bottom="0"
     inkscape:zoom="1.6432357"
     inkscape:cx="68.76102"
     inkscape:cy="49.848376"
     inkscape:window-x="0"
     inkscape:window-y="0"
     inkscape:window-maximized="1"
     inkscape:current-layer="g30" /><g
     id="g32"
     transform="translate(-237.86574,-279.03172)"><g
       id="g30"
       style="fill:#0db4c7;fill-opacity:1"
       transform="matrix(0.48626308,0,0,0.48626308,26.824191,172.75945)"><g
         id="g880"
         transform="matrix(0.46379117,0,0,0.46379117,232.71835,175.81149)"><g
           transform="translate(535.79397)"
           id="g862"><path
             d="m 331.627,139.302 c 0,4.563 -0.761,9.126 -1.521,13.69 -1.521,6.845 -1.521,12.929 -1.521,19.774 v 84.419 c 0,9.887 -3.042,19.774 -9.126,28.9 -3.042,3.803 -6.845,7.605 -10.647,9.887 -4.563,3.042 -9.126,4.563 -14.45,4.563 -9.887,0 -18.253,-3.803 -25.098,-11.408 -3.803,-3.042 -6.845,-6.845 -9.887,-10.647 -3.042,-3.803 -6.084,-7.605 -9.126,-10.647 -5.324,-7.605 -14.45,-19.774 -28.9,-36.505 -6.845,-8.366 -12.929,-15.211 -18.253,-20.534 -6.084,-5.324 -9.887,-8.366 -12.929,-9.126 0,14.45 0,29.661 -0.761,44.111 0,5.324 -0.761,10.647 -0.761,16.732 0,4.563 0.761,9.126 2.282,13.69 1.521,4.563 2.282,9.126 2.282,14.45 0,3.042 -0.761,6.084 -3.042,9.126 -2.282,3.042 -5.324,5.324 -9.126,7.605 -7.605,4.563 -14.45,6.845 -20.534,6.845 -1.521,-0.76 -2.282,-1.521 -3.042,-4.563 -1.521,-4.563 -3.042,-9.887 -3.803,-15.211 -0.761,-5.324 -1.521,-9.887 -2.282,-15.211 -2.282,-16.732 -3.803,-33.463 -6.084,-50.195 -3.042,-18.253 -6.084,-36.505 -9.126,-54.758 -0.761,-5.324 -2.282,-10.647 -3.042,-15.971 -1.521,-6.084 -1.521,-11.408 -1.521,-15.971 0,-3.042 0.761,-6.084 3.042,-9.887 1.521,-3.042 3.803,-6.084 6.845,-9.126 6.084,-5.324 12.169,-8.366 18.253,-8.366 4.563,0 8.366,0.761 12.929,2.282 4.563,1.521 7.605,4.563 9.887,8.366 3.803,6.084 8.366,9.887 14.45,13.69 4.563,2.282 7.605,5.324 11.408,9.126 3.042,3.803 6.084,8.366 8.366,12.169 21.295,27.379 41.829,53.998 63.124,80.616 1.521,-0.761 2.282,-3.042 3.042,-5.324 0.761,-2.282 0.761,-4.563 0.761,-7.605 0,-6.084 0,-10.647 0,-13.69 v -60.842 c 0.761,-22.816 11.408,-34.224 33.463,-34.224 3.803,0 7.605,2.282 9.887,6.845 3.04,5.32 4.561,9.123 4.561,12.925 z"
             id="path2"
             inkscape:connector-curvature="0"
             style="fill:#0db4c7;fill-opacity:1" /><path
             d="m 486.775,184.174 c 0,18.253 -5.324,38.027 -15.211,57.8 -9.887,19.774 -22.816,34.984 -38.787,44.871 -4.563,2.282 -12.929,6.845 -25.098,12.168 -5.324,2.282 -10.647,4.563 -15.211,6.084 -4.563,2.282 -7.605,3.042 -9.887,3.042 -2.282,0 -3.042,-0.76 -3.803,-3.042 -0.76,-1.521 -1.521,-3.042 -2.282,-4.563 -1.521,-5.324 -2.282,-11.408 -2.282,-16.732 -0.76,-6.084 -1.521,-11.408 -2.282,-16.732 -2.282,-19.774 -4.563,-39.548 -6.084,-59.321 -1.521,-19.013 -3.803,-37.266 -4.563,-56.279 -1.521,-12.929 -2.282,-26.619 -2.282,-39.548 0,-3.803 0.76,-6.845 1.521,-8.366 1.521,-1.521 3.042,-3.042 6.084,-4.563 9.887,-4.563 20.534,-6.845 31.182,-6.845 18.253,0 34.224,6.084 48.674,17.492 13.69,11.408 24.337,25.098 31.182,41.829 6.087,9.128 9.129,20.536 9.129,32.705 z m -41.829,3.802 c -0.76,-24.337 -12.168,-41.069 -34.984,-49.435 -2.282,-0.761 -4.563,-1.521 -7.605,-2.282 -2.282,0 -3.803,1.521 -3.803,3.803 0,1.521 0,3.042 0.76,3.803 3.042,19.013 5.324,38.027 5.324,57.04 0.76,10.647 0.76,20.534 0.76,30.421 0,5.324 -0.76,11.408 -0.76,16.732 0,0.761 0,2.282 0,3.803 0,1.521 0.76,3.042 2.282,3.803 10.647,-8.366 19.013,-18.253 26.619,-30.421 7.604,-11.408 11.407,-23.577 11.407,-37.267 z"
             id="path4"
             inkscape:connector-curvature="0"
             style="fill:#0db4c7;fill-opacity:1" /><path
             d="m 699.724,114.965 c -3.042,-1.521 -6.084,-2.282 -10.647,-3.042 -9.126,-0.761 -16.732,-1.521 -21.295,-1.521 -9.126,0 -19.013,1.521 -28.9,4.563 -9.887,3.042 -19.774,5.324 -29.661,6.845 -1.521,0 -3.042,0.761 -3.803,0.761 -1.521,0 -2.282,0.761 -3.042,2.282 -1.521,1.521 -2.282,3.803 -2.282,8.366 0,2.282 0,5.324 0,8.366 -0.76,32.703 -2.282,65.406 -5.324,97.348 -0.76,12.169 -1.521,24.337 -1.521,35.745 0,4.563 0.76,9.126 1.521,14.45 1.521,4.563 3.042,9.126 6.845,12.929 5.324,4.563 12.929,9.126 23.576,13.69 5.324,2.282 9.887,3.803 15.211,5.324 4.563,1.521 8.366,2.282 11.408,2.282 9.887,0 17.492,-3.803 22.816,-9.887 5.324,-6.084 8.366,-14.45 8.366,-24.337 0,-3.042 0,-5.324 0,-6.845 -0.76,-1.521 -2.282,-1.521 -5.324,-1.521 -14.45,0 -25.858,-3.042 -34.224,-9.126 -9.126,-6.084 -12.929,-16.732 -12.929,-32.703 0,-5.324 0,-9.887 0.76,-15.211 h 26.619 c 3.803,0 8.366,-1.521 13.69,-3.803 2.282,-1.521 4.563,-3.042 6.084,-4.563 2.282,-2.282 2.282,-5.324 3.803,-8.366 1.521,-3.042 1.521,-4.563 -0.76,-6.845 -1.521,-2.282 -3.803,-2.282 -6.084,-2.282 -5.324,0 -10.647,0 -15.211,0 -8.366,0 -17.492,0 -25.858,0.761 0.76,-19.013 0.76,-38.027 0.76,-57.04 2.282,-0.761 4.563,-0.761 6.845,-0.761 6.084,0 11.408,0.761 17.492,1.521 6.084,1.521 11.408,1.521 17.492,1.521 1.521,0 3.042,0 5.324,0 2.282,-0.761 3.803,-0.761 4.563,-1.521 l 19.774,-15.211 c 0.76,-1.521 1.521,-3.042 1.521,-4.563 -3.802,-3.803 -5.324,-6.084 -7.605,-7.606 z"
             id="path6"
             inkscape:connector-curvature="0"
             style="fill:#0db4c7;fill-opacity:1" /><g
             id="g22"
             style="fill:#0db4c7;fill-opacity:1"><path
               d="m 557.505,243.495 c -0.76,8.366 -8.366,28.9 -21.295,25.858 -11.408,-3.042 -18.253,-19.013 -19.013,-28.14 -3.042,-23.576 3.042,-54.758 1.521,-77.574 -2.282,-18.253 -3.042,-37.266 -1.521,-55.519 0.76,-5.324 3.042,-9.126 6.845,-11.408 3.803,-2.282 8.366,-3.042 12.929,-3.042 4.563,0.761 15.971,2.282 18.253,6.084 1.521,3.042 2.282,7.605 2.282,12.929 -1.521,13.69 -2.282,27.379 -3.042,40.308 -0.76,10.647 -0.76,21.295 -0.76,31.942 0,6.845 0.76,14.45 2.282,22.055 1.519,6.847 2.279,29.662 1.519,36.507 z m 5.323,66.166 c -0.76,6.084 -3.042,10.647 -7.605,14.45 -4.563,3.803 -18.253,5.324 -23.576,5.324 -5.324,-0.76 -8.366,-3.803 -8.366,-9.126 -0.76,-4.563 -0.76,-9.887 0,-14.45 0.76,-5.324 2.282,-9.887 6.845,-12.929 3.803,-3.042 15.971,-4.563 20.534,-4.563 5.324,0.76 9.126,3.042 11.408,6.845 0.76,4.563 1.521,9.126 0.76,14.449 z"
               id="path20"
               inkscape:connector-curvature="0"
               style="fill:#0db4c7;fill-opacity:1" /></g><g
             id="g26"
             style="fill:#0db4c7;fill-opacity:1"><path
               d="m 57.836,185.695 c 0.761,-7.605 0.761,-30.421 9.126,-33.463 15.971,-4.563 30.421,18.253 31.182,28.14 3.042,23.576 -3.042,54.758 -1.521,77.574 2.282,18.253 3.042,37.266 1.521,55.519 -0.761,5.324 -3.042,9.126 -6.845,11.408 -3.803,2.282 -15.971,3.042 -21.295,3.042 -4.563,-0.76 -8.366,-2.282 -10.647,-6.084 -1.521,-3.042 -2.282,-7.605 -2.282,-12.929 1.521,-13.69 2.282,-27.379 3.042,-40.308 0.761,-10.647 0.761,-21.295 0.761,-31.942 0,-6.845 -0.761,-14.45 -2.282,-22.055 -0.76,-6.847 -0.76,-22.057 -0.76,-28.902 z m -5.324,-73.772 c 0.761,-6.084 3.042,-10.647 7.605,-14.45 4.563,-3.803 9.887,-5.324 15.971,-5.324 5.324,0.761 15.971,3.803 16.732,9.126 0.761,4.563 0.761,9.887 0,14.45 -0.761,5.324 -2.282,9.887 -6.845,12.929 -3.803,3.042 -15.971,4.563 -20.534,4.563 -5.324,-0.761 -9.126,-3.042 -11.408,-6.845 -1.521,-4.562 -2.281,-9.125 -1.521,-14.449 z"
               id="path24"
               inkscape:connector-curvature="0"
               style="fill:#0db4c7;fill-opacity:1" /></g></g><g
           transform="translate(539.30665)"
           id="g853"><path
             d="m 183.22624,501.13866 c 0,10.647 -0.76,21.295 -2.282,33.463 -1.522,12.168 -5.324,22.816 -9.887,33.463 -4.563,10.647 -10.647,19.013 -19.013,25.098 -8.366,6.845 -19.013,10.647 -32.703,10.647 -28.139999,0 -47.912999,-8.366 -57.799999,-25.098 -9.887,-15.971 -15.211,-37.266 -14.45,-63.885 0,-19.013 2.282,-38.027 8.366,-56.279 6.084,-18.253 17.492,-32.703 34.224,-42.59 9.887,-6.084 19.773999,-8.366 31.181999,-8.366 10.647,0 19.774,3.042 28.14,9.887 7.605,6.084 13.69,14.45 19.013,24.337 10.647,19.776 15.21,40.31 15.21,59.323 z m -46.392,24.337 c 0,-7.605 -1.521,-15.211 -3.042,-22.816 -0.76,-5.324 -3.803,-15.211 -7.605,-30.421 -1.521,-6.845 -3.803,-12.169 -6.084,-17.492 -2.282,-4.563 -4.563,-6.845 -6.084,-6.845 -5.324,0 -9.126,2.282 -12.168,5.324 -3.041999,3.803 -5.323999,7.605 -6.083999,13.69 -2.282,12.169 -3.042,22.055 -3.042,30.421 0,5.324 0.76,11.408 1.521,18.253 0.761,7.605 2.282,15.211 4.563,22.055 2.281999,6.845 5.323999,13.69 9.886999,18.253 4.563,5.324 10.647,8.366 17.492,8.366 2.282,0 4.563,-1.521 6.084,-5.324 1.521,-3.803 2.282,-7.605 3.803,-12.168 0.759,-9.888 0.759,-16.732 0.759,-21.296 z"
             id="path8"
             inkscape:connector-curvature="0"
             style="fill:#0db4c7;fill-opacity:1" /><path
             d="m 209.84524,462.35166 c 0,-6.845 2.282,-13.69 7.605,-20.534 4.563,-7.605 9.126,-13.69 13.69,-19.013 3.803,-4.563 9.126,-11.408 16.732,-19.774 3.803,-3.803 6.845,-6.845 10.647,-9.126 7.605,-5.324 21.295,-5.324 25.098,4.563 1.521,3.042 3.042,5.324 3.042,6.845 0,3.042 -2.282,6.845 -6.084,10.647 -3.803,3.803 -7.605,8.366 -12.168,12.929 -5.324,4.563 -9.126,9.887 -12.929,15.211 -3.042,4.563 -5.324,9.887 -5.324,15.211 0,4.563 2.282,9.887 6.845,16.732 4.563,6.084 10.647,12.169 16.732,19.774 6.084,7.605 11.408,15.211 15.971,23.576 5.324,8.366 7.605,17.492 7.605,26.619 0,15.971 -6.084,32.703 -17.492,49.435 -5.324,8.366 -11.408,15.211 -19.013,19.774 -6.845,5.324 -14.45,7.605 -22.055,7.605 -1.521,0 -3.803,-0.76 -5.324,-3.042 -1.521,-1.521 -3.803,-3.803 -5.324,-6.845 -3.042,-6.084 -5.324,-10.647 -5.324,-14.45 0,-1.521 0.76,-3.042 1.521,-4.563 1.521,-2.282 3.042,-3.803 4.563,-3.803 2.282,0 4.563,-1.521 6.845,-3.803 2.282,-3.042 4.563,-6.084 6.845,-10.647 4.563,-9.126 7.605,-15.971 9.126,-19.774 1.521,-6.084 3.042,-12.169 3.042,-18.253 0,-7.605 -2.282,-15.211 -6.845,-21.295 -4.563,-6.084 -9.126,-12.169 -15.211,-18.253 -6.084,-5.324 -10.647,-11.408 -15.211,-16.732 -5.323,-5.324 -7.605,-12.169 -7.605,-19.014 z"
             id="path10"
             inkscape:connector-curvature="0"
             style="fill:#0db4c7;fill-opacity:1" /><path
             d="m 468.42624,422.80466 c 0,6.845 -1.521,12.169 -4.563,15.971 -3.042,3.803 -6.845,6.845 -12.168,7.605 -5.324,1.521 -10.647,2.282 -16.732,2.282 -6.084,0.761 -11.408,0.761 -16.732,0.761 -4.563,0 -9.887,0 -14.45,0 -0.76,7.605 -1.521,14.45 -3.042,22.055 -1.521,7.605 -2.282,15.211 -3.042,22.816 l -1.521,63.885 c 0,4.563 0,9.887 0,15.971 0,6.084 -0.76,12.929 -2.282,18.253 -1.521,6.084 -3.803,10.647 -6.845,14.45 -3.042,3.803 -8.366,6.084 -15.211,6.845 -1.521,0.76 -3.042,0.76 -4.563,0.76 -2.282,0 -3.803,-1.521 -4.563,-4.563 -0.76,-2.282 -1.521,-4.563 -1.521,-6.084 0,-11.408 0.76,-22.816 2.282,-34.224 2.282,-27.379 3.803,-54.758 3.803,-81.377 0,-14.45 -1.521,-28.9 -3.803,-43.35 -3.803,-0.761 -9.126,-2.282 -15.211,-3.803 -6.084,-1.521 -12.929,-3.042 -19.013,-5.324 -6.084,-2.282 -11.408,-6.084 -15.971,-9.887 -4.563,-3.803 -6.845,-8.366 -6.845,-12.929 0,-2.282 0.76,-5.324 3.042,-6.845 1.521,-2.282 3.803,-3.042 6.084,-3.042 h 12.929 c 0.76,-0.761 2.282,-1.521 4.563,-2.282 2.281,-0.76 4.563,-0.761 6.845,-0.761 5.324,0 9.126,0 11.408,0 16.732,0 33.463,1.521 50.955,3.042 9.887,0.761 19.774,1.521 29.661,3.042 4.563,2.282 8.366,3.042 12.929,3.803 4.563,-0.761 8.366,-0.761 12.929,-1.521 3.803,0 6.084,1.521 8.366,4.563 1.521,3.043 2.282,6.085 2.282,9.888 z"
             id="path12"
             inkscape:connector-curvature="0"
             style="fill:#0db4c7;fill-opacity:1" /><path
             d="m 596.95524,608.37366 c -3.042,1.521 -6.084,2.282 -10.647,3.042 -9.126,0.761 -16.732,1.521 -21.295,1.521 -9.126,0 -19.013,-1.521 -28.9,-4.563 -9.887,-3.042 -19.774,-5.324 -29.661,-6.845 -1.521,0 -3.042,-0.76 -3.803,-0.76 -1.521,0 -2.282,-0.76 -3.042,-2.282 -1.521,-1.521 -2.282,-3.803 -2.282,-8.366 0,-2.282 0,-5.324 0,-8.366 -0.76,-32.703 -2.282,-65.406 -5.324,-97.348 -0.76,-12.169 -1.521,-24.337 -1.521,-35.745 0,-4.563 0.76,-9.126 1.521,-14.45 1.521,-4.563 3.042,-9.126 6.845,-12.929 5.324,-4.563 12.929,-9.126 23.577,-13.69 5.324,-2.282 9.887,-3.803 15.211,-5.324 4.563,-1.521 8.366,-2.282 11.408,-2.282 9.887,0 17.492,3.803 22.816,9.887 5.324,6.084 8.366,14.45 8.366,24.337 0,3.042 0,5.324 0,6.845 -0.76,1.521 -2.282,1.521 -5.324,1.521 -14.45,0 -25.858,3.042 -34.224,9.126 -9.126,6.084 -12.929,16.732 -12.929,32.703 0,5.324 0,9.887 0.76,15.211 h 26.619 c 3.803,0 8.366,1.521 13.69,3.803 5.324,2.282 16.732,7.605 14.45,15.211 -0.76,2.282 -2.282,4.563 -4.563,5.324 -6.084,3.042 -15.211,2.282 -22.055,2.282 -8.366,0 -17.492,0 -25.858,-0.761 0.76,19.013 0.76,38.027 0.76,57.04 2.282,0.76 4.563,0.76 6.845,0.76 6.084,0 11.408,-0.76 17.492,-1.521 6.084,-1.521 11.408,-1.521 17.492,-1.521 1.521,0 3.042,0 5.324,0 2.282,0.76 3.803,0.76 4.563,1.521 l 19.774,15.211 c 0.76,1.521 1.521,3.042 1.521,4.563 -3.043,3.043 -4.564,5.324 -7.606,6.845 z"
             id="path14"
             inkscape:connector-curvature="0"
             style="fill:#0db4c7;fill-opacity:1" /><path
             d="m 757.42724,594.68466 c 0,6.845 -16.732,12.168 -22.055,12.168 -2.282,0 -5.324,-1.521 -7.605,-3.042 -2.282,-2.282 -5.324,-4.563 -8.366,-7.605 -6.084,-6.845 -11.408,-14.45 -16.732,-22.055 -5.324,-8.366 -10.647,-15.971 -15.971,-22.055 -5.324,-6.084 -9.887,-9.887 -13.69,-9.887 v 47.913 c 0,1.521 -0.76,4.563 -3.042,8.366 -1.521,3.803 -4.563,7.605 -7.605,12.168 -3.042,3.803 -6.084,7.605 -9.126,10.647 -3.042,3.042 -6.084,4.563 -8.366,5.324 -15.211,0 -22.816,-8.366 -22.816,-24.337 0,-7.605 0.76,-15.211 2.282,-22.816 1.521,-11.408 1.521,-22.055 1.521,-32.703 0,-28.9 -1.521,-57.8 -3.803,-85.94 -1.521,-14.45 -2.282,-28.14 -2.282,-42.59 0,-22.816 20.534,-39.548 41.829,-39.548 14.45,0 30.421,3.042 46.392,9.887 7.605,3.803 13.69,8.366 19.013,13.69 4.563,6.084 6.845,12.929 6.845,22.055 0,8.366 -2.282,17.492 -6.845,25.098 -4.563,8.366 -9.126,15.971 -15.211,22.816 -5.324,6.845 -10.647,12.929 -15.211,18.253 -4.564,5.324 -6.845,9.126 -6.845,12.169 0,0.761 1.521,2.282 3.803,4.563 2.282,2.282 5.324,4.563 8.366,6.845 6.845,5.324 12.168,9.126 15.211,11.408 5.324,4.563 10.647,9.887 15.211,15.211 4.563,4.563 7.605,9.887 9.887,15.211 2.282,5.324 3.803,11.408 6.084,17.492 1.521,2.282 3.042,6.084 4.563,10.647 3.804,4.562 4.564,8.365 4.564,10.647 z m -54.758,-165.796 c 0,-4.563 -1.521,-7.605 -3.803,-9.126 -2.282,-1.521 -5.324,-1.521 -9.126,-1.521 -3.042,0 -6.845,0.761 -10.647,2.282 -3.803,1.521 -7.605,3.042 -10.647,4.563 l 1.521,59.321 c 3.042,-1.521 6.845,-4.563 10.647,-9.126 3.803,-4.563 7.605,-9.887 10.648,-15.211 6.844,-13.69 10.646,-23.577 11.407,-31.182 z"
             id="path16"
             inkscape:connector-curvature="0"
             style="fill:#0db4c7;fill-opacity:1" /><path
             d="m 857.81724,550.57366 c 0,6.845 -2.282,13.69 -7.605,20.534 -4.563,7.605 -9.126,13.69 -13.69,19.013 -3.803,4.563 -9.126,11.408 -16.732,19.774 -3.803,3.803 -6.845,6.845 -10.647,9.887 -14.45,10.647 -36.505,-6.084 -22.055,-21.295 3.803,-3.803 7.605,-8.366 12.168,-12.929 5.324,-4.563 9.126,-9.887 12.929,-15.211 3.042,-4.563 5.324,-9.887 5.324,-15.211 0,-4.563 -2.282,-9.887 -6.845,-16.732 -4.563,-6.084 -10.647,-12.169 -16.732,-19.774 -6.084,-7.605 -11.408,-15.211 -15.971,-23.576 -5.324,-8.366 -7.605,-17.492 -7.605,-26.619 0,-15.971 6.084,-32.703 17.492,-49.435 5.324,-8.366 11.408,-15.211 19.013,-19.774 6.845,-5.324 14.45,-7.605 22.055,-7.605 1.521,0 3.803,0.761 5.324,3.042 1.521,1.521 3.803,3.803 5.324,6.845 3.042,6.084 5.324,10.647 5.324,14.45 0,6.084 -7.605,8.366 -11.408,11.408 -9.126,7.605 -14.45,20.534 -17.492,31.182 -1.521,6.084 -3.042,12.169 -3.042,18.253 0,7.605 2.282,15.211 6.845,21.295 4.563,6.084 9.126,12.169 15.211,18.253 6.084,5.324 10.647,11.408 15.211,16.732 5.323,3.803 7.604,9.888 7.604,17.493 z"
             id="path18"
             inkscape:connector-curvature="0"
             style="fill:#0db4c7;fill-opacity:1" /><path
             d="m 12.867241,407.59366 c 0.76,-4.563 0,-9.126 -2.282,-12.169 -2.2819996,-3.043 -13.6899996,-5.324 -18.2529996,-5.324 -4.5630004,-0.761 -9.1260004,0.761 -12.9290004,3.042 -4.563,2.282 -6.845,6.084 -6.845,10.647 -1.521,17.492 -0.76,34.984 1.521,52.477 0.76,3.803 0,8.366 0,12.169 0,3.803 0,9.126 -1.521,12.929 -1.521,3.042 -6.845,3.803 -10.647,4.563 -5.324,0.761 -10.647,1.521 -15.971,1.521 -5.324,0 -9.887,-0.761 -9.887,-6.084 0,-0.761 0,-2.282 0,-3.042 0,-19.774 1.521,-40.308 0,-60.082 0,-0.761 0,-1.521 0,-3.042 -1.521,-9.126 -15.211,-23.576 -31.182,-19.013 -8.366001,2.282 -8.366001,24.337 -9.126001,31.182 -0.76,6.084 0,71.49 0.76,79.095 1.521,7.605 2.282,14.45 2.282,20.534 0,9.887 0,20.534 -0.76,29.661 -0.76,12.929 -1.521,25.858 -3.042,38.027 -0.76,4.563 0,9.126 2.282,12.168 2.282,3.042 5.324001,5.324 10.647001,5.324 4.563,0.76 16.732,-0.761 21.295,-3.042 4.563,-2.282 6.845,-6.084 6.845,-10.647 1.521,-17.492 0.76,-34.984 -1.521,-52.477 -0.76,-3.042 0,-6.084 0,-9.126 0,-2.282 0,-5.324 0.76,-7.605 1.521,-2.282 3.803,-3.042 6.845,-3.803 3.042,-0.761 6.084,-1.521 9.126,-1.521 4.563,-0.761 9.887,-0.761 15.211,0 5.324,0.761 6.845,3.042 6.845,7.605 -0.76,6.084 0,12.169 -0.76,17.492 0,9.126 0,18.253 0,28.14 0,1.521 0,2.282 0,3.803 0.76,9.126 7.605,23.576 19.0130004,26.619 12.929,3.042 20.5339996,-16.732 21.2949996,-24.337 0.76,-6.084 0,-78.335 -0.76,-86.701 -1.521,-7.605 -2.2819996,-14.45 -2.2819996,-20.534 0,-9.887 0,-20.534 0.7599996,-29.661 0,-13.69 1.521,-26.619 2.281,-38.788 z"
             id="path28"
             inkscape:connector-curvature="0"
             style="fill:#0db4c7;fill-opacity:1" /></g></g></g></g></svg>