<?xml version="1.0" encoding="UTF-8" standalone="no"?>
<!-- Generator: Adobe Illustrator 17.1.0, SVG Export Plug-In . SVG Version: 6.00 Build 0)  -->

<svg
   xmlns:dc="http://purl.org/dc/elements/1.1/"
   xmlns:cc="http://creativecommons.org/ns#"
   xmlns:rdf="http://www.w3.org/1999/02/22-rdf-syntax-ns#"
   xmlns:svg="http://www.w3.org/2000/svg"
   xmlns="http://www.w3.org/2000/svg"
   xmlns:sodipodi="http://sodipodi.sourceforge.net/DTD/sodipodi-0.dtd"
   xmlns:inkscape="http://www.inkscape.org/namespaces/inkscape"
   version="1.1"
   id="Layer_1"
   x="0px"
   y="0px"
   width="243.97469"
   height="120.45834"
   viewBox="0 127.9 243.97469 120.45834"
   enable-background="new 0 127.9 378 191"
   xml:space="preserve"
   sodipodi:docname="undp.svg"
   inkscape:version="0.92.2 (5c3e80d, 2017-08-06)"><metadata
     id="metadata900"><rdf:RDF><cc:Work
         rdf:about=""><dc:format>image/svg+xml</dc:format><dc:type
           rdf:resource="http://purl.org/dc/dcmitype/StillImage" /><dc:title></dc:title></cc:Work></rdf:RDF></metadata><defs
     id="defs898" /><sodipodi:namedview
     pagecolor="#ffffff"
     bordercolor="#666666"
     borderopacity="1"
     objecttolerance="10"
     gridtolerance="10"
     guidetolerance="10"
     inkscape:pageopacity="0"
     inkscape:pageshadow="2"
     inkscape:window-width="1366"
     inkscape:window-height="713"
     id="namedview896"
     showgrid="false"
     fit-margin-top="0"
     fit-margin-left="0"
     fit-margin-right="0"
     fit-margin-bottom="0"
     inkscape:zoom="2.1402116"
     inkscape:cx="138.67252"
     inkscape:cy="54.344396"
     inkscape:window-x="0"
     inkscape:window-y="0"
     inkscape:window-maximized="1"
     inkscape:current-layer="Layer_1" /><g
     id="g893"
     transform="matrix(0.66478114,0,0,0.66478114,-2.9250371,39.617063)"><g
       id="g851"><rect
         x="190.39999"
         y="132.8"
         width="87.800003"
         height="87.800003"
         id="rect835"
         style="fill:#1b5eac" /><path
         d="m 212.6,147.2 v 34.5 c 0,18.3 9.1,25.1 21.1,25.1 12.7,0 22.2,-7.3 22.2,-25.3 v -34.3 h -7.7 V 182 c 0,12.9 -5.7,18.6 -14.3,18.6 -7.8,0 -13.7,-5.6 -13.7,-18.6 v -34.8 z"
         id="path837"
         inkscape:connector-curvature="0"
         style="fill:#ffffff" /><rect
         x="283.60001"
         y="132.8"
         width="87.800003"
         height="87.800003"
         id="rect839"
         style="fill:#1b5eac" /><path
         d="m 312.6,206 v -25.1 c 0,-9.7 -0.1,-16.8 -0.5,-24.2 l 0.3,-0.1 c 2.9,6.3 6.8,13 10.9,19.6 l 18.6,29.8 h 7.7 v -58.6 h -7.1 V 172 c 0,9.1 0.2,16.2 0.9,24 l -0.4,0.1 C 340.3,190 336.8,183.9 332.6,177 l -18.7,-29.7 h -8.4 v 58.6 h 7.1 z"
         id="path841"
         inkscape:connector-curvature="0"
         style="fill:#ffffff" /><rect
         x="283.60001"
         y="226"
         width="87.800003"
         height="87.800003"
         id="rect843"
         style="fill:#1b5eac" /><path
         d="m 339.9,257.9 c 0,-7.8 -5.5,-11.6 -13.8,-11.6 -3.3,0 -5.8,0.3 -7.1,0.6 v 22.8 c 1.6,0.4 3.8,0.6 6.3,0.6 9.1,0.1 14.6,-4.5 14.6,-12.4 m 7.6,-0.8 c 0,5.3 -1.6,9.5 -4.6,12.5 -4,4.2 -10.5,6.4 -17.9,6.4 -2.3,0 -4.4,-0.1 -6.1,-0.5 v 23.6 h -7.6 v -57.9 c 3.7,-0.7 8.4,-1.2 14.5,-1.2 7.5,0 13,1.7 16.4,4.9 3.4,2.7 5.3,7 5.3,12.2 z"
         id="path845"
         inkscape:connector-curvature="0"
         style="fill:#ffffff" /><rect
         x="190.3"
         y="226.10001"
         width="87.800003"
         height="87.800003"
         id="rect847"
         style="fill:#1b5eac" /><path
         d="m 252.4,268.5 c 0.1,-14 -7.8,-22.6 -23.8,-22.6 -3.9,0 -6.9,0.3 -8.9,0.8 v 46.4 c 1.9,0.3 4.7,0.3 7.7,0.3 16.2,0.1 25,-9 25,-24.9 m 8,-0.2 c 0,9.6 -3,17.4 -8.4,22.8 -5.6,5.5 -14.6,8.4 -26,8.4 -5.5,0 -9.9,-0.2 -13.8,-0.7 v -57.7 c 4.7,-0.7 10.2,-1.2 16.2,-1.2 10.9,0 18.6,2.4 23.8,7.2 5.1,4.8 8.2,11.7 8.2,21.2 z"
         id="path849"
         inkscape:connector-curvature="0"
         style="fill:#ffffff" /></g><g
       id="g891"><rect
         x="4.4000001"
         y="132.8"
         width="181.2"
         height="181.2"
         id="rect853"
         style="fill:#1b5eac" /><path
         d="m 141.1,261.9 c -4.1,1.1 -8.6,1.5 -12.6,2.9 6.8,-5.9 6.5,-14.9 11,-21.9 1.5,-2 2.7,-4 4.3,-5.9 -2.8,5.6 -1.6,12.8 -4.8,18.2 -1.2,2.1 -3,4.2 -4.9,5.9 0.6,0 1.2,-0.6 1.7,-0.9 5.2,-5.2 12,-6.6 17.6,-10.8 2.2,-1.8 4.3,-4.1 5.3,-6.7 -1,8.6 -9.6,16.6 -17.6,19.2"
         id="path855"
         inkscape:connector-curvature="0"
         style="fill:#ffffff" /><path
         d="m 159.8,227.2 c -2.5,3.6 -5.6,7 -7.9,10.6 0.3,-2.9 0.6,-6.5 -0.5,-9.2 -2,-5.9 -3.7,-11.9 -4.2,-18.4 l 0.1,-2.5 c 1.5,6.6 8,11.2 7.6,18.6 0.1,1.8 -0.4,3.3 -0.7,4.9 l 0.1,0.1 0.3,-0.3 c 1,-3.6 1.4,-7.5 2.9,-10.9 2.1,-4.9 4.8,-9.9 3.7,-15.8 3.1,7 2.1,16.3 -1.4,22.9"
         id="path857"
         inkscape:connector-curvature="0"
         style="fill:#ffffff" /><path
         d="m 155.8,189.6 c 4.3,5.8 5.2,15 2.1,21.7 -1.2,2.8 -2,5.8 -2.4,8.9 -0.2,-0.5 -0.3,-1.3 -0.5,-1.9 -1.7,-6.5 -7.9,-11.1 -10.4,-17.3 -0.8,-2 -1.5,-4.1 -1.9,-6.3 2.7,5 9.4,7.6 11.2,13.1 0.7,1.4 0.7,3.1 1.2,4.6 0.1,0 0.2,-0.1 0.2,-0.2 -0.8,-5.7 -0.6,-11.6 0.2,-17.2 0,-3 -0.3,-6 -2,-8.3 1,0.7 1.5,1.9 2.3,2.9"
         id="path859"
         inkscape:connector-curvature="0"
         style="fill:#ffffff" /><path
         d="m 152.7,188.4 c 1.1,5.1 -0.5,10 0.5,15.1 v 0 c -2.8,-5.4 -8.6,-8 -12.7,-12.3 -2.3,-2.6 -3.4,-5.7 -3.9,-9.1 2.3,5.6 8.5,6.8 12.1,11.5 1.2,1.1 1.6,2.6 2.4,3.8 l 0.1,-0.1 c -2.1,-4.4 -2.8,-9.3 -4.2,-14 -0.7,-2 -2.2,-4 -4.1,-5.3 4.8,1.1 8.9,6 9.8,10.4"
         id="path861"
         inkscape:connector-curvature="0"
         style="fill:#ffffff" /><path
         d="m 140.2,176.8 c 3.5,3.2 5.1,7.3 6.2,11.5 l 0.6,1.4 c -5.1,-3.7 -9.8,-8.7 -13.1,-13.9 l -4,-4.1 c 3.5,1.5 7.3,2.4 10.3,5.1"
         id="path863"
         inkscape:connector-curvature="0"
         style="fill:#ffffff" /><path
         d="m 59,172.4 c -3.6,3.1 -6,7.1 -8.6,10.7 -2.4,2.9 -5.4,4.9 -8.1,7.4 1.4,-3 1.5,-6.6 3.5,-9.3 3,-5.1 8.4,-6.9 13.2,-8.8"
         id="path865"
         inkscape:connector-curvature="0"
         style="fill:#ffffff" /><path
         d="m 39.6,183.2 c 1.7,-2.1 3.9,-3.6 6.4,-4.3 -4.8,3.3 -4.5,9.2 -6,14.1 -0.5,1.8 -1.3,3.5 -1.7,5.3 l 0.1,0.1 c 0.8,-2.1 2.2,-4.1 3.9,-5.8 3.4,-3.1 8.4,-5.1 10.1,-9.7 -0.1,6.4 -5.5,11.5 -10.6,15.1 -2.1,1.9 -4.2,4 -5.3,6.4 -0.1,-1.6 0.2,-3.3 0.1,-5 -0.5,-5.6 -1,-12 3,-16.2"
         id="path867"
         inkscape:connector-curvature="0"
         style="fill:#ffffff" /><path
         d="m 29.9,202.5 c -0.1,-5.7 2.2,-10.4 5.6,-14.6 0.1,0 0.2,-0.1 0.3,-0.1 -3.7,5.6 -0.6,12.6 -0.8,19 l -0.5,6.5 c 0.1,0 0.1,0.2 0.2,0.2 0.2,-0.7 0.3,-1.5 0.4,-2.2 0.9,-5.2 5.4,-9 9.4,-12.6 0.8,-0.9 1.6,-1.9 2,-3 -0.3,2.6 -1.1,5.2 -2.2,7.7 -3.1,6 -8.8,11 -9.9,17.9 -0.4,-6.8 -4.9,-11.8 -4.5,-18.8"
         id="path869"
         inkscape:connector-curvature="0"
         style="fill:#ffffff" /><path
         d="m 27.2,210.6 c 0.4,-1.8 0.7,-3.6 1.5,-5.3 -1.5,7.5 3.6,13 5.3,19.5 0.7,2.4 0.9,5.1 1.9,7.4 0.1,0 0.2,0 0.2,-0.1 -2.5,-7 1.1,-13.4 4.7,-18.8 0.9,-1.5 1.4,-3.1 1.8,-4.8 0.4,3.1 -0.4,6.8 -0.9,10 -0.9,4.2 -2.2,8.1 -3.3,12.1 -0.7,2.5 -0.6,5.4 -0.2,8 l -0.4,-0.3 c -2.6,-4.9 -7.9,-8.6 -9.4,-14 -1.3,-4.2 -2.1,-9.1 -1.2,-13.7"
         id="path871"
         inkscape:connector-curvature="0"
         style="fill:#ffffff" /><path
         d="m 26.9,225.3 c 0.6,8 9.2,12.2 13.2,18.8 0.9,1.4 1.8,2.8 3,4 -0.2,-0.8 -1,-1.6 -1.3,-2.4 -1.4,-2.8 -1.9,-6.1 -1.6,-9.4 0.4,-4.1 2.1,-7.9 1.4,-12.2 3.5,7.6 2.4,17 4.4,25.2 0.5,1.8 1.5,3.4 2.2,5.1 -7.2,-4.9 -17,-9.6 -20.2,-18.5 -1.2,-3.2 -1.4,-7 -1.1,-10.6"
         id="path873"
         inkscape:connector-curvature="0"
         style="fill:#ffffff" /><path
         d="m 31.2,243.7 c 4,9.1 14.1,9.8 20.8,15.4 1.2,1.1 2.5,2 3.9,2.7 l 0.1,-0.1 c -1.5,-1.4 -3.3,-3 -4.4,-4.8 -3.9,-5.5 -2.6,-13.2 -5.5,-19.1 2.7,3.2 5.1,6.5 6.7,10.2 2.4,5.9 3.3,12.7 8.9,17.1 -6,-2 -13.1,-1.4 -18.4,-5.1 -5.8,-3.6 -11,-9.7 -12.1,-16.3"
         id="path875"
         inkscape:connector-curvature="0"
         style="fill:#ffffff" /><path
         d="m 41.5,260.6 c 6.4,7.3 16.9,4.9 25.5,6.8 1.2,0.2 2.3,0.7 3.6,0.5 -1,-0.7 -2.4,-0.6 -3.5,-1.2 -6.7,-2.4 -7.7,-9.6 -11.4,-14.5 4.7,3.1 8.6,7.3 12.9,11.3 3.1,2.7 6.8,4 10.7,4.8 -0.9,0.3 -2.2,0.2 -3.2,0.5 -7,1.7 -14.9,4.6 -22.3,2 C 49,269.2 44,265.4 41.5,260.6"
         id="path877"
         inkscape:connector-curvature="0"
         style="fill:#ffffff" /><path
         d="m 128.8,277.7 c -7.2,2.7 -14.8,-0.1 -20.5,-4.4 -2.3,-1.5 -4.3,-3.6 -7.3,-3.4 -1.1,0 -2.1,0 -3,0.3 5.5,2.6 10.6,6.1 15.3,10.6 -0.8,0.9 -1.8,1.7 -2.8,2.5 -4.5,-4.9 -9.5,-9.5 -15.1,-12.2 -1.1,0.1 -2.1,0.8 -3.1,1.3 -4.5,2.9 -9,6.6 -12.4,11.1 L 77,281.1 c 4.6,-4.7 9.8,-8.3 15.4,-10.9 -5.5,-1.7 -9.1,2.9 -13.3,5.2 -4.9,3.4 -11.9,5 -17.8,2.7 -3.2,-1.2 -6.2,-3 -8.5,-5.8 4.6,3.2 11.5,3.5 16.8,1.4 7.1,-3.1 14.4,-7 22.9,-5.1 1.3,0 2.6,1.4 3.9,0.2 6.3,-1.6 13.5,-0.5 19,2.4 l 5.6,2.2 c 5.2,1.9 12,1.4 16.4,-1.8 -2.2,2.8 -5.3,4.9 -8.6,6.1"
         id="path879"
         inkscape:connector-curvature="0"
         style="fill:#ffffff" /><path
         d="m 136.6,270.2 c -8.1,3.1 -16.3,-0.7 -24.1,-2 L 111,268 v 0 c 3.7,-0.8 7.3,-2 10.3,-4.6 4.4,-4.2 8.3,-8.5 13.1,-11.8 -3.6,4.6 -4,11.2 -9.9,14.2 -1.5,1 -3.3,1.1 -4.9,1.9 2.2,0 4.2,-0.7 6.3,-0.9 8,-1.3 17.1,0 22.7,-6.8 -2.1,4.5 -7.3,8.5 -12,10.2"
         id="path881"
         inkscape:connector-curvature="0"
         style="fill:#ffffff" /><path
         d="m 151.4,247.3 c -3.2,2.1 -6.5,4.1 -9.6,6.4 v -0.3 c 4.7,-7.9 2.4,-18.7 5.3,-27.3 l 1.1,-2.9 c -0.6,5.4 1.7,10 1.6,15.4 -0.2,3.3 -1.2,6.2 -2.9,8.8 h 0.3 c 2.3,-3 4.1,-6.3 6.8,-9.2 4.2,-4.1 8.5,-8.2 9,-13.8 1.4,9.3 -3.8,17.6 -11.6,22.9"
         id="path883"
         inkscape:connector-curvature="0"
         style="fill:#ffffff" /><path
         d="m 140.9,218 c -0.5,11.3 -4.7,21.1 -12.1,29.5 l -0.2,0.4 c -1.5,-1.7 -3.5,-3.8 -5.4,-5.3 1.1,-0.7 2,-2.1 2.8,-3.1 4.6,-6.3 7.3,-13.4 7.7,-21.4 l -0.2,-0.7 0.4,0.3 h 6.9 l 0.4,-0.2 z m -44.3,44.2 -0.5,0.3 c 0.2,-2.5 0.2,-5.1 0,-7.6 1.2,0.4 2.5,0 3.8,0 l 3.7,-0.7 c 1.8,0.4 3.1,3.3 5.2,1.5 0.7,-0.8 1.9,-0.8 2.4,-1.9 1.2,-0.4 1.5,-1.6 2.3,-2.4 0.8,-2.3 3.4,-2.6 4.9,-4.2 1.1,-1 2.6,-1.9 3.3,-3.2 l 0.1,0.6 5.1,4.9 c -8.6,7.8 -18.7,12.2 -30.3,12.7 z m -0.1,-15.4 c 0.9,0.4 2.4,-0.4 2.9,0.6 -0.3,0.6 -0.7,1.1 -0.5,1.7 0.4,0.9 0.9,2.1 2,2.2 0.3,0.4 0.7,0.5 1.1,0.6 -1.9,0.3 -4,0.2 -5.8,0.8 0.2,-2 0,-4 0,-6 l -0.4,-0.5 c 0.3,0.1 0.5,0.4 0.7,0.6 z m -1.8,-12.3 c -0.5,0.1 -1,0 -1.4,-0.2 -0.2,0 -0.1,-0.3 -0.2,-0.4 0.7,0 1,-0.8 1.8,-0.7 0.4,-0.4 0.5,-1 1.1,-1.3 -0.2,-0.6 0.6,-0.2 0.7,-0.6 0.2,-0.2 0.5,-0.4 0.8,-0.2 0.5,0.7 1.5,0.4 2,1.2 0.2,0.1 0.3,-0.2 0.3,-0.3 v -0.3 c 0.8,-0.1 1.2,1 2,0.3 0.2,-0.2 0.1,-0.5 0,-0.7 -0.1,0 -0.2,-0.1 -0.2,-0.2 0.6,-0.3 0.9,0.8 1.6,0.5 0.6,-0.5 0.9,-1 1.7,-1 l 0.2,0.2 c 0.1,1.4 -1.1,2.3 -2.2,3 -0.7,0.3 -2,0.2 -1.9,1.3 -0.8,0.7 -1.5,-0.4 -2.5,-0.1 -0.5,-0.2 0,-0.9 -0.7,-1 -1.1,0.3 -2.3,-0.6 -3.1,0.5 z m -5.8,27.4 c -9.7,-1.3 -18.2,-5.5 -25.7,-12 l 5,-5 0.1,-0.3 c 6.9,6.6 15.2,10 24.6,10.6 l 0.7,-0.2 -0.2,0.4 v 6.5 l 0.4,0.6 c -1.6,-0.5 -3.4,-0.3 -4.9,-0.6 z M 54.9,239 C 51.4,232.5 49.4,225.5 49,217.8 h 6.7 l 0.7,-0.2 c -0.1,0.4 -0.1,0.8 -0.1,1.4 v -0.1 c -0.2,0.1 0.1,0.2 0.1,0.4 0.1,2.6 0.6,5 1.2,7.3 l 0.3,0.5 c -0.5,-0.5 -0.7,-1 -1.1,-1.5 -0.6,0.1 -1.2,0.2 -1.6,0.6 0.3,0.7 -0.4,0.5 -0.7,0.7 -0.1,-0.2 -0.3,-0.4 -0.5,-0.5 -0.5,0 -1,0.1 -1.3,0.6 0.1,0.4 -0.3,0.5 -0.5,0.8 -0.1,1.1 -0.5,2.5 0.3,3.4 0,0.8 0.4,1.5 1,2 0.2,0 0.4,-0.1 0.5,-0.2 0.7,0.5 1,1.7 2,1.4 0.3,-0.1 0.2,-0.4 0.3,-0.7 0.5,0.5 0.7,1.5 1.7,1.4 0.2,0.2 0.4,0.7 0.8,0.7 1,-0.3 0.7,1.2 1.4,1.6 0.6,0.4 0.9,1.2 1.7,0.8 l 0.3,-0.4 c 0.3,0.2 0,0.7 0.3,0.9 0.4,0.8 1.2,1.3 2,1.5 0.7,0.8 1.4,1.7 2.2,2.3 l -0.6,0.2 -4.8,5 c -2.2,-2.6 -4.7,-5.5 -6.4,-8.7 z m -5.6,-28.2 c 1.2,-10 5.5,-18.7 12.4,-26.4 l 0.2,0.7 c 1.6,1.6 3.3,3.3 4.9,4.8 -1.4,0.9 -2.1,2.5 -3.2,3.7 -4.3,6.1 -6.8,13 -7.2,20.7 l 0.2,0.9 c -2.4,-0.2 -5,-0.2 -7.5,0 0.1,-1.5 -0.1,-3 0.2,-4.4 z m 18,-31.3 c 7.7,-5.5 16.3,-8.8 26,-9.2 l -0.3,0.6 0.1,5.8 0.2,0.6 c -9.4,0.4 -17.6,4 -24.7,10.4 l -0.1,0.3 c -1.6,-1.7 -3.4,-3.7 -5.3,-5.1 H 63 c 1.5,-0.9 2.8,-2.4 4.3,-3.4 z m 26.1,17.1 c -1.3,-0.3 -2.4,0.3 -3.6,0.4 -2.7,0.7 -5.1,2.2 -7.4,3.8 -0.1,0.2 -0.2,0.4 -0.4,0.5 -1.7,-1.5 -3.3,-3.5 -5.1,-4.8 4.7,-3.8 10,-6.4 16.1,-6.8 l 0.4,-0.2 c -0.3,2.3 -0.3,4.8 0,7.1 z m -1.9,7.8 c -0.1,-0.3 0.3,-0.7 -0.1,-0.9 -1.1,0.5 -0.7,1.7 -1.4,2.5 -0.1,0.6 -0.9,0.3 -1.3,0.7 -0.3,-0.5 -0.9,-0.4 -1.3,-0.2 -0.6,0 -0.7,-1.2 -1.3,-0.6 -0.2,0.2 -0.1,0.6 -0.5,0.5 -0.1,-0.2 -0.3,-0.2 -0.4,-0.3 0,-0.4 0.6,-0.3 0.4,-0.7 -0.4,-0.8 -1.4,-0.7 -2,-1.2 H 83 c 2.8,-3 6.4,-4.3 10.3,-4.9 0,1.7 -0.2,3.7 0.4,5.3 -0.6,-0.8 -1.5,0.1 -2.2,-0.2 z M 84.8,224 c 0.4,-0.4 0.8,-1 1,-1.6 l 0.8,0.4 c -0.8,0.1 -1.2,0.9 -1.8,1.2 z m 7.7,7.3 c -0.3,0.6 -0.1,1.4 -0.2,2 -3.2,-0.6 -6.1,-1.9 -8.7,-4 1.5,-1.6 3.4,-3.1 4.5,-4.8 0.1,0.8 1.1,1.1 1.7,1.5 1.3,0.6 2.8,1.5 4.3,0.9 -0.1,0.1 -0.2,0.2 -0.3,0.3 0.4,0.4 -0.3,0.8 0.2,1.2 0.1,0.3 -0.3,0.3 -0.3,0.5 0.2,0.4 -0.1,1.2 0.6,1.4 0.2,0.2 0,0.6 -0.3,0.6 -0.6,-0.1 -1.2,-0.1 -1.5,0.4 z m -14.9,-26 c -0.7,0.4 -1.2,1.1 -1.6,1.7 -0.6,0.4 -1.3,0.3 -1.8,1 0,0.3 0.3,0.6 0,0.8 -0.6,0.5 -1.7,-0.1 -2,0.9 -0.1,0.9 -1.2,1.4 -1.1,2.4 -0.6,0.4 -0.5,1.1 -0.4,1.7 0.3,0.4 -0.1,1.1 0.4,1.4 -0.9,-0.1 -2.2,-0.3 -3,0.1 0.5,-1.1 0.3,-2.4 0.6,-3.6 0.9,-5 3.2,-9.4 6.5,-13.4 1.7,1.6 3.5,3.6 5.3,5 -1.4,0 -1.4,2 -2.9,2 z m -3.3,28.5 -0.2,-1.5 c -1.4,-1.2 -0.9,-3.4 -1.2,-4.9 -1,-0.8 -0.2,-2 -0.9,-2.9 0,-1.4 -2.2,-1.9 -1.5,-3.4 -0.3,-0.4 -0.6,-0.9 -0.3,-1.4 0.4,-0.5 1.4,0 1.7,-0.7 l 0.2,-1.3 c 0.5,-0.3 1.2,0.4 1.5,-0.3 0.5,-1.2 -1.8,-2.7 0.2,-3.3 0.7,-0.1 1.5,-0.2 1.8,0.6 0.1,0.9 0.4,1.9 0,2.8 0.6,0.2 0.1,0.8 0.1,1.2 -0.4,0.2 -0.7,0.6 -1.2,0.4 -0.2,-0.3 -0.5,-0.9 -1,-0.8 -0.4,0.5 0.1,1 0.1,1.6 -0.1,0.3 0,0.7 -0.2,1 -0.2,-0.1 -0.3,-0.2 -0.6,-0.2 -0.4,0.2 -0.1,0.7 0,0.9 0.4,0.3 0.7,0.7 1.3,0.7 l 0.2,-0.3 c -0.1,-0.8 0.3,-1.4 0.3,-2.1 l 0.7,0.4 c 0.6,3 2,5.7 3.7,8.3 l 0.9,0.9 c -2.2,1.9 -4.3,4.2 -6.2,6.3 v 0 c 0,-0.1 -0.1,-0.5 -0.4,-0.3 -0.2,-0.9 1.3,-0.6 1,-1.7 z m 15.4,8.6 1.2,0.5 c -4.2,-1 -8.7,-2.5 -12.3,-5.5 -0.6,-0.4 -1,-1.2 -1.8,-1.2 1.7,-1.4 3.4,-3.2 4.8,-4.9 0.6,1.2 2,1.8 3,2.6 1.8,0.8 3.7,2.4 5.9,2 -0.7,0.2 -1.3,0.6 -1.8,1.2 -0.3,0.7 -0.2,1.6 -1.1,1.9 0,1.2 1.2,2.4 2.1,3.4 z m -7.2,-18.9 c 0,0.2 0.3,0.5 0.6,0.3 0.3,-0.4 -0.6,-1 0,-1.2 0.4,0.4 0.2,1.2 0.4,1.7 0.2,0.3 0.3,0.6 0.2,0.9 -0.7,0.8 -1.6,1.5 -2,2.4 -0.4,-1.1 -1.4,-2 -1.8,-3.1 -0.7,-1.3 -1.1,-2.7 -1.7,-3.9 0.6,0.7 2.1,-0.1 2.1,1.3 0.1,0.1 0.2,0 0.4,0 0.2,-0.2 0.2,-0.2 0.5,-0.1 0.1,0.2 0.7,0.4 0.2,0.6 0.1,0.5 0.6,1 1.1,1.1 z m 10.8,-36.4 c -1.3,-0.3 -2.5,0.2 -3.8,0.3 -5.4,1.1 -10.4,3.4 -14.5,7.3 l -0.2,-0.5 c -1.6,-1.5 -3.1,-3.4 -4.9,-4.5 1.5,-0.9 2.9,-2.3 4.4,-3.3 5.6,-3.8 11.9,-5.9 18.9,-6.3 -0.2,2.3 0,4.7 0.1,7 z m -27.4,28.1 -0.6,-0.2 -6.6,0.1 c 0.6,-7.4 2.6,-14.2 6.9,-20 l 2.6,-3.3 v -0.5 c 1.5,1.8 3.3,3.5 5.1,5.1 -4.8,5.1 -7.2,11.3 -7.7,18.1 0.1,0.3 0.1,0.6 0.3,0.7 z M 61,226.4 c -0.7,0.1 -0.5,0.8 -0.7,1.2 0.1,-1.7 -0.7,-3.3 -0.9,-5 l -0.5,-4.4 -0.3,-0.4 c 2.1,0.3 4.5,0.1 6.7,0.2 l 0.5,-0.2 c -0.2,1.1 -0.2,2.6 0.5,3.5 -0.3,-0.3 -0.7,-1.1 -1.3,-1.1 -1.2,0.1 -1.3,1.7 -2.6,1.7 -1,0.8 -1.2,2 -1.4,3.2 0.5,0.3 -0.3,0.8 0,1.3 z m 7.3,-8.3 -0.3,-0.6 c 0.7,0.5 1.5,0.4 2.3,0.2 -1.2,0.4 -0.7,1.8 -1.2,2.7 -0.1,0.4 0.6,0.6 0.5,1 -0.6,0.3 -0.7,0.9 -0.9,1.4 0.3,-1.6 -0.3,-3.1 -0.4,-4.7 z m 25.3,34.8 -0.7,-0.5 c -9,-0.5 -16.7,-4.2 -23.4,-10 1.1,-0.1 1.5,1.3 2.7,1 1.3,-0.1 2.3,-1.2 3.7,-1 0.7,0 1.5,0 1.9,-0.7 0.2,-0.7 -0.6,-1.1 -0.7,-1.7 4.6,3.4 9.7,5.6 15.6,5.8 l 0.6,-0.2 v 6.4 z m 1.1,-44.8 0.4,0.2 c -0.5,0 -1.1,-0.3 -1.5,0.1 -0.3,0.2 -0.1,0.6 0,0.9 0.9,0.3 1.1,1.8 2.2,1.2 0.5,0.1 1.1,0.2 1.3,0.7 0.7,0.3 0.8,1.5 1.7,1.2 0,0.5 -0.2,1.3 0.4,1.6 -0.1,0.4 -0.7,0.6 -0.7,1.1 -0.1,0.1 -0.2,0.4 -0.1,0.6 0.9,0.1 0.8,1.1 1.3,1.7 -0.2,0.7 0,1.4 0.7,1.8 -0.1,0.8 -0.5,1.5 -0.8,2.2 -0.9,0.5 -2.5,-0.7 -2.8,1 -0.5,0.6 -0.1,1.9 -1.1,1.9 -2,0.1 -3.8,-0.3 -5.3,-1.4 1,-0.5 2.7,0.2 3,-1.3 0.3,-0.2 0.4,-0.6 0.2,-0.9 0.5,-0.5 0.6,-1.1 0.9,-1.6 -0.4,-0.4 -0.2,-0.6 -0.1,-1 -1,-1 -2.3,-0.5 -3.6,-0.5 -0.8,0.4 0,1.3 -0.5,1.8 -1,0.1 -1,1.1 -1.7,1.6 -0.4,-0.2 -0.7,-0.7 -0.7,-1.1 H 88 c -0.1,0.2 0.1,0.4 0.2,0.4 0.9,0.1 0.6,-0.9 0.9,-1.4 0.1,-0.6 1.5,-1.4 0.4,-1.8 -0.1,-0.2 0.1,-0.6 -0.2,-0.7 -0.3,0.1 -0.9,0.1 -0.9,0.7 0.2,0.4 0,0.9 -0.4,1.2 h -0.2 c 0.1,-0.3 -0.1,-0.5 -0.3,-0.6 -0.6,0 -1,0.4 -1.6,0.3 -0.8,0.2 -1.6,0.3 -2.4,0.3 -0.1,-0.5 0.6,-0.3 0.8,-0.7 -0.1,-0.7 0.4,-1.2 0.7,-1.7 0.2,-0.2 0.6,-0.1 0.8,0 0.2,0.2 0.4,0.4 0.7,0.3 l 0.2,-0.4 c 0.7,0.4 0.3,2.5 1.7,1.6 0.2,-0.9 0,-2 0.4,-2.8 -0.3,-0.8 0.5,-1.1 0.7,-1.6 0.7,0.1 0.7,-0.8 1,-1.2 1.1,-0.3 2.3,-0.6 3.1,-1.8 -0.3,-0.6 -0.1,-1.5 -0.6,-2 0.5,-0.1 1.3,-0.3 1.7,0.1 z m 4.1,-27.8 c 4.2,0.5 8,1.7 11.7,3.4 0.6,0.8 1.6,1.3 1.8,2.3 -0.6,1.5 2,1.4 0.8,2.9 -0.1,0.5 0.3,0.7 0.5,1.1 0.1,0.4 -0.1,1 0.4,1.3 0.9,0.2 1.2,-1 2.1,-0.7 1.1,0.8 1.4,2.2 1.4,3.4 0.1,0.8 0.8,1.3 1.5,1.6 1.4,-0.4 0.8,1.2 1.7,1.6 1.1,0.1 1.7,1.6 2.9,1.4 1.1,0.8 1.7,2 2.7,2.9 0,0.2 0.1,0.4 0.3,0.5 0.6,0.1 0.9,-0.3 1.4,-0.3 1.9,3.8 2.8,8 3.1,12.5 l 0.2,0.5 c -2.3,0 -4.7,0 -7.1,0.2 -0.1,-1.4 0,-2.8 -0.7,-3.9 0.4,-0.7 0.5,-1.7 0.4,-2.5 -0.1,-0.4 -0.5,0 -0.6,0 -0.8,0.7 -0.9,1.8 -1.3,2.7 -0.7,0.9 -0.8,2.4 -0.4,3.4 l 0.3,0.3 h -2.7 c 0.7,-0.4 -0.6,-1.2 0.1,-1.9 l 1.2,-0.2 c 0.4,-0.9 1.4,-1.5 1.3,-2.6 0.5,-0.7 1,-1.5 0.6,-2.4 -0.6,-1.3 1,-2.7 -0.2,-3.9 0.1,-0.4 -0.1,-0.9 -0.6,-0.9 -0.4,-0.1 -0.8,0 -0.8,-0.5 0.2,-0.3 0.8,-0.7 0.6,-1.2 -0.3,-0.4 -0.7,0 -1.1,-0.1 -0.1,-0.6 1,-1.2 0,-1.7 -0.7,-0.1 -1,0.7 -1.7,0.4 -0.3,-0.2 -0.5,-0.7 -0.2,-1 l -1.4,-1.8 c -0.1,-0.2 -0.6,0.1 -0.6,-0.2 0.1,-1.4 -1.6,-2.2 -1.7,-3.6 -0.5,-0.5 -0.1,-1.4 -0.8,-1.8 -0.4,-0.3 -0.8,-0.6 -1.4,-0.4 -0.6,-0.9 -1.3,-1.7 -2.1,-2.5 -0.2,-0.1 -0.4,0.1 -0.5,0.2 0.1,0.7 0.9,1.1 0.9,1.8 -0.1,0 -0.2,0 -0.3,0.1 0.1,0.7 0.7,1.3 1.1,1.7 -3.8,-2.9 -8.3,-4.4 -13,-5.2 -0.9,0 -1.9,-0.4 -2.8,-0.1 0.2,-2.1 0.1,-4.5 0.1,-6.7 l -0.2,-0.5 c 1.1,0.5 2.1,0.2 3.1,0.4 z m 1.9,-9.7 c 9.7,1.3 18.3,5.2 25.6,12.1 l -0.8,0.3 c -1.3,1.4 -2.9,2.6 -3.6,4.2 -0.1,-0.5 -0.8,-0.8 -1,-1.2 -0.1,-1.3 -1.4,-2.6 -2.6,-3.3 -0.9,-0.2 -1.2,-1.6 -2.3,-1.2 -1,-0.8 -2.2,-0.2 -3.1,0.2 v 0.1 c -4.6,-2.6 -9.7,-4.2 -15.2,-4.6 -0.3,0 -0.4,0.2 -0.7,0.2 0.3,-0.2 0.1,-0.8 0.1,-1.1 -0.1,-0.2 -0.4,-0.5 -0.8,-0.3 -0.1,0.2 -0.2,0.4 -0.2,0.6 0.1,-2.1 0.2,-4.8 -0.1,-6.7 1.4,0.6 3.1,0.4 4.7,0.7 z m 4.5,62.3 c 2.1,0.2 4.1,0.7 6,1.4 0.5,0 1,0 1.3,-0.4 -0.1,-0.8 0.8,-1.2 0.7,-2 0.4,-0.7 0.1,-1.6 0.7,-2.2 0.1,-0.8 0,-1.8 -0.6,-2.4 -0.5,-0.3 -1,0.1 -1.5,0.2 -0.6,0.4 -0.4,1.7 -1.4,1.4 -0.2,0.3 -0.7,0.3 -1,0.2 -0.1,-0.1 -0.2,-0.1 -0.2,-0.3 0.7,-0.4 2,-0.1 2.1,-1.3 0.5,-0.5 1.4,-0.3 1.9,-0.8 0.4,-0.6 0.5,-1.1 1,-1.6 0,-0.2 0.1,-0.5 0.1,-0.7 0.1,0.3 0.1,0.8 0.6,1 0.6,0.2 0.8,-0.3 1,-0.7 0,-0.2 0.1,-0.5 0.3,-0.3 0.6,0.5 1.4,0.1 2.1,0.1 0.6,-0.2 1.3,-0.3 1.9,-0.3 -0.6,2.7 -1.9,5.1 -3.5,7.5 -0.6,0.7 -1.1,1.5 -1.8,2.3 -0.2,-0.6 -0.2,-1.3 -0.7,-1.8 l -0.3,0.1 c -0.4,0.8 -1.2,1.4 -1.1,2.3 -0.6,0.9 -2,0.1 -2.9,0.6 -1,0.3 -1.6,-0.7 -2.4,-0.9 -0.9,-0.4 -2,-0.4 -2.8,-0.9 0.2,-0.3 0.3,-0.5 0.5,-0.5 z m 6.6,-35.8 c -1.3,1.4 -2.9,2.8 -4,4.3 l -0.2,-0.5 c -3.2,-2.6 -6.8,-3.9 -10.8,-4.4 l -0.6,0.1 v -6.5 L 96,189.6 c 2.7,0.4 5.3,0.8 7.8,1.6 3.1,1.1 6,2.8 8.7,5 l 0.6,0.2 z m 10.1,20.5 c -0.4,1.3 -0.4,2.8 -0.7,4.1 -0.1,0.2 -0.1,0.5 -0.2,0.7 -0.4,-0.8 -0.8,-1.9 -1.7,-2.4 -0.8,-0.4 -0.3,-1.5 -1,-2 l -0.7,-0.7 c 1.1,0.5 2.8,0.4 4.3,0.3 z m -4.3,-12.8 c 0.8,0.2 1.3,1.1 2.1,1.3 0.7,1.1 1,2.4 1.4,3.6 -0.7,0.7 -0.7,2.3 -2.1,2.1 -0.3,-0.8 0.6,-1.2 0.4,-2 0.2,-0.2 0.6,-0.3 0.7,-0.7 -0.1,-0.7 -1,-0.6 -1.1,-1.3 -0.3,-0.4 -0.8,-0.4 -1.2,-0.5 -0.9,-0.4 -1.8,1.9 -2,0 0.3,-0.2 0.5,-0.6 0.2,-0.9 -0.8,-0.4 -0.9,-1.5 -1.7,-2 -1.2,0 -2.3,-0.5 -3.4,-0.2 -0.7,-0.2 -1.6,-0.7 -2.2,0.1 0,0.6 -0.4,1.1 -0.5,1.7 -0.3,-0.1 -0.5,-0.4 -0.7,-0.7 2.1,-2.4 4.6,-4.8 6.8,-7.1 l 0.1,-0.3 c 1.1,1.4 2.4,2.8 3.2,4.3 0.3,1 -1.5,2 0,2.6 z M 104,227.9 c 0,0.9 -1.3,0.8 -1.9,1.4 -0.3,-0.1 -0.1,-0.5 0,-0.7 0.6,-0.3 1,-0.8 1.9,-0.7 z m -2.1,-20 c -0.4,0.1 -0.8,0.4 -1.2,0.2 -0.4,-0.4 -0.9,-1 -1.6,-1.1 -0.5,0.1 -0.8,0.7 -1.3,0.4 0.9,-0.9 2.4,-1.1 3.1,-2.4 0.2,-0.6 0.4,-1.3 0.3,-1.9 -0.2,-0.3 -0.6,-0.6 -0.9,-0.3 -0.5,0.8 -1.6,1 -2.1,1.8 L 96.5,204 c -0.3,-1.6 0.1,-3.6 -0.3,-5 0.9,0.3 1.9,0.4 2.9,0.6 2.5,0.6 4.7,1.8 6.9,3.1 -0.5,0.2 -1,0.8 -1.4,1.2 0,0.4 0.5,0.3 0.6,0.6 l 0.5,-0.2 c -1,1.9 -3.5,1.6 -3.8,3.6 z m 13.5,37.5 c -1.3,-1.2 0.8,-2.1 1.2,-3.2 -0.2,-1.1 -1.5,-1.8 -2.4,-2.1 -0.5,-0.3 -0.3,-0.8 -0.3,-1.2 0.4,-0.4 0.9,-0.8 1.1,-1.4 l 0.2,0.5 3,3.1 c 0,0.7 0.1,1.3 0.8,1.6 0.3,0.1 0.7,-0.1 1,0 h -0.2 c -1.3,1.4 -2.8,2.5 -4.3,3.6 l -0.3,0.5 c -0.3,-0.6 0.6,-0.9 0.2,-1.4 z m 5.7,-7 c -0.6,-0.6 -0.6,-1.7 -1.7,-1.7 -0.4,0 -0.5,0.3 -0.5,0.6 0,0.2 0.1,0.4 -0.1,0.5 l -2.2,-1.9 c 1,-0.5 1.8,-1.9 2.6,-2.9 2,-2.8 3.2,-6 4.2,-9.2 0.3,0.3 0.8,0.3 1.1,0.1 0.3,-0.3 0.4,-0.8 0.2,-1.1 l -0.7,-1 c 0.1,-1.5 0.5,-2.9 0.3,-4.3 l 0.5,0.2 c 2.2,0 4.5,0.1 6.7,-0.1 l -0.3,0.4 c -0.6,8.7 -3.6,16.6 -9.7,23 0.3,-0.9 -0.5,-1.7 -0.4,-2.6 z m 19.7,-26.1 c 0.1,0.8 -0.1,1.8 0.4,2.5 l -7,0.1 c -0.2,0.1 -0.4,0.2 -0.6,0.2 l 0.2,-0.3 c -0.1,-5.5 -1.6,-10.4 -3.7,-15 -0.1,-2.1 -2.1,-3.5 -2.9,-5.3 -1.5,-1.1 -2,-2.9 -3.8,-3.9 -0.3,-0.4 -0.5,-1 -1,-1.1 l 0.8,-0.2 c 1.7,-1.7 3.5,-3.4 4.8,-5.2 7.3,8.2 11.9,17.4 12.8,28.2 z m -2.3,-17.1 c -7.9,-16.9 -25.3,-27.6 -43.5,-27.6 -8,0.1 -15.3,1.9 -22,5.2 -11.9,5.7 -21.6,18 -24.9,30.2 -5.3,20.6 1.9,41.4 19.5,53.5 12.7,9.1 32.9,10.8 47.2,3.9 12.7,-5.3 23.5,-18.4 26.8,-31.3 3.3,-10.8 1.9,-24.2 -3.1,-33.9 z"
         id="path885"
         inkscape:connector-curvature="0"
         style="fill:#ffffff" /><path
         d="m 116.4,180 c 0,0.3 0,0.5 0.2,0.7 1,0.4 1.1,1.8 2.4,1.5 0.4,-0.4 -0.2,-0.9 -0.1,-1.5 -0.2,-0.5 -0.6,-0.7 -1.1,-0.9 -0.6,0.6 -1,-0.3 -1.4,0.2"
         id="path887"
         inkscape:connector-curvature="0"
         style="fill:#ffffff" /><path
         d="m 97.1,175.9 c 1.3,1.6 3.5,0.7 5.1,0.4 1.2,0.5 2.3,-0.1 3.1,-0.8 v -0.2 c -0.8,-1.2 -2.4,-1.3 -3.8,-1.4 l -3.5,1.5 c -0.3,-0.1 -0.8,-0.3 -1,0.1 -0.1,0.2 0,0.3 0.1,0.4"
         id="path889"
         inkscape:connector-curvature="0"
         style="fill:#ffffff" /></g></g></svg>