<?xml version="1.0" encoding="UTF-8" standalone="no"?>
<!-- Created with Inkscape (http://www.inkscape.org/) -->

<svg
   xmlns:dc="http://purl.org/dc/elements/1.1/"
   xmlns:cc="http://creativecommons.org/ns#"
   xmlns:rdf="http://www.w3.org/1999/02/22-rdf-syntax-ns#"
   xmlns:svg="http://www.w3.org/2000/svg"
   xmlns="http://www.w3.org/2000/svg"
   xmlns:sodipodi="http://sodipodi.sourceforge.net/DTD/sodipodi-0.dtd"
   xmlns:inkscape="http://www.inkscape.org/namespaces/inkscape"
   version="1.1"
   id="svg835"
   width="300.96136"
   height="80.128967"
   viewBox="0 0 300.96137 80.128967"
   sodipodi:docname="yubico.svg"
   inkscape:version="0.92.2 (5c3e80d, 2017-08-06)">
  <metadata
     id="metadata841">
    <rdf:RDF>
      <cc:Work
         rdf:about="">
        <dc:format>image/svg+xml</dc:format>
        <dc:type
           rdf:resource="http://purl.org/dc/dcmitype/StillImage" />
        <dc:title />
      </cc:Work>
    </rdf:RDF>
  </metadata>
  <defs
     id="defs839" />
  <sodipodi:namedview
     pagecolor="#ffffff"
     bordercolor="#666666"
     borderopacity="1"
     objecttolerance="10"
     gridtolerance="10"
     guidetolerance="10"
     inkscape:pageopacity="0"
     inkscape:pageshadow="2"
     inkscape:window-width="1366"
     inkscape:window-height="718"
     id="namedview837"
     showgrid="false"
     fit-margin-top="0"
     fit-margin-left="0"
     fit-margin-right="0"
     fit-margin-bottom="0"
     inkscape:zoom="1.8744075"
     inkscape:cx="112.27298"
     inkscape:cy="9.956493"
     inkscape:window-x="0"
     inkscape:window-y="0"
     inkscape:window-maximized="1"
     inkscape:current-layer="g845" />
  <g
     id="g845"
     transform="translate(-16.479363,-15.5)">
    <path
       style="fill:#99c93c;stroke-width:0.08380534"
       d="m 69.870893,83.309443 c -0.02283,-0.03696 1.068439,-2.686431 2.425036,-5.887771 1.356596,-3.201334 2.46654,-5.868326 2.46654,-5.926643 0,-0.05831 -2.755905,-7.137803 -6.124233,-15.732194 -3.368327,-8.594391 -6.100251,-15.664968 -6.070942,-15.712391 0.08418,-0.13621 10.473967,-0.118013 10.579548,0.01853 0.04455,0.05761 1.752618,4.620819 3.795704,10.140449 2.043086,5.519629 3.755451,10.035467 3.805256,10.035192 0.0498,-2.52e-4 1.695325,-4.554049 3.65671,-10.119497 l 3.566155,-10.118998 5.144762,-0.0216 c 2.829618,-0.01188 5.176206,0.0098 5.214637,0.04828 0.03844,0.03844 -3.884357,9.796812 -8.717311,21.685287 L 80.825567,83.3335 75.368983,83.35507 c -3.001122,0.01183 -5.475262,-0.0086 -5.49809,-0.04561 z M 251.8199,72.64534 c -1.19258,-0.09994 -2.75564,-0.358242 -3.77848,-0.624404 -5.53947,-1.441469 -9.47211,-5.384797 -10.8663,-10.895866 -0.39195,-1.549352 -0.51752,-2.607312 -0.56201,-4.735003 -0.0779,-3.728883 0.45565,-6.453496 1.78081,-9.092881 0.73519,-1.464343 1.4754,-2.48274 2.68019,-3.687528 1.20531,-1.205325 2.22396,-1.945553 3.68752,-2.67967 2.9838,-1.496659 6.8992,-2.177227 10.8947,-1.893703 5.74187,0.407448 9.72599,2.339498 12.54173,6.081962 2.55052,3.389962 3.63972,8.471108 2.95393,13.780199 -0.48568,3.759988 -1.91631,6.826245 -4.30494,9.226776 -2.41117,2.423179 -5.63819,3.895075 -9.64032,4.39712 -1.2774,0.160238 -4.15767,0.226004 -5.38683,0.122998 z m 3.79453,-7.202659 c 0.99242,-0.20415 2.00214,-0.690451 2.63552,-1.269329 0.89145,-0.814721 1.7387,-2.324404 2.10177,-3.745018 0.53371,-2.088285 0.58747,-5.991725 0.11507,-8.354242 -0.65405,-3.270959 -2.09915,-5.094805 -4.55904,-5.7539 -0.53413,-0.143113 -0.92604,-0.18133 -1.92753,-0.187959 -2.17846,-0.01442 -3.24868,0.371455 -4.48698,1.617821 -0.58995,0.593771 -0.78455,0.860359 -1.10711,1.516559 -0.50216,1.021598 -0.78029,1.887649 -1.00925,3.1427 -0.16126,0.883967 -0.18355,1.299766 -0.18418,3.436019 -6.9e-4,1.977477 0.0281,2.60167 0.15401,3.349707 0.4962,2.948467 1.58901,4.775367 3.40701,5.695682 0.29961,0.151666 0.69031,0.322975 0.86824,0.380687 1.09923,0.356533 2.74802,0.427265 3.99247,0.171273 z m -143.51347,6.99362 c -4.59931,-0.743763 -7.47741,-3.674514 -8.29734,-8.449109 -0.07,-0.407832 -0.16518,-1.237504 -0.21142,-1.843718 -0.10034,-1.315216 -0.11433,-21.918698 -0.015,-22.075164 0.0528,-0.08317 1.12701,-0.100861 5.08989,-0.08381 l 5.02296,0.02162 0.053,9.218589 c 0.0344,5.984436 0.0868,9.542004 0.14944,10.140448 0.3063,2.927571 1.17697,4.249367 3.14979,4.781801 0.77724,0.209767 2.75197,0.255023 3.72547,0.08538 1.09742,-0.191236 2.39139,-0.639335 3.48178,-1.20574 l 0.92186,-0.478854 0.0427,-11.270812 c 0.0234,-6.198947 0.0517,-11.280534 0.0628,-11.292417 0.0112,-0.01188 2.29237,-0.01188 5.06947,0 l 5.04927,0.02161 v 15.839211 15.839213 l -5.02297,0.02162 c -3.96287,0.01704 -5.03709,-5.14e-4 -5.08989,-0.08381 -0.0368,-0.05798 -0.0675,-0.81253 -0.0682,-1.676773 -5.1e-4,-0.889829 -0.0344,-1.57135 -0.0777,-1.57135 -0.042,0 -0.49549,0.299978 -1.00768,0.666618 -2.56269,1.834463 -4.58804,2.839603 -6.60929,3.28005 -1.07783,0.234868 -4.26096,0.302656 -5.41891,0.115401 z m 105.13061,0.04082 c -3.06251,-0.288748 -5.69325,-0.961923 -7.83579,-2.005076 -4.54485,-2.212777 -7.2917,-5.994197 -8.13334,-11.196639 -0.1812,-1.120032 -0.25399,-4.238558 -0.12903,-5.528116 0.6975,-7.198598 5.03168,-12.149409 12.1679,-13.899077 2.33259,-0.571904 4.21339,-0.760334 6.97175,-0.698465 2.25362,0.05055 3.50333,0.204236 5.25524,0.646287 1.79468,0.452838 4.34035,1.37134 5.00165,1.804634 l 0.19428,0.127308 v 4.213477 c 0,3.165409 -0.025,4.238493 -0.10056,4.314044 -0.0598,0.05975 -0.34753,0.100566 -0.70909,0.100566 -0.66956,0 -0.57323,0.05464 -1.99782,-1.13322 -1.40078,-1.168004 -3.77746,-2.311487 -5.48925,-2.641033 -1.54968,-0.298335 -3.59138,-0.258669 -4.98369,0.09682 -2.10674,0.537899 -3.7784,1.921 -4.79915,3.970753 -1.25801,2.526163 -1.44966,6.633172 -0.44669,9.572441 0.66999,1.963503 2.18001,3.589021 4.06167,4.372358 1.27904,0.532465 1.90161,0.632642 3.94702,0.63511 1.49061,0.0018 1.98014,-0.02758 2.55605,-0.153349 2.28366,-0.498737 3.84929,-1.302948 5.724,-2.940223 l 0.82138,-0.717349 h 0.6075 c 0.36077,0 0.64835,0.04084 0.70807,0.100567 0.0756,0.07555 0.10056,1.148635 0.10056,4.314044 v 4.213477 l -0.18855,0.1235 c -0.32092,0.210187 -2.48497,1.050173 -3.49888,1.358103 -2.47129,0.750552 -3.88866,0.958438 -6.78823,0.995636 -1.22146,0.01565 -2.57911,-0.0053 -3.017,-0.04658 z m -56.94573,-0.220363 c -2.14248,-0.265858 -4.21613,-0.91064 -5.79579,-1.80215 -0.26266,-0.148238 -0.48959,-0.227343 -0.53062,-0.184981 -0.0395,0.04071 -0.13445,0.318264 -0.21113,0.616791 -0.0767,0.298526 -0.17538,0.609957 -0.21932,0.692071 -0.0754,0.140936 -0.35082,0.148086 -4.91635,0.127671 l -4.83646,-0.02162 V 49.727542 27.770539 h 5.07023 5.07023 l 0.0214,7.697939 c 0.017,6.099844 0.043,7.689544 0.12571,7.657501 0.0574,-0.02224 0.51915,-0.337541 1.02616,-0.700669 2.29582,-1.644254 4.32804,-2.624494 6.35343,-3.064573 0.74869,-0.162676 1.1067,-0.185828 2.90707,-0.187998 1.93649,-0.0023 2.10565,0.01014 2.97509,0.219177 1.22145,0.293686 2.21517,0.662733 3.02093,1.121913 3.31227,1.887578 5.48334,5.531845 6.23596,10.467403 0.34677,2.274139 0.41422,5.251251 0.16483,7.276165 -0.42773,3.472867 -1.67531,6.548766 -3.62386,8.934526 -2.29258,2.807001 -5.14782,4.481729 -8.52154,4.998274 -0.72957,0.111704 -3.59597,0.155919 -4.31597,0.06658 z m 0.33522,-7.354452 c 2.17385,-0.475394 3.72093,-1.632397 4.64621,-3.474724 0.88935,-1.770781 1.27989,-4.31717 1.09244,-7.12283 -0.28399,-4.250864 -1.59396,-6.499208 -4.20384,-7.215215 -1.3951,-0.382742 -3.28356,-0.36883 -4.87923,0.03594 -0.93013,0.23595 -2.43112,0.825075 -2.96193,1.162535 l -0.35618,0.226435 v 7.956812 7.956811 l 0.6495,0.204406 c 0.57708,0.181618 1.29961,0.320969 2.19989,0.424278 0.64995,0.07458 3.24681,-0.0306 3.81314,-0.154449 z m 22.97728,6.7689 c -0.0806,-0.08065 -0.0678,-31.475733 0.013,-31.602913 0.0529,-0.08318 1.12702,-0.100862 5.08989,-0.08381 l 5.02297,0.02162 v 15.839212 15.839209 l -5.03466,0.02162 c -2.76906,0.01189 -5.06009,-0.0036 -5.09118,-0.0349 z m -0.26933,-36.336625 c -0.0222,-0.05796 -0.0305,-1.783585 -0.0186,-3.834721 l 0.0219,-3.729321 h 5.32164 5.32164 v 3.813144 3.813143 l -5.30308,0.02157 c -4.19788,0.01708 -5.3115,-4.18e-4 -5.3435,-0.08381 z"
       id="path847"
       inkscape:connector-curvature="0" />
  </g>
</svg>
