<?xml version="1.0" encoding="UTF-8" standalone="no"?>
<!-- Created with Inkscape (http://www.inkscape.org/) -->

<svg
   xmlns:dc="http://purl.org/dc/elements/1.1/"
   xmlns:cc="http://creativecommons.org/ns#"
   xmlns:rdf="http://www.w3.org/1999/02/22-rdf-syntax-ns#"
   xmlns:svg="http://www.w3.org/2000/svg"
   xmlns="http://www.w3.org/2000/svg"
   xmlns:sodipodi="http://sodipodi.sourceforge.net/DTD/sodipodi-0.dtd"
   xmlns:inkscape="http://www.inkscape.org/namespaces/inkscape"
   version="1.1"
   id="svg835"
   width="300.96136"
   height="80.128967"
   viewBox="0 0 300.96137 80.128967"
   sodipodi:docname="yubico.svg"
   inkscape:version="0.92.2 (5c3e80d, 2017-08-06)">
  <metadata
     id="metadata841">
    <rdf:RDF>
      <cc:Work
         rdf:about="">
        <dc:format>image/svg+xml</dc:format>
        <dc:type
           rdf:resource="http://purl.org/dc/dcmitype/StillImage" />
        <dc:title></dc:title>
      </cc:Work>
    </rdf:RDF>
  </metadata>
  <defs
     id="defs839" />
  <sodipodi:namedview
     pagecolor="#ffffff"
     bordercolor="#666666"
     borderopacity="1"
     objecttolerance="10"
     gridtolerance="10"
     guidetolerance="10"
     inkscape:pageopacity="0"
     inkscape:pageshadow="2"
     inkscape:window-width="1366"
     inkscape:window-height="718"
     id="namedview837"
     showgrid="false"
     fit-margin-top="0"
     fit-margin-left="0"
     fit-margin-right="0"
     fit-margin-bottom="0"
     inkscape:zoom="1.8744075"
     inkscape:cx="213.37159"
     inkscape:cy="9.956493"
     inkscape:window-x="0"
     inkscape:window-y="0"
     inkscape:window-maximized="1"
     inkscape:current-layer="g845" />
  <g
     id="g845"
     transform="translate(-16.479363,-15.5)">
    <path
       style="fill:#99c93c;stroke-width:0.12080396"
       d="m 27.007712,95.558372 c -0.03291,-0.05327 1.540136,-3.872445 3.495647,-8.487121 1.955511,-4.614668 3.555476,-8.45909 3.555476,-8.543154 0,-0.08405 -3.97259,-10.289019 -8.827976,-22.677686 -4.855386,-12.388666 -8.793407,-22.58078 -8.751159,-22.64914 0.121349,-0.196345 15.098043,-0.170113 15.250236,0.02671 0.06422,0.08305 2.526369,6.66083 5.471442,14.617281 2.945073,7.956451 5.413417,14.465953 5.48521,14.465556 0.07179,-3.63e-4 2.443783,-6.564583 5.271085,-14.58708 l 5.140551,-14.58636 7.416085,-0.03114 c 4.078846,-0.01712 7.461412,0.01418 7.51681,0.06959 0.05541,0.05541 -5.599234,14.121935 -12.565853,31.258966 l -12.66658,31.158245 -7.865572,0.03109 c -4.326065,0.01706 -7.892496,-0.01246 -7.925402,-0.06574 z M 289.28406,80.186251 c -1.71909,-0.144067 -3.97221,-0.516399 -5.44662,-0.900068 -7.98505,-2.077852 -13.65387,-7.762091 -15.66358,-15.706203 -0.56499,-2.233364 -0.746,-3.758395 -0.81012,-6.825424 -0.11237,-5.375121 0.65681,-9.302604 2.567,-13.107231 1.05977,-2.110825 2.12676,-3.578827 3.86345,-5.315509 1.73744,-1.737455 3.2058,-2.804481 5.3155,-3.862698 4.30109,-2.157407 9.94507,-3.138435 15.70452,-2.72974 8.27681,0.587329 14.01985,3.372346 18.07868,8.767044 3.67653,4.886572 5.2466,12.210956 4.25805,19.863918 -0.7001,5.419959 -2.76233,9.839915 -6.2055,13.300239 -3.47566,3.492971 -8.12736,5.614684 -13.89636,6.338373 -1.84135,0.23098 -5.9932,0.325781 -7.76502,0.177299 z m 5.46975,-10.382509 c 1.43055,-0.294278 2.88605,-0.995273 3.79906,-1.829715 1.285,-1.174407 2.5063,-3.350588 3.02966,-5.398379 0.76933,-3.010227 0.84683,-8.636969 0.16587,-12.042496 -0.9428,-4.715031 -3.02589,-7.344074 -6.57177,-8.294148 -0.76995,-0.206295 -1.33487,-0.261383 -2.77851,-0.270939 -3.14021,-0.02079 -4.68291,0.535446 -6.4679,2.332061 -0.8504,0.855911 -1.13092,1.240193 -1.59588,2.186093 -0.72385,1.472617 -1.12477,2.721014 -1.45482,4.530149 -0.23245,1.274222 -0.26458,1.87359 -0.26549,4.952962 -0.001,2.850498 0.0405,3.750262 0.22201,4.828544 0.71526,4.250164 2.29053,6.883609 4.91114,8.210227 0.43188,0.218625 0.99507,0.465563 1.25155,0.548754 1.58452,0.513937 3.96122,0.615896 5.75508,0.246887 z M 87.881623,79.884925 C 81.251806,78.812803 77.103062,74.588176 75.92115,67.70568 c -0.100952,-0.587882 -0.238098,-1.78384 -0.304761,-2.657688 -0.144628,-1.89586 -0.164805,-31.595425 -0.02162,-31.820968 0.07611,-0.119893 1.624579,-0.145389 7.336992,-0.120805 l 7.240513,0.03116 0.07639,13.288437 c 0.04957,8.626461 0.125156,13.754634 0.215415,14.61728 0.441527,4.220043 1.696579,6.125389 4.540361,6.892884 1.120386,0.302375 3.966927,0.367612 5.37021,0.123074 1.58191,-0.275663 3.44714,-0.921591 5.01893,-1.738053 l 1.32884,-0.690261 0.0615,-16.24668 c 0.0338,-8.935675 0.0746,-16.260696 0.0906,-16.277825 0.0161,-0.01712 3.30441,-0.01712 7.30755,0 l 7.27844,0.03115 v 22.83195 22.831953 l -7.24052,0.03116 c -5.71241,0.02456 -7.26088,-7.41e-4 -7.33699,-0.120806 -0.053,-0.08358 -0.0973,-1.171249 -0.0983,-2.41704 -7.4e-4,-1.282673 -0.0496,-2.265074 -0.11204,-2.265074 -0.0606,0 -0.71424,0.432413 -1.45256,0.960918 -3.69407,2.644347 -6.61358,4.093239 -9.527173,4.728136 -1.553678,0.338558 -6.142103,0.436274 -7.811274,0.166348 z m 151.543957,0.05884 c -4.41455,-0.416226 -8.20672,-1.386595 -11.29516,-2.890283 -6.55132,-3.189679 -10.51086,-8.640531 -11.72407,-16.139762 -0.26119,-1.614507 -0.36612,-6.109808 -0.18599,-7.968684 1.00544,-10.376654 7.25308,-17.513163 17.53982,-20.035279 3.36238,-0.82439 6.07353,-1.096008 10.04966,-1.006825 3.24855,0.07286 5.04999,0.294402 7.57534,0.931611 2.58699,0.652759 6.25653,1.976763 7.20978,2.601349 l 0.28006,0.183513 v 6.073654 c 0,4.562883 -0.0361,6.109714 -0.14496,6.21862 -0.0862,0.08613 -0.50096,0.144964 -1.02214,0.144964 -0.96516,0 -0.8263,0.07876 -2.87983,-1.633517 -2.01919,-1.683657 -5.44513,-3.331969 -7.91265,-3.807004 -2.23384,-0.430044 -5.17691,-0.372867 -7.1839,0.139564 -3.03684,0.775372 -5.44651,2.769088 -6.9179,5.723771 -1.8134,3.64142 -2.08966,9.561603 -0.6439,13.798509 0.96579,2.830356 3.14245,5.173512 5.85483,6.302678 1.84372,0.76754 2.74114,0.911943 5.68956,0.9155 2.14869,0.0026 2.85434,-0.03975 3.68451,-0.22105 3.29186,-0.71892 5.54868,-1.878177 8.25104,-4.23828 l 1.18401,-1.034046 h 0.8757 c 0.52004,0 0.93459,0.05887 1.02067,0.144965 0.1089,0.108906 0.14496,1.655738 0.14496,6.21862 v 6.073655 l -0.2718,0.178022 c -0.4626,0.302981 -3.58203,1.513807 -5.04357,1.957682 -3.56232,1.081908 -5.60544,1.381572 -9.78512,1.435193 -1.76071,0.02256 -3.71774,-0.0077 -4.34895,-0.06714 z m -82.08629,-0.317649 c -3.08834,-0.383231 -6.07748,-1.312673 -8.35453,-2.597769 -0.37862,-0.213682 -0.70573,-0.327711 -0.76488,-0.266647 -0.0569,0.05868 -0.1938,0.458772 -0.30434,0.889094 -0.11054,0.43032 -0.2528,0.879243 -0.31615,0.997608 -0.10872,0.203157 -0.5057,0.213463 -7.08683,0.184036 l -6.97166,-0.03116 V 47.150641 15.5 h 7.30864 7.30865 l 0.0309,11.096446 c 0.0245,8.79282 0.062,11.084345 0.18121,11.038156 0.0827,-0.03206 0.74834,-0.48656 1.4792,-1.010003 3.30938,-2.370163 6.23879,-3.783162 9.15835,-4.417529 1.07922,-0.234495 1.59529,-0.267868 4.19049,-0.270995 2.79142,-0.0033 3.03526,0.01461 4.28854,0.31594 1.76071,0.423343 3.19314,0.955317 4.35463,1.617217 4.77458,2.720912 7.90413,7.97406 8.98902,15.088581 0.49987,3.278132 0.59709,7.569588 0.2376,10.488466 -0.61657,5.006079 -2.41493,9.439934 -5.22373,12.878965 -3.30472,4.046244 -7.42049,6.460336 -12.28365,7.204926 -1.05167,0.16102 -5.18353,0.224755 -6.2214,0.09597 z M 157.8225,69.0248 c 3.13358,-0.685273 5.36367,-2.353073 6.69744,-5.008755 1.28198,-2.55255 1.84494,-6.223126 1.57473,-10.267437 -0.40937,-6.127546 -2.29767,-9.368495 -6.05976,-10.400608 -2.01101,-0.551715 -4.7332,-0.531661 -7.03333,0.05181 -1.34077,0.340119 -3.50442,1.189332 -4.26957,1.675774 l -0.51342,0.326403 V 56.871594 68.3412 l 0.93624,0.294647 c 0.83185,0.261799 1.87336,0.462671 3.1711,0.61159 0.93689,0.107513 4.68022,-0.04411 5.49657,-0.222636 z m 33.12136,9.757252 c -0.11626,-0.116258 -0.0977,-45.371726 0.0187,-45.555054 0.0762,-0.119894 1.62457,-0.14539 7.33698,-0.120805 l 7.24053,0.03116 v 22.83195 22.831947 l -7.25738,0.03116 c -3.99155,0.01714 -7.29403,-0.0052 -7.33884,-0.05031 z m -0.38823,-52.378618 c -0.032,-0.08355 -0.044,-2.571007 -0.0268,-5.527684 L 190.56038,15.5 h 7.67105 7.67105 v 5.496581 5.49658 l -7.64429,0.0311 c -6.05118,0.02462 -7.65644,-6.03e-4 -7.70256,-0.120804 z"
       id="path847"
       inkscape:connector-curvature="0" />
  </g>
</svg>
