<?xml version="1.0" encoding="UTF-8" standalone="no"?>
<svg
   xmlns:dc="http://purl.org/dc/elements/1.1/"
   xmlns:cc="http://creativecommons.org/ns#"
   xmlns:rdf="http://www.w3.org/1999/02/22-rdf-syntax-ns#"
   xmlns:svg="http://www.w3.org/2000/svg"
   xmlns="http://www.w3.org/2000/svg"
   xmlns:sodipodi="http://sodipodi.sourceforge.net/DTD/sodipodi-0.dtd"
   xmlns:inkscape="http://www.inkscape.org/namespaces/inkscape"
   viewBox="7177 2264.854 429.557 169.322"
   version="1.1"
   id="svg61"
   sodipodi:docname="404.svg"
   inkscape:version="0.92.3 (2405546, 2018-03-11)">
  <metadata
     id="metadata65">
    <rdf:RDF>
      <cc:Work
         rdf:about="">
        <dc:format>image/svg+xml</dc:format>
        <dc:type
           rdf:resource="http://purl.org/dc/dcmitype/StillImage" />
      </cc:Work>
    </rdf:RDF>
  </metadata>
  <sodipodi:namedview
     pagecolor="#ffffff"
     bordercolor="#666666"
     borderopacity="1"
     objecttolerance="10"
     gridtolerance="10"
     guidetolerance="10"
     inkscape:pageopacity="0"
     inkscape:pageshadow="2"
     inkscape:window-width="771"
     inkscape:window-height="480"
     id="namedview63"
     showgrid="false"
     inkscape:zoom="0.62855452"
     inkscape:cx="214.7785"
     inkscape:cy="84.661003"
     inkscape:window-x="0"
     inkscape:window-y="0"
     inkscape:window-maximized="0"
     inkscape:current-layer="svg61" />
  <defs
     id="defs4">
    <style
       id="style2">
      .cls-1 {
        fill: #58595b;
      }
    </style>
  </defs>
  <g
     id="Group_1"
     data-name="Group 1"
     transform="translate(6671.5,1949)"
     style="fill:#ffffff">
    <path
       id="path"
       class="cls-1"
       d="m 247.369,227.167 -9.924,-3.1 v 6.823 l 2.481,1.861 v 1.861 l -4.342,-1.24 -4.342,1.24 v -1.861 l 2.481,-1.861 v -6.823 l -9.924,3.1 v -2.481 l 9.924,-6.2 v -6.823 a 1.866,1.866 0 0 1 0.5,-1.365 1.694,1.694 0 0 1 1.365,-0.5 1.866,1.866 0 0 1 1.365,0.5 1.694,1.694 0 0 1 0.5,1.365 v 6.823 l 9.924,6.2 z"
       transform="translate(507.181,115.495)"
       inkscape:connector-curvature="0"
       style="fill:#ffffff" />
    <path
       id="path-2"
       data-name="path"
       class="cls-1"
       d="m 387.392,212.281 a 1.7,1.7 0 0 1 1.737,1.737 V 233 a 1.209,1.209 0 0 1 -0.5,1.116 1.593,1.593 0 0 1 -1.24,0.5 h -9.056 a 1.593,1.593 0 0 1 -1.24,-0.5 1.347,1.347 0 0 1 -0.5,-1.116 v -18.982 a 1.7,1.7 0 0 1 1.737,-1.737 h 1.985 V 209.8 h 4.962 v 2.481 z"
       transform="translate(545.928,213.495)"
       inkscape:connector-curvature="0"
       style="fill:#ffffff" />
    <path
       id="path-3"
       data-name="path"
       class="cls-1"
       d="M 139.781,271.481 H 112.9 L 139.781,244.6 Z"
       transform="translate(749.511,75.793)"
       inkscape:connector-curvature="0"
       style="fill:#ffffff" />
    <path
       id="path-4"
       data-name="path"
       class="cls-1"
       d="m 173.134,255.4 v 0 L 162.714,268.425 152.17,255.4 v 0 l -3.97,-4.838 a 24.631,24.631 0 0 1 14.39,-4.962 24.351,24.351 0 0 1 14.39,4.962 z"
       transform="translate(561,73.105)"
       inkscape:connector-curvature="0"
       style="fill:#ffffff" />
    <path
       id="path-5"
       data-name="path"
       class="cls-1"
       d="m 283.411,244.3 9.033,9.033 -9.033,8.874 h 6.973 v 12.678 h -12.678 v -12.678 h 5.863 l -8.874,-8.874 v 5.867 h -12.678 v -12.681 h 12.678 v 6.973 z M 261.7,274.885 v -12.678 h 12.678 v 12.678 z"
       transform="translate(623.957,176.47)"
       inkscape:connector-curvature="0"
       style="fill:#ffffff" />
    <path
       id="path-6"
       data-name="path"
       class="cls-1"
       d="m 465.8,244.6 a 2.681,2.681 0 0 1 2.615,2.615 v 20.918 a 2.681,2.681 0 0 1 -2.615,2.615 h -15.685 a 2.681,2.681 0 0 1 -2.615,-2.615 v -15.689 l 7.844,-7.844 z m -7.844,7.844 v -5.23 h -2.615 v 5.23 z m 3.922,0 v -5.23 h -2.615 v 5.23 z m 3.922,0 v -5.23 h -2.615 v 5.23 z"
       transform="translate(354.978,180.864)"
       inkscape:connector-curvature="0"
       style="fill:#ffffff" />
    <path
       id="path-7"
       data-name="path"
       class="cls-1"
       d="m 150.8,280.4 h 26.536 v 26.536 H 150.8 Z m 11.941,11.794 v -8.845 H 153.9 v 8.845 z m 0,11.794 v -8.845 H 153.9 v 8.845 z m 11.646,-11.794 v -8.845 h -8.845 v 8.845 z m 0,11.794 v -8.845 h -8.845 v 8.845 z"
       transform="translate(737.171,175.474)"
       inkscape:connector-curvature="0"
       style="fill:#ffffff" />
    <path
       id="path-8"
       data-name="path"
       class="cls-1"
       d="m 855.613,283.205 18.111,18.111 -1.613,1.613 -3.349,-3.225 a 7.41,7.41 0 0 1 -4.838,1.861 6.757,6.757 0 0 1 -5.21,-2.233 7.659,7.659 0 0 1 -2.233,-5.21 11.226,11.226 0 0 1 1.613,-5.086 L 854,284.942 Z M 871.491,294 a 6.554,6.554 0 0 1 -0.124,1.613 L 860.7,284.942 864.049,280.6 c 0.5,0.62 1.24,1.489 2.109,2.481 a 35.727,35.727 0 0 1 3.349,5.086 12.4,12.4 0 0 1 1.984,5.833 z"
       transform="translate(-95.717,58.522)"
       inkscape:connector-curvature="0"
       style="fill:#ffffff" />
    <path
       id="path-9"
       data-name="path"
       class="cls-1"
       d="m 163.188,315.827 h 2.44 v 6.507 h -6.507 v 7.321 a 0.834,0.834 0 0 1 -0.813,0.813 h -1.627 a 0.834,0.834 0 0 1 -0.813,-0.813 v -8.948 H 164 v -3.254 h -0.813 v 0.813 a 0.834,0.834 0 0 1 -0.813,0.813 h -9.761 a 0.834,0.834 0 0 1 -0.813,-0.813 v -3.254 a 0.834,0.834 0 0 1 0.813,-0.813 h 9.761 a 0.834,0.834 0 0 1 0.813,0.813 z"
       transform="translate(537.171,42.602)"
       inkscape:connector-curvature="0"
       style="fill:#ffffff" />
    <path
       id="path-10"
       data-name="path"
       class="cls-1"
       d="m 191.04,331.6 2.481,-4.962 H 189.8 V 319.2 h 7.443 v 7.443 l -2.481,4.962 z m 9.924,0 2.481,-4.962 h -3.721 V 319.2 h 7.443 v 7.443 l -2.481,4.962 z"
       transform="translate(548.31,150.805)"
       inkscape:connector-curvature="0"
       style="fill:#ffffff" />
    <path
       id="path-11"
       data-name="path"
       class="cls-1"
       d="m 770.075,317.088 v 25.988 L 764.3,337.3 h -20.213 a 2.96,2.96 0 0 1 -2.888,-2.887 v -17.325 a 2.961,2.961 0 0 1 2.888,-2.888 h 23.1 a 2.961,2.961 0 0 1 2.888,2.888 z"
       transform="translate(111.85,108.537)"
       inkscape:connector-curvature="0"
       style="fill:#ffffff" />
    <path
       id="path-12"
       data-name="path"
       class="cls-1"
       d="m 779.2,330.106 11.567,-11.567 3.96,3.96 -11.567,11.567 h -3.96 z m 18.445,-10.733 -1.876,1.876 -3.96,-3.96 1.876,-1.876 a 1.007,1.007 0 0 1 1.459,0 l 2.4,2.4 a 0.946,0.946 0 0 1 0.313,0.73 c -0.004,0.309 -0.004,0.725 -0.212,0.83 z"
       transform="matrix(0.695,-0.719,0.719,0.695,-89.662,730.757)"
       inkscape:connector-curvature="0"
       style="fill:#ffffff" />
    <path
       id="path-13"
       data-name="path"
       class="cls-1"
       d="m 319.641,358.443 a 5.879,5.879 0 0 1 4.094,1.985 6.126,6.126 0 0 1 1.737,4.218 5.631,5.631 0 0 1 -1.861,4.342 6.56,6.56 0 0 1 -4.342,1.861 h -16.126 a 6.757,6.757 0 0 1 -5.21,-2.233 7.659,7.659 0 0 1 -2.233,-5.21 7.259,7.259 0 0 1 1.861,-4.962 6.936,6.936 0 0 1 4.714,-2.357 11.054,11.054 0 0 1 3.473,-3.721 8.429,8.429 0 0 1 4.838,-1.366 9.057,9.057 0 0 1 9.056,7.443 z"
       transform="translate(249.426,13.452)"
       inkscape:connector-curvature="0"
       style="fill:#ffffff" />
    <path
       id="path-14"
       data-name="path"
       class="cls-1"
       d="m 601.362,366.126 v -7.443 H 596.4 l 8.683,-8.683 8.683,8.683 H 608.8 v 7.443 z m -4.962,2.481 h 17.367 v 2.481 H 596.4 Z"
       transform="translate(214.741,52.212)"
       inkscape:connector-curvature="0"
       style="fill:#ffffff" />
    <path
       id="path-15"
       data-name="path"
       class="cls-1"
       d="m 640.224,351 2.481,2.481 h 9.924 a 2.544,2.544 0 0 1 2.481,2.481 v 12.4 a 2.544,2.544 0 0 1 -2.481,2.481 H 632.781 A 2.544,2.544 0 0 1 630.3,368.362 V 353.481 A 2.544,2.544 0 0 1 632.781,351 Z"
       transform="translate(127.894,45.452)"
       inkscape:connector-curvature="0"
       style="fill:#ffffff" />
    <path
       id="path-16"
       data-name="path"
       class="cls-1"
       d="m 46.625,393.5 4.159,4.159 -4.159,4.159 H 39 V 393.5 Z m 10.4,-2.08 -4.159,4.159 -4.166,-4.154 V 383.8 h 8.318 z m -8.325,12.48 4.159,-4.159 4.159,4.159 v 7.625 H 48.7 Z m 10.4,-10.4 h 7.625 v 8.318 H 59.1 l -4.159,-4.159 z"
       transform="translate(646.144,-59.983)"
       inkscape:connector-curvature="0"
       style="fill:#ffffff" />
    <path
       id="path-17"
       data-name="path"
       class="cls-1"
       d="m 176.933,386.8 a 3.08,3.08 0 0 1 3,3 v 15.018 a 3.08,3.08 0 0 1 -3,3 H 152.9 a 3.08,3.08 0 0 1 -3,-3 V 389.8 a 3.08,3.08 0 0 1 3,-3 z m -19.674,7.509 v -3 h -3 v 3 z m 0,4.505 v -3 h -3 v 3 z m 1.652,-7.509 v 3 h 3 v -3 z m 0,4.505 v 3 h 3 v -3 z m 11.864,9.011 v -3 h -12.014 v 3 z m -7.359,-13.516 v 3 h 3 v -3 z m 0,4.505 v 3 h 3 v -3 z m 7.359,-1.5 v -3 h -3 v 3 z m 0,4.505 v -3 h -3 v 3 z m 4.505,-4.505 v -3 h -3 v 3 z m 0,4.505 v -3 h -3 v 3 z"
       transform="translate(736.463,-14.6)"
       inkscape:connector-curvature="0"
       style="fill:#ffffff" />
    <path
       id="path-18"
       data-name="path"
       class="cls-1"
       d="m 192.537,389.6 5.706,5.706 5.706,-5.706 1.737,1.737 -7.443,7.443 -7.443,-7.443 z"
       transform="translate(497.245,79.735)"
       inkscape:connector-curvature="0"
       style="fill:#ffffff" />
    <path
       id="path-19"
       data-name="path"
       class="cls-1"
       d="m 240.258,402.28 -1.978,1.979 -8.479,-8.479 8.479,-8.479 1.978,1.978 -6.5,6.5 z"
       transform="translate(350.346,-51.818)"
       inkscape:connector-curvature="0"
       style="fill:#ffffff" />
    <path
       id="path-20"
       data-name="path"
       class="cls-1"
       d="m 727.529,394.724 h -2.481 v 2.476 h 2.481 v 2.481 h -2.481 v 2.481 a 2.544,2.544 0 0 1 -2.481,2.481 h -2.481 v 2.481 H 717.6 v -2.481 h -2.481 v 2.481 h -2.481 v -2.481 h -2.481 a 2.544,2.544 0 0 1 -2.481,-2.481 v -2.481 H 705.2 V 397.2 h 2.481 v -2.481 H 705.2 v -2.481 h 2.481 v -2.481 a 2.544,2.544 0 0 1 2.481,-2.481 h 2.481 V 384.8 h 2.481 v 2.481 H 717.6 V 384.8 h 2.481 v 2.481 h 2.481 a 2.544,2.544 0 0 1 2.481,2.481 v 2.481 h 2.481 z m -4.838,7.443 v -12.4 h -12.4 v 12.4 z m -2.6,-9.924 v 7.443 h -7.443 v -7.443 z M 717.6,397.2 v -2.481 h -2.481 v 2.481 z"
       transform="translate(37.952,59.581)"
       inkscape:connector-curvature="0"
       style="fill:#ffffff" />
    <path
       id="path-21"
       data-name="path"
       class="cls-1"
       d="m 751.883,382.9 v 9.8 H 743.2 a 9.851,9.851 0 0 1 2.481,-6.575 9.239,9.239 0 0 1 6.202,-3.225 z m -8.683,17.243 v -4.962 h 19.848 v 4.962 a 9.2,9.2 0 0 1 -2.977,6.947 10.106,10.106 0 0 1 -6.947,2.977 9.388,9.388 0 0 1 -6.947,-2.977 9.879,9.879 0 0 1 -2.977,-6.947 z M 754.364,382.9 a 9.515,9.515 0 0 1 6.2,3.225 9.273,9.273 0 0 1 2.481,6.575 h -8.683 z"
       transform="translate(86.09,40.124)"
       inkscape:connector-curvature="0"
       style="fill:#ffffff" />
    <path
       id="path-22"
       data-name="path"
       class="cls-1"
       d="m 951.364,400.027 a 3.123,3.123 0 0 1 3.046,3.046 v 6.091 a 3.122,3.122 0 0 1 -3.046,3.045 H 930.045 A 3.122,3.122 0 0 1 927,409.164 v -6.091 a 3.123,3.123 0 0 1 3.045,-3.046 h 15.228 v -6.091 h 3.046 v 6.091 z m -16.75,7.614 V 404.6 h -3.046 v 3.046 z m 5.33,0 V 404.6 H 936.9 v 3.046 z m 13.248,-18.425 a 9.195,9.195 0 0 0 -12.791,0 L 939.182,388 a 10.663,10.663 0 0 1 15.227,0 z m -1.37,1.218 -1.218,1.218 a 5.52,5.52 0 0 0 -7.614,0 l -1.218,-1.218 a 6.988,6.988 0 0 1 10.05,0 z m -6.548,17.207 V 404.6 h -3.046 v 3.046 z"
       transform="translate(-38.8,-44.419)"
       inkscape:connector-curvature="0"
       style="fill:#ffffff" />
    <path
       id="path-23"
       data-name="path"
       class="cls-1"
       d="m 318.168,416.6 a 2.974,2.974 0 0 1 3.1,3.1 v 23.569 a 2.974,2.974 0 0 1 -3.1,3.1 H 300.8 a 2.974,2.974 0 0 1 -3.1,-3.1 V 419.7 a 2.974,2.974 0 0 1 3.1,-3.1 z m 0.62,23.569 v -19.848 h -18.607 v 19.848 z m -10.668,4.466 a 2.124,2.124 0 1 0 -0.5,-1.365 1.694,1.694 0 0 0 0.5,1.365 z"
       transform="translate(379.638,19.228)"
       inkscape:connector-curvature="0"
       style="fill:#ffffff" />
    <path
       id="path-24"
       data-name="path"
       class="cls-1"
       d="m 647.314,423.582 h 8.349 v 14.908 h -10.436 l -0.6,-2.982 h -8.349 v 10.436 H 633.3 V 420.6 h 13.418 z"
       transform="translate(259.947,-102.9)"
       inkscape:connector-curvature="0"
       style="fill:#ffffff" />
    <path
       id="path-25"
       data-name="path"
       class="cls-1"
       d="m 903.039,1017.155 a 3.914,3.914 0 0 1 2.725,1.321 4.079,4.079 0 0 1 1.156,2.808 3.748,3.748 0 0 1 -1.239,2.89 4.368,4.368 0 0 1 -2.891,1.239 h -10.735 a 4.5,4.5 0 0 1 -3.469,-1.487 5.1,5.1 0 0 1 -1.487,-3.469 4.833,4.833 0 0 1 1.239,-3.3 4.618,4.618 0 0 1 3.138,-1.569 7.359,7.359 0 0 1 2.312,-2.478 5.612,5.612 0 0 1 3.221,-0.908 6.28,6.28 0 0 1 3.964,1.4 5.632,5.632 0 0 1 2.066,3.553 z m -4.377,2.478 h 2.478 l -4.129,-4.129 -4.129,4.129 h 2.477 v 3.3 h 3.3 z"
       transform="translate(-53.138,-639.338)"
       inkscape:connector-curvature="0"
       style="fill:#ffffff" />
    <path
       id="path-26"
       data-name="path"
       class="cls-1"
       d="m 671.181,1048.981 a 12.722,12.722 0 0 1 9.5,-3.881 13.246,13.246 0 0 1 9.5,3.881 12.521,12.521 0 0 1 3.881,9.5 13.246,13.246 0 0 1 -3.881,9.5 12.521,12.521 0 0 1 -9.5,3.881 13.245,13.245 0 0 1 -9.5,-3.881 12.521,12.521 0 0 1 -3.881,-9.5 13.025,13.025 0 0 1 3.881,-9.5 z m 12.446,12.312 5.086,-10.974 -10.974,5.086 -5.085,10.974 z m -4.015,-4.015 a 1.629,1.629 0 1 1 -0.4,1.071 1.52,1.52 0 0 1 0.4,-1.071 z"
       transform="translate(-7.717,-669.9)"
       inkscape:connector-curvature="0"
       style="fill:#ffffff" />
    <path
       id="path-27"
       data-name="path"
       class="cls-1"
       d="m 790.636,1068.759 -1.865,-1.617 q -3.171,-2.8 -4.477,-4.1 a 44.672,44.672 0 0 1 -3.109,-3.358 12.653,12.653 0 0 1 -2.363,-3.607 9.929,9.929 0 0 1 -0.622,-3.234 6.794,6.794 0 0 1 6.84,-6.84 7.069,7.069 0 0 1 5.6,2.612 7.07,7.07 0 0 1 5.6,-2.612 6.2,6.2 0 0 1 4.85,1.99 7.091,7.091 0 0 1 1.99,4.85 9.121,9.121 0 0 1 -1.492,4.726 23.588,23.588 0 0 1 -3.234,4.228 c -1.119,1.119 -3.109,2.985 -5.845,5.472 z"
       transform="translate(-243.697,-657.788)"
       inkscape:connector-curvature="0"
       style="fill:#ffffff" />
    <path
       id="path-28"
       data-name="path"
       class="cls-1"
       d="m 449.5,1079.8 h 13.566 v 6.783 l -4.522,4.522 4.522,4.522 v 6.783 H 449.5 v -6.783 l 4.522,-4.522 -4.522,-4.522 z"
       transform="translate(176.217,-654.305)"
       inkscape:connector-curvature="0"
       style="fill:#ffffff" />
    <path
       id="path-29"
       data-name="path"
       class="cls-1"
       d="m 522.549,1082.949 a 9.994,9.994 0 0 1 7.464,-3.049 10.406,10.406 0 0 1 7.464,3.049 9.837,9.837 0 0 1 3.049,7.464 10.406,10.406 0 0 1 -3.049,7.464 9.836,9.836 0 0 1 -7.464,3.049 10.405,10.405 0 0 1 -7.464,-3.049 10.662,10.662 0 0 1 0,-14.929 z m 8.411,4.205 v -2.1 h -2.1 v 2.1 z m 0,8.411 v -6.308 h -2.1 v 6.308 z"
       transform="translate(42.1,-649.126)"
       inkscape:connector-curvature="0"
       style="fill:#ffffff" />
    <path
       id="path-30"
       data-name="path"
       class="cls-1"
       d="m 643.016,1083.5 3.531,4.895 -3.531,4.895 a 1.46,1.46 0 0 1 -1.284,0.642 H 632.9 a 1.645,1.645 0 0 1 -1.6,-1.6 v -8.024 a 1.645,1.645 0 0 1 1.6,-1.6 h 8.827 a 1.722,1.722 0 0 1 1.289,0.792 z"
       transform="translate(-81.488,-662.669)"
       inkscape:connector-curvature="0"
       style="fill:#ffffff" />
    <path
       id="path-31"
       data-name="path"
       class="cls-1"
       d="m 948.88,1091.122 a 2.28,2.28 0 0 1 0,3.3 l -8.255,8.256 a 2.28,2.28 0 0 1 -3.3,0 l -10.614,-10.614 a 2.142,2.142 0 0 1 -0.708,-1.651 v -8.255 a 2.418,2.418 0 0 1 2.359,-2.359 h 8.255 a 2.141,2.141 0 0 1 1.651,0.708 z m -20.049,-5.9 a 2.02,2.02 0 1 0 -0.472,-1.3 1.611,1.611 0 0 0 0.472,1.303 z m 15.214,10.26 a 2.953,2.953 0 0 0 0.943,-2.123 3,3 0 0 0 -5.071,-2.123 l -0.943,0.944 -0.826,-0.944 a 3.0023754,3.0023754 0 0 0 -4.246,4.246 l 5.071,5.071 z"
       transform="translate(-361.688,-731.552)"
       inkscape:connector-curvature="0"
       style="fill:#ffffff" />
    <path
       id="path-32"
       data-name="path"
       class="cls-1"
       d="m 985.385,1085.262 a 2.55,2.55 0 0 1 2.487,2.487 v 14.924 a 2.55,2.55 0 0 1 -2.487,2.487 h -19.9 a 2.55,2.55 0 0 1 -2.487,-2.487 v -14.924 a 2.55,2.55 0 0 1 2.487,-2.487 h 2.487 v -7.462 h 9.949 v 4.975 h -7.462 v 9.949 h 2.487 v -7.462 z"
       transform="translate(-370.672,-739.04)"
       inkscape:connector-curvature="0"
       style="fill:#ffffff" />
    <path
       id="path-33"
       data-name="path"
       class="cls-1"
       d="m 651.442,1121.818 a 3.825,3.825 0 0 1 3.731,3.731 v 7.462 H 650.2 v 4.975 h -14.925 v -4.975 H 630.3 v -7.462 a 3.825,3.825 0 0 1 3.731,-3.731 z M 650.2,1115.6 v 4.975 h -14.925 v -4.975 z m -2.487,19.9 v -6.218 h -9.949 v 6.218 z m 2.86,-9.078 a 1.2,1.2 0 1 0 -0.373,-0.87 1.129,1.129 0 0 0 0.371,0.868 z"
       transform="translate(-37.731,-716.83)"
       inkscape:connector-curvature="0"
       style="fill:#ffffff" />
    <path
       id="path-34"
       data-name="path"
       class="cls-1"
       d="m 724.664,1128.176 a 1.392,1.392 0 0 1 -1.358,1.358 H 709.73 l -5.431,5.431 v -19.007 a 1.392,1.392 0 0 1 1.358,-1.358 h 17.649 a 1.392,1.392 0 0 1 1.358,1.358 z m 5.295,-8.146 a 1.392,1.392 0 0 1 1.358,1.358 v 20.364 l -5.43,-5.431 h -14.935 a 1.392,1.392 0 0 1 -1.358,-1.358 v -2.715 h 17.649 v -12.218 z"
       transform="translate(-111.558,-656.576)"
       inkscape:connector-curvature="0"
       style="fill:#ffffff" />
    <path
       id="path-35"
       data-name="path"
       class="cls-1"
       d="m 814.1,1138.229 13.68,-23.629 13.68,23.629 z m 14.924,-8.706 v -4.974 h -2.487 v 4.974 z m 0,4.975 v -2.487 h -2.487 v 2.487 z"
       transform="translate(-298.951,-716.074)"
       inkscape:connector-curvature="0"
       style="fill:#ffffff" />
    <path
       id="path-36"
       data-name="path"
       class="cls-1"
       d="m 605.3,1147.4 a 13.227,13.227 0 0 1 9.7,3.98 l -1.741,1.741 a 10.694,10.694 0 0 0 -7.959,-3.233 11.19,11.19 0 0 0 -7.959,3.233 l -1.741,-1.741 a 13.228,13.228 0 0 1 9.7,-3.98 z m -6.218,7.586 a 8.709,8.709 0 0 1 12.436,0 l -1.741,1.741 a 6.305,6.305 0 0 0 -8.954,0 z m 9.949,3.607 a 1.275,1.275 0 0 1 1.244,1.244 v 14.924 a 1.275,1.275 0 0 1 -1.244,1.244 h -7.462 a 1.275,1.275 0 0 1 -1.244,-1.244 v -14.924 a 1.275,1.275 0 0 1 1.244,-1.244 z m -5.472,6.716 a 2.4,2.4 0 1 0 -0.746,-1.741 2.039,2.039 0 0 0 0.746,1.74 z"
       transform="translate(230.814,-759.082)"
       inkscape:connector-curvature="0"
       style="fill:#ffffff" />
    <path
       id="path-37"
       data-name="path"
       class="cls-1"
       d="m 760.323,1158.105 h 5.969 a 1.275,1.275 0 0 1 1.244,1.244 c -0.373,1.492 -0.995,3.731 -1.741,6.591 -0.746,2.86 -1.244,4.6 -1.492,5.348 a 2.277,2.277 0 0 1 -2.363,1.865 h -16.168 a 2.277,2.277 0 0 1 -2.363,-1.865 l -3.109,-11.566 v -0.373 a 1.275,1.275 0 0 1 1.244,-1.244 h 5.969 l 5.472,-8.208 a 1.131,1.131 0 0 1 0.995,-0.5 c 0.373,0 0.871,0.124 0.995,0.5 z m -10.2,0 h 7.462 l -3.731,-5.472 z m 1.99,9.2 a 2.4,2.4 0 1 0 -0.746,-1.741 2.455,2.455 0 0 0 0.748,1.744 z"
       transform="translate(-211.931,-722.595)"
       inkscape:connector-curvature="0"
       style="fill:#ffffff" />
    <path
       id="path-38"
       data-name="path"
       class="cls-1"
       d="m 777.1,1149.4 h 3.669 l 1,2.224 h 16.456 a 1.169,1.169 0 0 1 1,1.668 l -4,7.227 a 2.064,2.064 0 0 1 -1.89,1.112 h -8.339 l -1,1.779 v 0.111 c 0,0.222 0.111,0.222 0.222,0.222 h 12.9 v 2.224 h -13.347 a 2.28,2.28 0 0 1 -2.224,-2.224 3.246,3.246 0 0 1 0.222,-1 l 1.557,-2.78 -4,-8.45 H 777.1 Z m 5.226,18.457 a 2.15,2.15 0 1 1 -0.667,1.557 2.2,2.2 0 0 1 0.667,-1.557 z m 11.119,0 a 2.15,2.15 0 1 1 -0.667,1.557 2.2,2.2 0 0 1 0.666,-1.557 z"
       transform="translate(-110.33,-800.96)"
       inkscape:connector-curvature="0"
       style="fill:#ffffff" />
    <path
       id="path-39"
       data-name="path"
       class="cls-1"
       d="m 893.209,1153.609 a 13.469,13.469 0 0 1 10.059,-4.109 14.023,14.023 0 0 1 10.059,4.109 13.256,13.256 0 0 1 4.109,10.059 14.023,14.023 0 0 1 -4.109,10.059 13.255,13.255 0 0 1 -10.059,4.109 14.023,14.023 0 0 1 -10.059,-4.109 14.368,14.368 0 0 1 0,-20.118 z m 16.01,18.418 -1.558,-6.8 5.384,-4.534 -6.942,-0.567 -2.692,-6.376 -2.692,6.376 -6.942,0.567 5.384,4.534 -1.558,6.8 5.951,-3.542 z"
       transform="translate(-297.678,-724.034)"
       inkscape:connector-curvature="0"
       style="fill:#ffffff" />
    <path
       id="path-40"
       data-name="path"
       class="cls-1"
       d="m 953.416,1166.075 h -1.468 v 8.805 h -2.935 v -8.805 h -5.87 v 8.805 h -14.675 v -8.805 H 927 v -2.935 l 1.468,-7.338 h 23.481 l 1.468,7.338 z m -1.468,-14.676 v 2.935 h -23.48 v -2.934 z m -11.74,20.546 v -5.87 H 931.4 v 5.87 z"
       transform="translate(-335.444,-780.69)"
       inkscape:connector-curvature="0"
       style="fill:#ffffff" />
    <path
       id="path-41"
       data-name="path"
       class="cls-1"
       d="m 462.5,1185.2 a 2.051,2.051 0 0 1 2,2 v 14 a 2.051,2.051 0 0 1 -2,2 h -14 a 1.816,1.816 0 0 1 -1.4,-0.6 1.974,1.974 0 0 1 -0.6,-1.4 v -14 a 2.051,2.051 0 0 1 2,-2 h 1 v -2 h 2 v 2 h 8 v -2 h 2 v 2 z m 0,16 v -11 h -14 v 11 z m -12,-9 h 5 v 5 h -5 z"
       transform="translate(59,-754)"
       inkscape:connector-curvature="0"
       style="fill:#ffffff" />
    <path
       id="path-42"
       data-name="path"
       class="cls-1"
       d="m 654.929,1195.174 -4.975,4.975 v -3.731 H 631.3 v -2.487 h 18.655 v -3.731 z"
       transform="rotate(-45,-429.6522,836.36277)"
       inkscape:connector-curvature="0"
       style="fill:#ffffff" />
    <path
       id="path-43"
       data-name="path"
       class="cls-1"
       d="m 753.4,1185.2 a 1.571,1.571 0 0 1 1.533,1.533 v 12.261 l -5.364,-2.3 -5.364,2.3 v -12.261 a 1.571,1.571 0 0 1 1.533,-1.533 z"
       transform="translate(3.702,-830.873)"
       inkscape:connector-curvature="0"
       style="fill:#ffffff" />
    <path
       id="path-44"
       data-name="path"
       class="cls-1"
       d="m 785.433,1183.2 6.233,2.77 v 4.155 a 8.642,8.642 0 0 1 -1.8,5.263 7.745,7.745 0 0 1 -4.432,3.047 7.531,7.531 0 0 1 -4.432,-3.047 8.642,8.642 0 0 1 -1.8,-5.263 v -4.155 z m -1.454,11.08 5.54,-5.54 -0.97,-0.969 -4.57,4.571 -1.8,-1.8 -0.97,0.969 z"
       transform="translate(-200.055,-763.279)"
       inkscape:connector-curvature="0"
       style="fill:#ffffff" />
    <path
       id="path-45"
       data-name="path"
       class="cls-1"
       d="m 889.1,1206.259 v -16.973 h 6.172 v 16.973 z m 7.561,3.086 V 1186.2 h 15.43 v 23.145 z m 16.973,-20.059 h 6.172 v 16.973 h -6.172 z"
       transform="translate(-4.299,-789.748)"
       inkscape:connector-curvature="0"
       style="fill:#ffffff" />
    <path
       id="path-46"
       data-name="path"
       class="cls-1"
       d="m 485.5,1236.924 h 17.411 v 2.487 H 485.5 Z m 8.705,-14.924 8.332,12.436 H 486 Z"
       transform="translate(363.907,-869.3)"
       inkscape:connector-curvature="0"
       style="fill:#ffffff" />
    <path
       id="path-47"
       data-name="path"
       class="cls-1"
       d="m 23.84,428.671 a 2.293,2.293 0 0 1 1.116,0.868 2.067,2.067 0 0 1 0.5,1.365 v 6.823 a 2.544,2.544 0 0 1 -2.481,2.481 H 5.481 A 2.544,2.544 0 0 1 3,437.726 v -4.962 a 2.544,2.544 0 0 1 2.481,-2.481 h 15.63 L 3.62,423.957 4.488,421.6 Z M 7.962,436.486 V 434 H 5.481 v 2.481 z m 14.886,0 V 434 h -12.4 v 2.481 z"
       transform="translate(590.95,-105.746)"
       inkscape:connector-curvature="0"
       style="fill:#ffffff" />
    <path
       id="path-48"
       data-name="path"
       class="cls-1"
       d="m 707.041,631.776 a 10.486,10.486 0 0 1 11.971,0 10.669,10.669 0 0 1 3.841,4.824 10.223,10.223 0 0 1 -3.841,4.824 10.793,10.793 0 0 1 -5.985,1.876 10.132,10.132 0 0 1 -5.985,-1.876 10.669,10.669 0 0 1 -3.842,-4.824 10.669,10.669 0 0 1 3.841,-4.824 z m 2.859,8.04 a 4.334,4.334 0 0 0 3.127,1.34 4.191,4.191 0 0 0 3.127,-1.34 4.725,4.725 0 0 0 1.34,-3.127 4.19,4.19 0 0 0 -1.34,-3.127 4.725,4.725 0 0 0 -3.127,-1.34 4.19,4.19 0 0 0 -3.127,1.34 4.724,4.724 0 0 0 -1.34,3.127 4.334,4.334 0 0 0 1.34,3.127 z m 1.251,-5.092 a 2.591,2.591 0 1 1 -0.8,1.876 2.571,2.571 0 0 1 0.8,-1.876 z"
       transform="translate(163,-280.4)"
       inkscape:connector-curvature="0"
       style="fill:#ffffff" />
    <path
       id="path-49"
       data-name="path"
       class="cls-1"
       d="m 926.177,640.737 a 1.47,1.47 0 0 1 -0.816,-0.816 1.447,1.447 0 0 1 0,-1.113 l 1.78,-4.377 v 6.677 z m 14.466,-2.745 a 1.446,1.446 0 0 1 0,1.113 1.469,1.469 0 0 1 -0.816,0.816 l -5.49,2.226 a 1.446,1.446 0 0 1 -0.594,0.074 1.3,1.3 0 0 1 -1.335,-0.89 l -3.709,-8.9 a 1.634,1.634 0 0 1 -0.074,-0.593 1.426,1.426 0 0 1 0.89,-1.335 l 5.49,-2.226 a 1.634,1.634 0 0 1 0.593,-0.074 1.426,1.426 0 0 1 1.335,0.89 z m -11.943,2.82 v -4.674 l 2.6,6.157 h -1.113 a 1.521,1.521 0 0 1 -1.484,-1.484 z m 0.964,-8.383 a 0.717,0.717 0 1 0 -0.222,-0.519 0.674,0.674 0 0 0 0.222,0.519 z"
       transform="translate(-70.261,-256)"
       inkscape:connector-curvature="0"
       style="fill:#ffffff" />
    <path
       id="path-50"
       data-name="path"
       class="cls-1"
       d="m 633.338,674.124 v 2.692 H 629.3 v -2.692 z m 3.768,-7.672 -1.884,1.884 -2.423,-2.423 1.884,-1.884 z m -4.306,18.574 2.423,-2.423 1.884,1.884 -2.423,2.423 z m 5.653,-15.209 a 7.747,7.747 0 0 1 5.653,-2.423 7.534,7.534 0 0 1 5.653,2.423 8.309,8.309 0 0 1 2.423,5.653 7.534,7.534 0 0 1 -2.423,5.653 8.31,8.31 0 0 1 -5.653,2.423 7.534,7.534 0 0 1 -5.653,-2.423 8.309,8.309 0 0 1 -2.423,-5.653 7.534,7.534 0 0 1 2.422,-5.652 z m 7,-9.018 v 4.038 h -2.692 V 660.8 Z m -2.692,29.475 v -4.038 h 2.692 v 4.038 z m 12.786,-24.226 -2.423,2.423 -1.884,-1.884 2.423,-2.423 z m -4.307,18.439 1.884,-1.884 2.423,2.423 -1.884,1.884 z m 3.634,-10.363 h 4.038 v 2.692 h -4.038 z"
       transform="translate(128,-295.575)"
       inkscape:connector-curvature="0"
       style="fill:#ffffff" />
    <path
       id="path-51"
       data-name="path"
       class="cls-1"
       d="m 669.865,667.331 v 17.958 h 17.958 v 2.565 h -17.958 a 2.63,2.63 0 0 1 -2.565,-2.565 v -17.958 z m 20.524,-5.131 a 2.63,2.63 0 0 1 2.565,2.565 v 15.393 a 2.63,2.63 0 0 1 -2.565,2.565 H 675 a 2.63,2.63 0 0 1 -2.565,-2.565 V 664.766 A 2.63,2.63 0 0 1 675,662.2 Z m 0,12.828 v -10.262 h -6.414 v 10.262 l 3.207,-1.924 z"
       transform="translate(42,-204.655)"
       inkscape:connector-curvature="0"
       style="fill:#ffffff" />
    <path
       id="path-52"
       data-name="path"
       class="cls-1"
       d="m 727.011,663.2 a 2.441,2.441 0 0 1 2.381,2.381 v 16.668 a 2.441,2.441 0 0 1 -2.381,2.381 h -21.43 a 2.441,2.441 0 0 1 -2.381,-2.381 v -16.668 a 2.441,2.441 0 0 1 2.381,-2.381 z m -18.93,16.668 h 16.668 l -5.357,-7.143 -4.167,5.357 -2.976,-3.572 z"
       transform="translate(49.808,-243.43)"
       inkscape:connector-curvature="0"
       style="fill:#ffffff" />
    <path
       id="path-53"
       data-name="path"
       class="cls-1"
       d="m 11.621,801.4 h 8.246 l 2.474,2.749 h 4.4 a 2.818,2.818 0 0 1 2.749,2.749 v 16.492 a 2.818,2.818 0 0 1 -2.749,2.749 H 4.749 A 2.714,2.714 0 0 1 2.825,825.314 2.714,2.714 0 0 1 2,823.39 V 806.9 a 2.714,2.714 0 0 1 0.825,-1.924 2.713,2.713 0 0 1 1.924,-0.825 h 4.4 z m -0.687,18.692 a 6.668,6.668 0 0 0 4.81,2.062 6.238,6.238 0 0 0 4.81,-2.062 7.269,7.269 0 0 0 2.062,-4.81 6.447,6.447 0 0 0 -2.062,-4.81 7.268,7.268 0 0 0 -4.81,-2.062 6.239,6.239 0 0 0 -4.81,2.062 6.677,6.677 0 0 0 -2.062,4.673 6.748,6.748 0 0 0 2.061,4.947 z M 12.72,818.3 a 4.261,4.261 0 0 1 3.024,-7.284 4.041,4.041 0 0 1 3.024,1.237 4.261,4.261 0 0 1 -3.024,7.284 4.042,4.042 0 0 1 -3.024,-1.237 z"
       transform="translate(666,-393.739)"
       inkscape:connector-curvature="0"
       style="fill:#ffffff" />
    <path
       id="path-54"
       data-name="path"
       class="cls-1"
       d="m 563.068,815.651 -5.768,-1.151 0.33,-1.648 4.038,0.824 1.318,-6.676 -1.483,0.577 v 2.8 h -1.648 V 806.5 l 4.285,-1.813 h 0.659 a 1.619,1.619 0 0 1 1.4,0.824 l 0.824,1.318 a 3.742,3.742 0 0 0 3.544,1.978 v 1.648 a 5.74,5.74 0 0 1 -4.532,-2.06 l -0.494,2.472 1.73,1.648 v 6.185 h -1.648 v -4.944 l -1.731,-1.648 z m 4.12,-11.949 a 1.593,1.593 0 1 1 0.494,-1.154 1.627,1.627 0 0 1 -0.493,1.152 z"
       transform="translate(287.116,-413)"
       inkscape:connector-curvature="0"
       style="fill:#ffffff" />
  </g>
</svg>
