<svg width="120" height="40" viewBox="0 0 120 40" fill="none" xmlns="http://www.w3.org/2000/svg">
<path d="M9.94651 39.9999L17.1658 19.6774C11.0695 20.4838 5.45453 23.0645 0.802124 26.9354C1.92512 32.258 5.2941 36.9354 9.94651 39.9999Z" fill="#FFF"/>
<path d="M33.2085 39.9999C37.861 37.0967 41.2299 32.4193 42.5134 26.9354C37.8609 22.9032 32.246 20.3225 26.1497 19.6774L33.2085 39.9999Z" fill="#FFF"/>
<path d="M43.1551 22.7419V21.7742C43.1551 9.67742 33.5294 0 21.6578 0C9.78609 0 0 9.67742 0 21.7742V22.7419C6.25668 18.0645 13.7968 15.4839 21.6578 15.4839C29.3583 15.4839 36.8984 18.0645 43.1551 22.7419Z" fill="#FFF"/>
<path d="M70.107 32.2581C68.5027 34.3549 65.9358 35.4839 63.2086 35.3226C58.2353 35.3226 53.9037 32.4194 53.9037 24.3549V8.22583H60V23.3871C60 27.742 61.9251 29.5162 64.9733 29.5162C68.0214 29.5162 70.2674 27.9033 70.2674 23.3871V8.54841H76.3636V35H70.2674L70.107 32.2581Z" fill="#FFF"/>
<path d="M81.3369 8.54837H87.4332V11.2903C88.3957 9.19353 90.4813 7.74192 92.8877 7.90321C94.6524 7.90321 96.4171 8.54837 97.861 9.67741L97.0588 15.1613C95.7754 14.1935 94.1711 13.7097 92.5669 13.871C90.3209 13.871 87.5936 15.1613 87.5936 20.1613V35H81.4973V8.54837H81.3369Z" fill="#FFF"/>
<path d="M114.064 32.742C112.299 34.5162 109.733 35.6452 107.005 35.4839C101.551 35.4839 97.3796 32.4194 97.3796 26.6129C97.3796 20.4839 102.513 17.742 107.647 17.742C109.893 17.5807 111.979 18.0645 113.904 19.0323V17.742C113.904 14.3549 112.299 12.9033 108.77 12.9033C105.882 12.9033 103.155 13.7097 100.909 15.4839L98.9839 10.4839C102.032 8.54841 105.722 7.41938 109.251 7.58067C113.904 7.58067 119.679 8.7097 119.679 17.5807V34.6774H113.904L114.064 32.742ZM114.064 27.742V24.1936C112.46 23.5484 110.695 23.0645 108.93 23.2258C105.882 23.2258 103.476 24.1936 103.476 26.7742C103.476 28.871 105.08 30.1613 108.289 30.1613C110.374 30.1613 112.46 29.3549 114.064 27.742Z" fill="#FFF"/>
</svg>
