<?xml version="1.0" encoding="UTF-8" standalone="no"?>
<svg
   xmlns:dc="http://purl.org/dc/elements/1.1/"
   xmlns:cc="http://creativecommons.org/ns#"
   xmlns:rdf="http://www.w3.org/1999/02/22-rdf-syntax-ns#"
   xmlns:svg="http://www.w3.org/2000/svg"
   xmlns="http://www.w3.org/2000/svg"
   xmlns:sodipodi="http://sodipodi.sourceforge.net/DTD/sodipodi-0.dtd"
   xmlns:inkscape="http://www.inkscape.org/namespaces/inkscape"
   width="320"
   height="70"
   viewBox="0 0 128.256 28.033175"
   version="1.1"
   id="svg6"
   sodipodi:docname="digital_ocean.svg"
   inkscape:version="0.92.2 (5c3e80d, 2017-08-06)">
  <metadata
     id="metadata12">
    <rdf:RDF>
      <cc:Work
         rdf:about="">
        <dc:format>image/svg+xml</dc:format>
        <dc:type
           rdf:resource="http://purl.org/dc/dcmitype/StillImage" />
        <dc:title></dc:title>
      </cc:Work>
    </rdf:RDF>
  </metadata>
  <defs
     id="defs10" />
  <sodipodi:namedview
     pagecolor="#ffffff"
     bordercolor="#666666"
     borderopacity="1"
     objecttolerance="10"
     gridtolerance="10"
     guidetolerance="10"
     inkscape:pageopacity="0"
     inkscape:pageshadow="2"
     inkscape:window-width="1366"
     inkscape:window-height="718"
     id="namedview8"
     showgrid="false"
     fit-margin-top="0"
     fit-margin-left="0"
     fit-margin-right="0"
     fit-margin-bottom="0"
     inkscape:zoom="1.2942882"
     inkscape:cx="210.5708"
     inkscape:cy="-46.102335"
     inkscape:window-x="0"
     inkscape:window-y="0"
     inkscape:window-maximized="1"
     inkscape:current-layer="svg6" />
  <g
     id="g824"
     transform="matrix(0.12790484,0,0,0.12790484,0.04767516,3.2087016)">
    <path
       id="path2"
       d="m 84.16,169 v -32.88 c 34.86,0 61.75,-34.37 48.31,-70.74 A 49,49 0 0 0 103.09,36 51.94,51.94 0 0 0 32.87,84.31 H 0 C 0,29.51 53.29,-13.83 111.55,4.11 a 81.43,81.43 0 0 1 53.29,53.3 C 182.77,115.7 139.44,169 84.16,169 Z"
       inkscape:connector-curvature="0"
       style="fill:#0080ff" />
    <path
       id="path4"
       d="M 84.66,136.12 H 51.79 v -32.38 h 32.87 m -32.87,57.79 h -24.9 v -25.41 h 24.9 v 25.41 M 26.89,136.12 H 6 V 115.2 H 26.89 M 300.3,48.94 c -9.46,-6.48 -21.91,-10 -35.86,-10 h -30.37 v 97.14 h 30.38 q 20.92,0 35.86,-10.46 a 38.11,38.11 0 0 0 12.45,-15.44 c 3,-6.48 4.48,-14.45 4.48,-22.92 0,-8.47 -1.49,-16.44 -4.48,-22.42 -3,-7.43 -6.98,-12.41 -12.46,-15.9 z M 252,55.42 h 9.46 c 10.46,0 19.42,2 26.39,6.48 7.47,4.48 11,13 11,25.41 0,12.41 -4,21.42 -11,26.4 -6.47,4 -14.94,6.48 -25.9,6.48 H 252 V 55.42 m 86.65,-17.93 a 10.13,10.13 0 0 0 -7.47,3 9,9 0 0 0 -3.49,7.47 10.46,10.46 0 1 0 20.92,0 10.14,10.14 0 0 0 -3,-7.47 c -1.49,-2 -4,-3 -7,-3 m -9,29.89 h 17.43 v 68.25 H 329.68 V 67.38 m 79.68,6 c -5,-4.48 -11,-7.47 -17.43,-7.47 a 30.82,30.82 0 0 0 -23.41,10 34.69,34.69 0 0 0 -9.46,24.41 c 0,9.47 3,17.93 9,24.41 6,6.48 13.94,9.47 23.41,9.47 a 27.56,27.56 0 0 0 16.93,-5.48 v 1.49 c 0,5.48 -1.49,10 -4.48,13 -2.99,3 -7,4.48 -12.45,4.48 -8,0 -12.95,-3 -18.92,-11.46 l -12,11.46 0.5,0.5 c 2.49,3.49 6.47,7 11.45,10.46 4.98,3.46 11.45,5 18.92,5 10.46,0 18.43,-3 24.4,-9.47 5.97,-6.47 9.46,-14.45 9.46,-24.91 V 67.38 h -16.91 v 6 h 1 m -4.48,40.35 c -3,3.49 -7,5 -12,5 -5,0 -9,-1.49 -12,-5 -3,-3.51 -4.48,-8 -4.48,-13.45 0,-5.45 1.59,-9.99 4.59,-13.48 3,-3.49 7,-5 12,-5 5,0 9,1.49 12,5 3,3.51 4.48,8 4.48,13.45 0,5.45 -1.49,10 -4.48,13.45 m 36.35,-46.33 h 17.43 v 68.25 H 441.24 V 67.38 m 8.47,-29.89 a 10.21,10.21 0 0 0 -10.46,10.46 10.46,10.46 0 1 0 20.92,0 A 10.21,10.21 0 0 0 449.7,37.49 M 496,48.94 h -16.91 v 18.44 h -10 v 15.44 h 10 v 28.4 c 0,9 2,15.44 5.48,18.93 3.48,3.49 10,5.48 18.43,5.48 a 48.3,48.3 0 0 0 8.47,-0.5 h 1 v -15.45 l -6,0.5 c -4,0 -7,-0.5 -8,-2 -1.49,-1.49 -2,-4.48 -2,-9 V 83.32 h 15.94 V 67.87 H 496.52 L 496,48.94 m 96.61,-10 h 17.43 v 97.14 H 592.63 V 39 m 191.24,72.73 a 57.76,57.76 0 0 1 -8.47,8 17.19,17.19 0 0 1 -9,2.49 17,17 0 0 1 -12.4,-5.53 c -3.49,-4 -5,-8.47 -5,-14.45 0,-5.98 1.49,-10.46 5,-14.45 a 15.31,15.31 0 0 1 12.45,-5.48 c 5.48,0 11.45,3.49 16.43,9.47 l 11.45,-11 c -7.47,-9.47 -16.93,-13.95 -28.39,-13.95 -9.46,0 -17.43,3.49 -24.4,10.46 a 36.2,36.2 0 0 0 -10,25.41 c 0,10 3.49,18.93 10,25.41 a 32.39,32.39 0 0 0 24.4,10.46 c 12.45,0 22.41,-5.48 29.38,-15.44 L 783.87,111.67 M 854.09,77.3 a 26.22,26.22 0 0 0 -10,-8 32.5,32.5 0 0 0 -14.44,-3 c -9.46,0 -17.43,3.49 -23.41,10.46 a 40,40 0 0 0 -8.47,25.41 c 0,10.46 3,18.93 9.46,25.41 6.46,6.48 14.44,10 24.9,10 11.45,0 20.92,-4.48 28.39,-13.95 l 0.5,-0.5 -11.45,-11 c -1,1.49 -2.49,2.49 -4,4 a 15.18,15.18 0 0 1 -5,3.49 16.36,16.36 0 0 1 -8.47,2 19.17,19.17 0 0 1 -12,-4 c -3,-2.49 -4.48,-6 -5,-10.46 h 45.82 v -6.48 a 37.16,37.16 0 0 0 -2,-13 22.59,22.59 0 0 0 -5,-10.46 m -37.18,16.06 a 17.64,17.64 0 0 1 4.48,-8 12,12 0 0 1 9,-3.49 c 4,0 7.47,1 9.46,3.49 2,2 3,5 3.49,8 H 816.74 M 920.33,72.85 c -5,-4.48 -12.45,-6.48 -21.41,-6.48 A 43.59,43.59 0 0 0 883,69.87 c -4.48,2.49 -9,6 -11.45,11 l 11,10.46 c 4.48,-7.47 9.46,-10 16.43,-10 a 13.9,13.9 0 0 1 9,3 9,9 0 0 1 3.49,7.47 v 3.49 a 38.13,38.13 0 0 0 -12.45,-2 q -12.7,0 -20.92,6 c -5.48,4 -8,10 -8,16.94 0,6.48 2,11.46 6.47,15.44 4.47,3.98 10,5.48 16.43,5.48 6.43,0 12.45,-2.49 18.43,-7 v 5.48 h 16.93 V 91.79 c 0,-8 -2.49,-14.45 -8,-18.93 m -30.38,36.86 c 2,-1.49 4.48,-2 8,-2 a 42.37,42.37 0 0 1 12.95,2.49 v 6.48 a 22,22 0 0 1 -14.94,5.48 c -3,0 -5.48,-0.5 -7,-2 -1.52,-1.5 -2.49,-3 -2.49,-5 a 8.17,8.17 0 0 1 3.49,-5.48 M 994.53,73.85 c -5,-5.48 -11.45,-8 -19.92,-8 q -10.46,0 -16.43,6 v -4 h -16.94 v 68.25 h 17.43 V 98.26 c 0,-5 1,-9.47 3.49,-12.45 a 12.54,12.54 0 0 1 10,-4.48 10.94,10.94 0 0 1 9,4 18,18 0 0 1 3.49,11 v 39.85 H 1002 V 96.27 q -0.75,-14.2 -7.47,-22.42 m -423.31,-1 c -5,-4.48 -12.45,-6.48 -21.41,-6.48 a 43.59,43.59 0 0 0 -15.94,3.49 c -4.48,2.49 -9,6 -11.45,11 l 11,10.46 c 4.48,-7.47 9.46,-10 16.43,-10 a 13.9,13.9 0 0 1 9,3 9,9 0 0 1 3.49,7.47 v 3.49 a 38.13,38.13 0 0 0 -12.45,-2 q -12.7,0 -20.92,6 c -5.48,4 -8,10 -8,16.94 0,6.48 2,11.46 6.47,15.44 4.47,3.98 10,5.48 16.43,5.48 6.43,0 12.45,-2.49 18.43,-7 v 5.48 h 16.93 V 91.79 c 0,-8 -3,-14.45 -8,-18.93 m -30.88,36.86 c 2,-1.49 4.48,-2 8,-2 a 42.37,42.37 0 0 1 12.95,2.49 v 6.48 a 22,22 0 0 1 -14.94,5.48 c -3,0 -5.48,-0.5 -7,-2 -1.52,-1.5 -2.49,-3 -2.49,-5 a 14.84,14.84 0 0 1 3.49,-5.48 m 132,27.9 a 49.82,49.82 0 1 1 49.8,-49.82 50,50 0 0 1 -49.8,49.82 m 0,-82.69 a 32.38,32.38 0 1 0 32.33,32.4 32.31,32.31 0 0 0 -32.37,-32.38"
       inkscape:connector-curvature="0"
       style="fill:#0080ff" />
  </g>
</svg>
