<?xml version="1.0" encoding="UTF-8" standalone="no"?>
<!-- Created with Inkscape (http://www.inkscape.org/) -->

<svg
   xmlns:dc="http://purl.org/dc/elements/1.1/"
   xmlns:cc="http://creativecommons.org/ns#"
   xmlns:rdf="http://www.w3.org/1999/02/22-rdf-syntax-ns#"
   xmlns:svg="http://www.w3.org/2000/svg"
   xmlns="http://www.w3.org/2000/svg"
   xmlns:sodipodi="http://sodipodi.sourceforge.net/DTD/sodipodi-0.dtd"
   xmlns:inkscape="http://www.inkscape.org/namespaces/inkscape"
   version="1.1"
   id="svg835"
   width="300.96136"
   height="80.128967"
   viewBox="0 0 300.96137 80.128967"
   sodipodi:docname="yubico.svg"
   inkscape:version="0.92.2 (5c3e80d, 2017-08-06)">
  <metadata
     id="metadata841">
    <rdf:RDF>
      <cc:Work
         rdf:about="">
        <dc:format>image/svg+xml</dc:format>
        <dc:type
           rdf:resource="http://purl.org/dc/dcmitype/StillImage" />
        <dc:title />
      </cc:Work>
    </rdf:RDF>
  </metadata>
  <defs
     id="defs839" />
  <sodipodi:namedview
     pagecolor="#ffffff"
     bordercolor="#666666"
     borderopacity="1"
     objecttolerance="10"
     gridtolerance="10"
     guidetolerance="10"
     inkscape:pageopacity="0"
     inkscape:pageshadow="2"
     inkscape:window-width="1366"
     inkscape:window-height="718"
     id="namedview837"
     showgrid="false"
     fit-margin-top="0"
     fit-margin-left="0"
     fit-margin-right="0"
     fit-margin-bottom="0"
     inkscape:zoom="1.8744075"
     inkscape:cx="139.21483"
     inkscape:cy="9.956493"
     inkscape:window-x="0"
     inkscape:window-y="0"
     inkscape:window-maximized="1"
     inkscape:current-layer="g845" />
  <g
     id="g845"
     transform="translate(-16.479363,-15.5)">
    <path
       style="fill:#99c93c;stroke-width:0.06128445"
       d="m 95.961526,75.853591 c -0.0167,-0.02703 0.781318,-1.96451 1.773358,-4.305558 0.99204,-2.341044 1.803711,-4.291339 1.803711,-4.333985 0,-0.04264 -2.015314,-5.219671 -4.478477,-11.504503 -2.46316,-6.284832 -4.460939,-11.455343 -4.439506,-11.490022 0.06155,-0.09961 7.659312,-0.0863 7.736521,0.01355 0.03258,0.04213 1.281639,3.379074 2.775687,7.415421 1.49405,4.036347 2.74626,7.33865 2.78268,7.338449 0.0364,-1.84e-4 1.23974,-3.330246 2.67405,-7.400099 l 2.60782,-7.399734 3.76222,-0.0158 c 2.06922,-0.0087 3.78521,0.0071 3.81331,0.03531 0.0281,0.02811 -2.84051,7.164129 -6.37472,15.85783 l -6.42581,15.806733 -3.990249,0.01577 c -2.194634,0.0086 -4.003902,-0.0063 -4.020595,-0.03336 z M 229.01563,68.055238 c -0.8721,-0.07309 -2.01512,-0.261972 -2.76309,-0.456609 -4.05086,-1.054105 -6.92669,-3.937748 -7.94622,-7.967835 -0.28662,-1.132997 -0.37845,-1.906653 -0.41098,-3.462573 -0.057,-2.726825 0.3332,-4.719257 1.30225,-6.649363 0.53763,-1.070832 1.07892,-1.815557 1.95995,-2.696584 0.88141,-0.881419 1.62632,-1.422727 2.69658,-1.959566 2.18196,-1.094464 5.04519,-1.592144 7.96698,-1.384811 4.19886,0.297955 7.11234,1.710809 9.17141,4.447565 1.86512,2.478983 2.66162,6.194679 2.16012,10.077066 -0.35516,2.749571 -1.40134,4.991837 -3.14808,6.747277 -1.76322,1.772002 -4.12305,2.848356 -7.04969,3.215488 -0.93412,0.117178 -3.04039,0.16527 -3.93923,0.08995 z m 2.77483,-5.267099 c 0.72572,-0.149289 1.46411,-0.504907 1.92728,-0.928224 0.65189,-0.595782 1.27146,-1.69977 1.53696,-2.738624 0.39029,-1.527104 0.42961,-4.381577 0.0842,-6.109218 -0.47829,-2.391959 -1.53505,-3.725686 -3.3339,-4.207662 -0.39059,-0.104655 -0.67719,-0.132602 -1.40955,-0.13745 -1.59304,-0.01054 -2.37566,0.271635 -3.28119,1.183066 -0.43142,0.434208 -0.57372,0.629156 -0.8096,1.109017 -0.36722,0.747065 -0.57061,1.380383 -0.73804,2.298166 -0.11793,0.64642 -0.13423,0.950482 -0.13469,2.512663 -5e-4,1.446072 0.0205,1.902526 0.11263,2.449544 0.36285,2.15613 1.16199,3.49209 2.49145,4.16509 0.2191,0.110909 0.5048,0.236182 0.63492,0.278385 0.80383,0.260723 2.00955,0.312447 2.91957,0.125247 z m -104.94729,5.114234 c -3.36335,-0.543892 -5.46802,-2.687067 -6.06761,-6.178591 -0.0512,-0.298236 -0.12079,-0.904952 -0.15461,-1.348258 -0.0734,-0.96178 -0.0836,-16.028517 -0.011,-16.142936 0.0386,-0.06082 0.82415,-0.07376 3.72209,-0.06129 l 3.67315,0.01581 0.0387,6.741291 c 0.0252,4.376247 0.0635,6.977794 0.10928,7.41542 0.22399,2.140848 0.86069,3.10744 2.30335,3.496794 0.56837,0.153396 2.01243,0.186491 2.72433,0.06243 0.80251,-0.139845 1.74875,-0.467528 2.54613,-0.881724 l 0.67413,-0.350171 0.0312,-8.242024 c 0.0171,-4.533112 0.0378,-8.249131 0.046,-8.25782 0.008,-0.0087 1.67635,-0.0087 3.70716,0 l 3.69238,0.0158 v 11.582762 11.582763 l -3.67315,0.01581 c -2.89793,0.01246 -3.68348,-3.76e-4 -3.72209,-0.06129 -0.0269,-0.04239 -0.0494,-0.59418 -0.0499,-1.226176 -3.7e-4,-0.650706 -0.0252,-1.149083 -0.0568,-1.149083 -0.0307,0 -0.36234,0.219365 -0.73689,0.487478 -1.87402,1.341491 -3.3551,2.076521 -4.83318,2.398607 -0.78819,0.171752 -3.11592,0.221324 -3.9627,0.08439 z m 76.879,0.02985 c -2.23952,-0.211153 -4.16331,-0.703427 -5.73008,-1.466254 -3.32353,-1.618141 -5.33222,-4.383385 -5.94769,-8.187782 -0.1325,-0.819048 -0.18573,-3.099536 -0.0943,-4.042553 0.51006,-5.264129 3.67952,-8.884515 8.89803,-10.163998 1.70576,-0.418217 3.08114,-0.55601 5.09825,-0.510767 1.648,0.03696 2.56188,0.149352 3.843,0.472611 1.3124,0.331147 3.17397,1.002822 3.65757,1.319678 l 0.14206,0.0931 v 3.081195 c 0,2.314773 -0.0183,3.099489 -0.0735,3.154737 -0.0438,0.0437 -0.25414,0.07354 -0.51853,0.07354 -0.48964,0 -0.41919,0.03996 -1.46095,-0.828691 -1.02436,-0.854128 -2.76235,-1.690324 -4.01413,-1.931313 -1.13324,-0.218163 -2.62628,-0.189157 -3.64444,0.07081 -1.54059,0.393349 -2.76303,1.404772 -3.50948,2.903698 -0.91994,1.84731 -1.06009,4.850648 -0.32665,7.000051 0.48995,1.435854 1.59418,2.624549 2.97019,3.197381 0.93532,0.389376 1.39058,0.462632 2.88634,0.464438 1.09004,0.0013 1.44802,-0.02017 1.86917,-0.11214 1.66997,-0.364712 2.81487,-0.952809 4.1858,-2.150101 l 0.60055,-0.524583 h 0.44425 c 0.26382,0 0.47412,0.02987 0.51779,0.07354 0.0553,0.05524 0.0735,0.839963 0.0735,3.154736 v 3.081196 l -0.13788,0.09031 c -0.23467,0.153704 -1.81718,0.767962 -2.55863,0.993141 -1.80718,0.548858 -2.84366,0.700879 -4.96403,0.72808 -0.89322,0.01145 -1.88603,-0.0038 -2.20625,-0.03406 z m -41.64278,-0.161145 c -1.56673,-0.194414 -3.08314,-0.665925 -4.2383,-1.317861 -0.19207,-0.108402 -0.35803,-0.166249 -0.38803,-0.135271 -0.0288,0.02978 -0.0983,0.232738 -0.15439,0.451042 -0.056,0.218303 -0.12825,0.446044 -0.16038,0.506091 -0.0551,0.103063 -0.25654,0.108291 -3.59519,0.09336 l -3.53677,-0.01581 V 51.296107 35.23958 h 3.70773 3.70771 l 0.0157,5.629282 c 0.0125,4.460642 0.0314,5.623144 0.0919,5.599712 0.042,-0.01627 0.37964,-0.246835 0.7504,-0.51238 1.67887,-1.202395 3.16498,-1.919217 4.64609,-2.241034 0.5475,-0.11896 0.80929,-0.135891 2.12585,-0.137478 1.4161,-0.0016 1.53981,0.0074 2.1756,0.160278 0.89321,0.214765 1.61989,0.484638 2.20913,0.820423 2.42216,1.380332 4.0098,4.04528 4.56017,7.654513 0.25358,1.663012 0.30291,3.840089 0.12054,5.320851 -0.31279,2.539608 -1.22511,4.788925 -2.65003,6.533563 -1.67649,2.05268 -3.76445,3.27736 -6.23156,3.655095 -0.53351,0.08169 -2.62962,0.114019 -3.15614,0.04869 z m 0.24514,-5.3781 c 1.58966,-0.347642 2.72101,-1.193725 3.39764,-2.540967 0.65035,-1.294921 0.93594,-3.157023 0.79886,-5.208721 -0.20767,-3.108535 -1.16561,-4.752685 -3.07414,-5.27628 -1.0202,-0.279889 -2.40118,-0.269716 -3.56805,0.02629 -0.68017,0.172544 -1.7778,0.603353 -2.16597,0.850129 l -0.26046,0.165585 v 5.818589 5.818589 l 0.47496,0.149475 c 0.422,0.132813 0.95037,0.234716 1.60871,0.310263 0.4753,0.05454 2.37431,-0.02237 2.78845,-0.112944 z m 16.80262,4.949902 c -0.059,-0.05897 -0.0495,-23.017302 0.01,-23.110305 0.0386,-0.06083 0.82415,-0.07375 3.72209,-0.06129 l 3.67315,0.01581 v 11.582769 11.58276 l -3.68172,0.01581 c -2.02493,0.0087 -3.7003,-0.0027 -3.72304,-0.02552 z M 178.9302,40.770946 c -0.0162,-0.04239 -0.0223,-1.304284 -0.0136,-2.804221 l 0.016,-2.727146 h 3.89156 3.89156 v 2.788443 2.788442 l -3.87798,0.01577 c -3.0698,0.01249 -3.88416,-3.05e-4 -3.90756,-0.06129 z"
       id="path847"
       inkscape:connector-curvature="0" />
  </g>
</svg>
