<?xml version="1.0" encoding="utf-8"?>
<!-- Generator: Adobe Illustrator 19.2.0, SVG Export Plug-In . SVG Version: 6.00 Build 0)  -->
<svg version="1.1"
	 id="svg8" inkscape:version="0.92.2 (5c3e80d, 2017-08-06)" sodipodi:docname="logo.svg" xmlns:cc="http://creativecommons.org/ns#" xmlns:dc="http://purl.org/dc/elements/1.1/" xmlns:inkscape="http://www.inkscape.org/namespaces/inkscape" xmlns:rdf="http://www.w3.org/1999/02/22-rdf-syntax-ns#" xmlns:sodipodi="http://sodipodi.sourceforge.net/DTD/sodipodi-0.dtd" xmlns:svg="http://www.w3.org/2000/svg"
	 xmlns="http://www.w3.org/2000/svg" xmlns:xlink="http://www.w3.org/1999/xlink" x="0px" y="0px" viewBox="0 0 180.7 56.5"
	 style="enable-background:new 0 0 180.7 56.5;" xml:space="preserve">
<style type="text/css">
	.st0{clip-path:url(#SVGID_2_);fill:#3399D4;}
</style>
<sodipodi:namedview  bordercolor="#666666" borderlayer="true" borderopacity="1.0" fit-margin-bottom="0" fit-margin-left="0" fit-margin-right="0" fit-margin-top="0" guidetolerance="10" id="base" inkscape:current-layer="g9159" inkscape:cx="32.605769" inkscape:cy="31.112843" inkscape:document-rotation="0" inkscape:document-units="px" inkscape:pagecheckerboard="false" inkscape:pageopacity="0" inkscape:pageshadow="2" inkscape:showpageshadow="true" inkscape:snap-perpendicular="true" inkscape:snap-tangential="true" inkscape:window-height="713" inkscape:window-maximized="1" inkscape:window-width="1366" inkscape:window-x="0" inkscape:window-y="0" inkscape:zoom="5.9359868" objecttolerance="10" pagecolor="#ffffff" showgrid="false" showguides="true" units="px">
	<inkscape:grid  dotted="false" id="grid10" originx="-206.39535" originy="-117.15824" type="xygrid"></inkscape:grid>
</sodipodi:namedview>
<g>
	<defs>
		<rect id="SVGID_1_" x="15" y="14.4" width="115" height="38.1"/>
	</defs>
	<clipPath id="SVGID_2_">
		<use xlink:href="#SVGID_1_"  style="overflow:visible;"/>
	</clipPath>
	<path class="st0" d="M24.5,52.5l6.9-19.4c-6.1,0.8-11.6,3.4-15.7,7C16.9,45.3,20.1,49.7,24.5,52.5"/>
	<path class="st0" d="M46.9,52.5c4.4-2.8,7.6-7.2,8.9-12.4c-4.1-3.6-9.6-6.2-15.7-7L46.9,52.5z"/>
	<path class="st0" d="M56.4,36.1c0-0.3,0-0.7,0-1c0-11.4-9.3-20.7-20.7-20.7S15,23.7,15,35.1c0,0.3,0,0.7,0,1
		c5.7-4.4,13-6.8,20.7-6.8C43.4,29.3,50.6,31.7,56.4,36.1"/>
	<path class="st0" d="M82.3,45.3c-1.6,2-3.8,3-6.6,3c-4.8,0-9-2.7-9-10.4V22.5h5.8v14.4c0,4.2,1.8,5.9,4.8,5.9
		c3.1,0,5.1-1.6,5.1-5.8V22.5h5.8v25.3h-5.8V45.3z"/>
	<path class="st0" d="M93,22.5h5.8v2.6c1-2.1,2.7-3.2,5.2-3.2c1.9,0,3.4,0.6,4.7,1.7l-0.8,5.3c-1-0.7-2.4-1.3-4.3-1.3
		c-2.2,0-4.7,1.2-4.7,6v14.2H93V22.5z"/>
	<path class="st0" d="M124.4,45.7c-1.2,1.3-3.4,2.6-6.7,2.6c-5.2,0-9.2-2.9-9.2-8.4c0-5.8,4.9-8.4,9.9-8.4c2.4,0,4.4,0.4,6,1.3v-1.3
		c0-3.3-1.6-4.6-4.9-4.6c-3.1,0-5.4,0.9-7.5,2.4l-1.8-4.7c2.3-1.5,5.6-2.8,9.9-2.8c4.5,0,10,1.1,10,9.6v16.3h-5.6V45.7z M124.4,40.8
		v-3.3c-1.3-0.6-3.2-1-5-1c-2.9,0-5.2,1-5.2,3.4c0,2,1.6,3.3,4.6,3.3C121.2,43.2,123.1,42.2,124.4,40.8"/>
</g>
</svg>
