<?xml version="1.0" encoding="UTF-8" standalone="no"?>
<!-- Created with Inkscape (http://www.inkscape.org/) -->

<svg
   xmlns:dc="http://purl.org/dc/elements/1.1/"
   xmlns:cc="http://creativecommons.org/ns#"
   xmlns:rdf="http://www.w3.org/1999/02/22-rdf-syntax-ns#"
   xmlns:svg="http://www.w3.org/2000/svg"
   xmlns="http://www.w3.org/2000/svg"
   xmlns:sodipodi="http://sodipodi.sourceforge.net/DTD/sodipodi-0.dtd"
   xmlns:inkscape="http://www.inkscape.org/namespaces/inkscape"
   width="180.66087"
   height="56.509178"
   viewBox="0 0 47.799859 14.951386"
   version="1.1"
   id="svg8"
   inkscape:version="0.92.2 (5c3e80d, 2017-08-06)"
   sodipodi:docname="logo.svg">
  <defs
     id="defs2" />
  <sodipodi:namedview
     id="base"
     pagecolor="#ffffff"
     bordercolor="#666666"
     borderopacity="1.0"
     inkscape:pageopacity="0"
     inkscape:pageshadow="2"
     inkscape:zoom="2.0986883"
     inkscape:cx="111.94064"
     inkscape:cy="27.302494"
     inkscape:document-units="px"
     inkscape:current-layer="g9159"
     inkscape:document-rotation="0"
     showgrid="false"
     borderlayer="true"
     inkscape:showpageshadow="true"
     units="px"
     inkscape:pagecheckerboard="false"
     showguides="true"
     inkscape:window-width="1366"
     inkscape:window-height="713"
     inkscape:window-x="0"
     inkscape:window-y="0"
     inkscape:window-maximized="1"
     objecttolerance="10"
     guidetolerance="10"
     inkscape:snap-tangential="true"
     inkscape:snap-perpendicular="true"
     fit-margin-top="0"
     fit-margin-left="0"
     fit-margin-right="0"
     fit-margin-bottom="0">
    <inkscape:grid
       type="xygrid"
       id="grid10"
       dotted="false"
       originx="-206.39535"
       originy="-117.15824" />
  </sodipodi:namedview>
  <metadata
     id="metadata5">
    <rdf:RDF>
      <cc:Work
         rdf:about="">
        <dc:format>image/svg+xml</dc:format>
        <dc:type
           rdf:resource="http://purl.org/dc/dcmitype/StillImage" />
        <dc:title></dc:title>
        <cc:license
           rdf:resource="" />
      </cc:Work>
    </rdf:RDF>
  </metadata>
  <g
     inkscape:label="Layer 1"
     inkscape:groupmode="layer"
     id="layer1"
     transform="translate(-206.39532,-164.89037)">
    <g
       transform="translate(38.627276,-79.374983)"
       id="layer1-3"
       inkscape:label="Layer 1">
      <g
         transform="matrix(3.1382077,0,0,3.1382077,-221.97344,-360.17398)"
         id="g9159">
        <g
           transform="matrix(0.09924706,0,0,0.09924706,123.88114,169.81274)"
           id="layer1-1"
           inkscape:label="Layer 1">
          <g
             style="fill:#333333;fill-opacity:1"
             transform="matrix(2.3974414,0,0,2.3974414,-177.59409,149.3129)"
             id="g6631">
            <path
               id="path4469-2"
               d="m 84.262758,53.539938 3.056498,-8.660441 c -2.732094,0.367852 -5.171644,1.496751 -7.013799,3.123842 0.572053,2.309209 2.01377,4.278084 3.957301,5.536599 z"
               inkscape:connector-curvature="0"
               style="fill:#333333;fill-opacity:1;stroke-width:0.72411716" />
            <path
               id="path4471-8"
               d="m 94.270054,53.539938 c 1.943535,-1.258515 3.385249,-3.22739 3.956579,-5.536599 -1.841429,-1.627091 -4.281704,-2.75599 -7.013799,-3.123842 z"
               inkscape:connector-curvature="0"
               style="fill:#333333;fill-opacity:1;stroke-width:0.72411716" />
            <path
               id="path4473-9"
               d="m 98.486589,46.223459 c 0.0065,-0.144823 0.01088,-0.290371 0.01088,-0.436643 0,-5.08982 -4.141228,-9.231045 -9.231046,-9.231045 -5.08982,0 -9.231046,4.141225 -9.231046,9.231045 0,0.146272 0.0044,0.29182 0.01158,0.436643 2.553961,-1.947151 5.794385,-3.012328 9.21946,-3.012328 3.425795,0 6.666223,1.064452 9.220181,3.012328 z"
               inkscape:connector-curvature="0"
               style="fill:#333333;fill-opacity:1;stroke-width:0.72411716" />
            <path
               id="path4483-7"
               d="m 109.89433,49.313267 c -0.37147,0.232442 -0.85953,0.350473 -1.44968,0.350473 -0.59088,0 -1.07894,-0.118031 -1.44968,-0.350473 -0.36496,-0.227373 -0.65316,-0.52064 -0.85591,-0.871837 -0.19551,-0.335991 -0.33093,-0.71398 -0.40116,-1.121658 -0.0673,-0.385954 -0.10138,-0.771908 -0.10138,-1.145553 v -5.774835 h -2.35845 v 5.774835 c 0,1.048522 0.12093,1.935565 0.36133,2.637234 0.23752,0.700222 0.54382,1.286757 0.9095,1.743675 0.36423,0.454746 0.76032,0.805942 1.17886,1.044901 0.4323,0.247648 0.84432,0.430125 1.22448,0.543812 0.38016,0.114411 0.71109,0.180305 0.98697,0.194787 0.29037,0.01593 0.45909,0.02389 0.50616,0.02389 0.047,0 0.21507,-0.008 0.50616,-0.02389 0.27371,-0.01448 0.60608,-0.08038 0.98625,-0.194787 0.38088,-0.113687 0.79218,-0.296164 1.2252,-0.543812 0.41854,-0.238959 0.81536,-0.590155 1.17741,-1.044177 0.36569,-0.456918 0.67199,-1.043453 0.91022,-1.744399 0.23969,-0.701669 0.36061,-1.589437 0.36061,-2.637234 v -5.774835 h -2.35844 v 5.774835 c 0,0.370024 -0.034,0.755978 -0.10138,1.145553 -0.071,0.40623 -0.20565,0.784219 -0.40116,1.121658 -0.2042,0.351197 -0.49168,0.64374 -0.85591,0.871837 z"
               inkscape:connector-curvature="0"
               style="fill:#333333;fill-opacity:1;stroke-width:0.72411716" />
            <path
               id="path4485-3"
               d="m 116.20066,41.894686 c -0.31498,0.42216 -0.47502,1.027523 -0.47502,1.800155 v 8.42438 h 2.38308 l 0.009,-8.084768 c 0.0594,-0.237511 0.16872,-0.456918 0.32513,-0.651706 0.14483,-0.166547 0.32585,-0.307025 0.56264,-0.439539 0.24837,-0.13903 0.56408,-0.20927 0.93845,-0.20927 h 1.98191 v -2.33383 h -3.09994 c -0.5554,0.05866 -1.08762,0.225201 -1.54889,0.493848 -0.38451,0.22158 -0.74656,0.558295 -1.07604,1.00073 z"
               inkscape:connector-curvature="0"
               style="fill:#333333;fill-opacity:1;stroke-width:0.72411716" />
            <path
               id="path4487-6"
               d="m 133.07839,41.712208 c -0.42795,-0.518467 -0.9819,-0.9218 -1.64737,-1.202034 -0.67198,-0.28313 -1.50761,-0.426505 -2.48372,-0.426505 -1.0239,0.03114 -1.95222,0.264303 -2.74875,0.69298 -0.33309,0.181754 -0.67053,0.422885 -1.00145,0.714704 -0.32151,0.284578 -0.61189,0.647361 -0.86098,1.079659 -0.25344,0.437367 -0.45981,0.963076 -0.61332,1.563369 -0.15497,0.604638 -0.23317,1.323686 -0.23317,2.137594 0,0.81608 0.0739,1.535852 0.2223,2.139766 0.14627,0.603914 0.34106,1.126726 0.57857,1.553955 0.23461,0.425057 0.50181,0.779875 0.79364,1.057212 0.29616,0.280957 0.60753,0.516295 0.92687,0.698048 0.72411,0.407679 1.57205,0.623465 2.5163,0.640844 0.46561,-0.03114 0.96236,-0.0782 1.38669,-0.194064 0.35843,-0.102824 0.73715,-0.273716 1.12166,-0.506881 0.15133,-0.09196 0.2976,-0.20927 0.44822,-0.358438 l 0.53585,-0.537295 0.0283,1.353375 h 2.28604 v -5.82335 c 0,-0.988421 -0.10283,-1.882705 -0.30631,-2.658235 -0.19913,-0.753806 -0.51846,-1.401891 -0.94931,-1.924704 z m -1.13107,5.773387 c -0.0702,0.45547 -0.21724,0.886319 -0.43592,1.280239 -0.2252,0.40623 -0.54454,0.748013 -0.94787,1.017385 -0.41347,0.275889 -0.95656,0.415643 -1.61551,0.415643 -0.65749,0 -1.20131,-0.139754 -1.6155,-0.415643 -0.40551,-0.270096 -0.72122,-0.614051 -0.93773,-1.021729 -0.21072,-0.394644 -0.35193,-0.823322 -0.42072,-1.275895 -0.0673,-0.43447 -0.10137,-0.842872 -0.10137,-1.212896 0,-0.370024 0.034,-0.778426 0.10137,-1.21362 0.0688,-0.45185 0.21072,-0.880527 0.42072,-1.275895 0.21723,-0.406954 0.53295,-0.75091 0.93773,-1.02173 0.41347,-0.275888 0.95728,-0.415643 1.6155,-0.415643 0.6814,0 1.23969,0.11948 1.65751,0.355542 0.42144,0.238235 0.74367,0.56119 0.95728,0.960179 0.20275,0.380162 0.33599,0.806667 0.39754,1.270102 0.0586,0.442435 0.0876,0.89356 0.0876,1.341065 0,0.370024 -0.034,0.777702 -0.10065,1.212896 z"
               inkscape:connector-curvature="0"
               style="fill:#333333;fill-opacity:1;stroke-width:0.72411716" />
          </g>
        </g>
      </g>
    </g>
  </g>
</svg>
