<?xml version="1.0" encoding="UTF-8" standalone="no"?>
<!-- Created with Inkscape (http://www.inkscape.org/) -->

<svg
   xmlns:dc="http://purl.org/dc/elements/1.1/"
   xmlns:cc="http://creativecommons.org/ns#"
   xmlns:rdf="http://www.w3.org/1999/02/22-rdf-syntax-ns#"
   xmlns:svg="http://www.w3.org/2000/svg"
   xmlns="http://www.w3.org/2000/svg"
   xmlns:sodipodi="http://sodipodi.sourceforge.net/DTD/sodipodi-0.dtd"
   xmlns:inkscape="http://www.inkscape.org/namespaces/inkscape"
   width="200"
   height="120"
   viewBox="0 0 52.916665 31.750001"
   version="1.1"
   id="svg8"
   inkscape:version="0.92.3 (2405546, 2018-03-11)"
   sodipodi:docname="linuxfoundation.svg">
  <defs
     id="defs2">
    <style
       id="style2">.cls-1{fill:#003764;}.cls-2{fill:#009bde;}</style>
  </defs>
  <sodipodi:namedview
     id="base"
     pagecolor="#ffffff"
     bordercolor="#666666"
     borderopacity="1.0"
     inkscape:pageopacity="0.0"
     inkscape:pageshadow="2"
     inkscape:zoom="1.979899"
     inkscape:cx="72.383826"
     inkscape:cy="87.62924"
     inkscape:document-units="mm"
     inkscape:current-layer="layer1"
     showgrid="false"
     units="px"
     inkscape:window-width="1366"
     inkscape:window-height="718"
     inkscape:window-x="0"
     inkscape:window-y="0"
     inkscape:window-maximized="1" />
  <metadata
     id="metadata5">
    <rdf:RDF>
      <cc:Work
         rdf:about="">
        <dc:format>image/svg+xml</dc:format>
        <dc:type
           rdf:resource="http://purl.org/dc/dcmitype/StillImage" />
        <dc:title></dc:title>
      </cc:Work>
    </rdf:RDF>
  </metadata>
  <g
     inkscape:label="Layer 1"
     inkscape:groupmode="layer"
     id="layer1"
     transform="translate(0,-265.24998)">
    <g
       transform="matrix(0.23659657,0,0,0.23659657,4.3862393,273.17534)"
       id="g865">
      <polygon
         style="fill:#003764"
         class="cls-1"
         points="73.18,44.95 73.18,21.63 80.37,21.63 80.37,38.98 90.69,38.98 90.69,44.95 "
         id="polygon34" />
      <rect
         style="fill:#003764"
         class="cls-1"
         x="95.389999"
         y="21.629999"
         width="7.1900001"
         height="23.32"
         id="rect36" />
      <polygon
         style="fill:#003764"
         class="cls-1"
         points="107.93,44.95 107.93,21.63 115.28,21.63 122.07,34.11 122.14,34.11 122.14,21.63 128.93,21.63 128.93,44.95 121.94,44.95 114.79,32.22 114.72,32.22 114.72,44.95 "
         id="polygon38" />
      <path
         style="fill:#003764"
         inkscape:connector-curvature="0"
         class="cls-1"
         d="m 155.48,35.94 c 0,6.5 -3.43,9.57 -10.62,9.57 -7.19,0 -10.65,-3.07 -10.65,-9.57 V 21.63 h 7.19 v 12.71 c 0,2.35 0,5.36 3.5,5.36 3.5,0 3.4,-3 3.4,-5.36 V 21.63 h 7.19 v 14.31 z"
         id="path40" />
      <polygon
         style="fill:#003764"
         class="cls-1"
         points="158.49,44.95 166.91,32.54 159.24,21.63 167.67,21.63 171.19,27.97 174.66,21.63 182.63,21.63 175.15,32.61 183.47,44.95 174.82,44.95 170.83,38 166.72,44.95 "
         id="polygon42" />
      <polygon
         style="fill:#009bde"
         class="cls-2"
         points="38.94,51.52 15.07,51.52 15.07,27.64 3.11,27.64 3.11,63.46 38.94,63.46 "
         id="polygon44" />
      <polygon
         style="fill:#003764"
         class="cls-1"
         points="15.05,21.65 15.05,15.73 50.88,15.73 50.88,51.52 44.92,51.52 44.92,63.46 62.82,63.46 62.82,3.74 3.12,3.74 3.12,21.65 "
         id="polygon46" />
    </g>
  </g>
</svg>
