<?xml version="1.0" encoding="UTF-8" standalone="no"?>
<svg
   xmlns:dc="http://purl.org/dc/elements/1.1/"
   xmlns:cc="http://creativecommons.org/ns#"
   xmlns:rdf="http://www.w3.org/1999/02/22-rdf-syntax-ns#"
   xmlns:svg="http://www.w3.org/2000/svg"
   xmlns="http://www.w3.org/2000/svg"
   id="svg8"
   version="1.1"
   viewBox="0 0 52.916665 31.750001"
   height="120"
   width="200">
  <defs
     id="defs2" />
  <metadata
     id="metadata5">
    <rdf:RDF>
      <cc:Work
         rdf:about="">
        <dc:format>image/svg+xml</dc:format>
        <dc:type
           rdf:resource="http://purl.org/dc/dcmitype/StillImage" />
        <dc:title></dc:title>
      </cc:Work>
    </rdf:RDF>
  </metadata>
  <g
     transform="translate(0,-265.24998)"
     id="layer1">
    <g
       transform="matrix(0.12450763,0,0,0.12450763,4.0469599,274.74396)"
       id="g934">
      <rect
         x="0"
         y="-0.2"
         width="360"
         height="102.9"
         id="rect920" />
      <path
         style="fill:#ffffff"
         d="m 343.8,73.7 c -0.7,0.2 -1.3,0.3 -1.9,0.3 -2.1,0 -3.1,-0.9 -3.1,-3.5 V 51 c 0,-10.3 -8.2,-15.3 -17.9,-15.3 -7.4,0 -11.4,0.9 -19.3,4.1 l -1.6,10.4 10.3,1.1 1.5,-5.1 c 2.1,-1.1 4.2,-1.3 6.9,-1.3 7.3,0 7.4,5.5 7.4,10.1 v 1.5 c -2.3,-0.3 -4.9,-0.4 -7.4,-0.4 -10.3,0 -21,2.6 -21,13.7 0,9.4 7.4,12.9 13.9,12.9 7.3,0 11.9,-4.4 14.5,-9 0.6,5.5 3.9,9 9.9,9 2.8,0 5.7,-0.8 8.1,-2.1 z m -27.6,-0.3 c -3.9,0 -5.3,-2.3 -5.3,-5.2 0,-4.9 4,-6.2 8.6,-6.2 2.1,0 4.4,0.3 6.5,0.6 -0.3,7.5 -5.2,10.8 -9.8,10.8 z M 298.9,12.9 279.4,81.6 h -12.7 l 19.5,-68.7 z m -26.2,0 -19.5,68.7 H 240.5 L 260,12.9 Z m -54,23.7 h 13.5 v 16.2 h -13.5 z m 0,28.9 h 13.5 v 16.2 h -13.5 z m -19.7,-0.6 10.2,1 -2.8,15.8 h -39.3 l -1.3,-6.8 24.8,-28.5 h -14.1 l -2,7 -9.3,-1 1.6,-15.8 h 39.5 l 1,6.8 -25,28.5 h 14.6 z M 134.5,35.7 c -16.2,0 -24.2,10.9 -24.2,24.1 0,14.4 9.6,22.9 23.5,22.9 14.4,0 24.8,-9.1 24.8,-23.5 0,-12.6 -7.9,-23.5 -24.1,-23.5 z m -0.3,37 c -7,0 -10.6,-6 -10.6,-13.8 0,-8.5 4.1,-13.4 10.7,-13.4 6.1,0 11,4.1 11,13.2 0,8.7 -4.4,14 -11.1,14 z M 98.7,71.8 h 6 v 9.8 H 85.9 V 56.3 c 0,-7.8 -2.6,-10.8 -7.7,-10.8 -6.2,0 -8.7,4.4 -8.7,10.7 v 15.7 h 6 v 9.8 H 56.6 V 56.3 c 0,-7.8 -2.6,-10.8 -7.7,-10.8 -6.2,0 -8.7,4.4 -8.7,10.7 v 15.7 h 8.6 v 9.8 H 21.4 v -9.8 h 6 V 46.4 h -6 v -9.8 h 18.9 v 6.8 c 2.7,-4.8 7.4,-7.7 13.7,-7.7 6.5,0 12.5,3.1 14.7,9.7 2.5,-6 7.6,-9.7 14.7,-9.7 8.1,0 15.5,4.9 15.5,15.6 v 20.5 z"
         id="path922" />
    </g>
  </g>
</svg>
