<?xml version="1.0" encoding="UTF-8" standalone="no"?>
<!-- Created with Inkscape (http://www.inkscape.org/) -->

<svg
   xmlns:dc="http://purl.org/dc/elements/1.1/"
   xmlns:cc="http://creativecommons.org/ns#"
   xmlns:rdf="http://www.w3.org/1999/02/22-rdf-syntax-ns#"
   xmlns:svg="http://www.w3.org/2000/svg"
   xmlns="http://www.w3.org/2000/svg"
   xmlns:sodipodi="http://sodipodi.sourceforge.net/DTD/sodipodi-0.dtd"
   xmlns:inkscape="http://www.inkscape.org/namespaces/inkscape"
   width="200"
   height="120"
   viewBox="0 0 52.916665 31.750001"
   version="1.1"
   id="svg8"
   inkscape:version="0.92.3 (2405546, 2018-03-11)"
   sodipodi:docname="stickermule.svg">
  <defs
     id="defs2">
    <style
       id="style2">.cls-1{fill:#003764;}.cls-2{fill:#009bde;}</style>
    <inkscape:perspective
       id="perspective2908"
       inkscape:persp3d-origin="372.04749 : 350.78752 : 1"
       inkscape:vp_z="744.09497 : 526.18127 : 1"
       inkscape:vp_y="0 : 1000 : 0"
       inkscape:vp_x="0 : 526.18127 : 1"
       sodipodi:type="inkscape:persp3d" />
  </defs>
  <sodipodi:namedview
     id="base"
     pagecolor="#ffffff"
     bordercolor="#666666"
     borderopacity="1.0"
     inkscape:pageopacity="0.0"
     inkscape:pageshadow="2"
     inkscape:zoom="1.979899"
     inkscape:cx="-8.7367652"
     inkscape:cy="65.615584"
     inkscape:document-units="mm"
     inkscape:current-layer="layer1"
     showgrid="false"
     units="px"
     inkscape:window-width="1366"
     inkscape:window-height="718"
     inkscape:window-x="0"
     inkscape:window-y="0"
     inkscape:window-maximized="1" />
  <metadata
     id="metadata5">
    <rdf:RDF>
      <cc:Work
         rdf:about="">
        <dc:format>image/svg+xml</dc:format>
        <dc:type
           rdf:resource="http://purl.org/dc/dcmitype/StillImage" />
        <dc:title></dc:title>
      </cc:Work>
    </rdf:RDF>
  </metadata>
  <g
     inkscape:label="Layer 1"
     inkscape:groupmode="layer"
     id="layer1"
     transform="translate(0,-265.24998)">
    <g
       id="g2109"
       transform="matrix(0.10232141,0,0,0.10232141,-7.3205803,269.29151)">
      <path
         id="path2065"
         d="m 176.5,146.1 c -7.2,0 -13.8,-0.8 -19.6,-6.6 l 7.5,-7.5 c 3.8,3.8 8.7,4.3 12.3,4.3 4,0 8.1,-1.3 8.1,-4.8 0,-2.3 -1.2,-3.9 -4.9,-4.2 l -7.2,-0.7 c -8.3,-0.8 -13.4,-4.4 -13.4,-12.9 0,-9.5 8.4,-14.7 17.8,-14.7 7.2,0 13.2,1.2 17.6,5.4 l -7.1,7.2 c -2.7,-2.4 -6.7,-3.1 -10.7,-3.1 -4.6,0 -6.5,2.1 -6.5,4.4 0,1.7 0.7,3.6 4.8,4 l 7.2,0.7 c 9.1,0.9 13.7,5.7 13.7,13.5 0,10.2 -8.7,15 -19.6,15 z"
         class="st0"
         inkscape:connector-curvature="0"
         style="fill:#4e2817" />
      <path
         id="path2067"
         d="m 216.1,145.6 c -9.4,0 -13.3,-6.6 -13.3,-13.2 v -22.8 h -4.9 v -8.7 h 4.9 V 87.3 h 11.5 v 13.6 h 8.1 v 8.7 h -8.1 v 22.1 c 0,2.6 1.2,4.2 4,4.2 h 4.2 v 9.7 z"
         class="st0"
         inkscape:connector-curvature="0"
         style="fill:#4e2817" />
      <path
         id="path2069"
         d="m 227.5,91.7 v -9.4 h 11.8 v 9.4 z m 0.2,53.9 v -46 h 11.5 v 46 z"
         class="st0"
         inkscape:connector-curvature="0"
         style="fill:#4e2817" />
      <path
         id="path2071"
         d="m 265.1,146.1 c -9.2,0 -20.6,-4.9 -20.6,-23.6 0,-18.6 11.4,-23.5 20.6,-23.5 6.4,0 11.1,1.9 15.2,6.2 l -7.8,7.8 c -2.4,-2.6 -4.4,-3.6 -7.4,-3.6 -2.7,0 -4.9,1 -6.5,3 -1.8,2.2 -2.6,5.3 -2.6,10.2 0,4.9 0.8,8 2.6,10.3 1.7,2 3.8,3 6.5,3 3,0 5,-1.1 7.4,-3.6 l 7.8,7.7 c -4.1,4.1 -8.8,6.1 -15.2,6.1 z"
         class="st0"
         inkscape:connector-curvature="0"
         style="fill:#4e2817" />
      <path
         id="path2073"
         d="m 312,145.6 -11.3,-19.2 -4.9,5.5 v 13.7 H 284.3 V 82.7 h 11.5 v 35.7 L 311.1,99.6 H 325 l -16.4,18.6 17.7,27.5 H 312 Z"
         class="st0"
         inkscape:connector-curvature="0"
         style="fill:#4e2817" />
      <path
         id="path2075"
         d="m 335.8,126.1 c 0,5.9 3.6,10.2 10.1,10.2 5,0 7.5,-1.4 10.4,-4.3 l 7,6.8 c -4.7,4.7 -9.2,7.2 -17.5,7.2 -10.9,0 -21.3,-4.9 -21.3,-23.6 0,-15 8.1,-23.5 20.1,-23.5 12.8,0 20.1,9.4 20.1,22 v 5.1 h -28.9 z m 16.5,-12.8 c -1.2,-2.7 -3.8,-4.8 -7.7,-4.8 -3.9,0 -6.5,2 -7.7,4.8 -0.7,1.7 -1,2.9 -1.1,4.9 h 17.5 c -0.1,-2 -0.3,-3.2 -1,-4.9 z"
         class="st0"
         inkscape:connector-curvature="0"
         style="fill:#4e2817" />
      <path
         id="path2077"
         d="m 395.1,112.1 c -1.8,-1.8 -3.3,-2.7 -6.1,-2.7 -3.5,0 -7.4,2.7 -7.4,8.5 v 27.7 h -11.5 v -46 h 11.2 v 4.4 c 2.2,-2.7 6.6,-4.9 11.6,-4.9 4.5,0 7.7,1.1 10.9,4.3 z"
         class="st0"
         inkscape:connector-curvature="0"
         style="fill:#4e2817" />
      <path
         id="path2079"
         d="m 121.5,150.7 c -0.7,0.3 -1.6,0.2 -2.5,0.3 -0.8,0 -1.9,0 -2.4,-0.4 -0.3,-0.2 -0.3,-0.7 -0.3,-1 0,-0.3 0.1,-0.8 0.1,-1.1 0.1,-0.4 0.2,-1 0,-1.3 -0.2,-0.3 -0.9,-0.2 -1.3,-0.4 -0.4,-0.2 -0.5,-0.8 -0.6,-1.4 0,-0.2 -0.2,-0.4 -0.2,-0.5 -0.1,-0.9 0.2,-2.2 0.4,-3.1 0.2,-1 0.5,-1.9 0.7,-2.9 0.3,-1.4 0.3,-3 0.2,-4.5 0,-0.8 -0.2,-1.4 0,-2 0.1,-0.6 0.4,-1.1 0.5,-1.7 0,-0.2 0,-0.4 0,-0.6 0,-0.2 0.1,-0.3 0.1,-0.5 0,-0.4 -0.1,-0.9 -0.1,-1.4 -0.1,-1.3 0,-3.2 0.1,-4.3 0,-0.4 0.2,-0.8 -0.1,-1 -1.4,0 -2.6,0.2 -3.9,0.4 -3.4,0.4 -7.8,0.5 -11.1,-0.2 -0.3,-0.1 -0.6,-0.1 -0.9,-0.1 -2.4,-0.5 -4.5,-1.6 -6.2,-2.9 -0.3,-0.2 -0.6,-0.4 -0.9,-0.7 -0.3,-0.2 -0.6,-0.5 -0.9,-0.7 -1.3,-0.6 -3.1,0.1 -3.7,1 -0.2,0.3 -0.4,0.8 -0.6,1.2 -0.2,0.4 -0.4,0.8 -0.5,1.2 -0.9,2 -1.9,4 -2.8,6 -0.5,1.2 -1.1,2.5 -1.5,3.8 -0.8,2.8 -0.1,6.5 0.6,9.2 0.1,0.2 0.2,0.5 0.3,0.8 0.2,0.6 0.6,1.5 1.1,1.9 0.3,0.2 0.7,0.4 1,0.6 0.4,0.3 0.6,0.9 0.9,1.5 0.1,0.2 0.3,0.5 0.4,0.8 0.3,0.6 0.5,1.1 -0.2,1.5 -0.5,0.3 -1.3,0.3 -2,0.4 -0.3,0.1 -0.2,0.5 -0.4,0.7 -0.1,0.1 -0.6,0.3 -0.8,0.4 -0.9,0.3 -2.5,0.3 -3.2,0 -0.4,-0.1 -0.8,-0.4 -0.9,-0.7 -0.2,-0.6 0.3,-1.3 -0.1,-1.7 -0.2,-0.2 -0.6,-0.2 -0.9,-0.3 -0.5,-0.2 -0.9,-0.7 -1.2,-1.2 -0.5,-1.4 -0.2,-3.5 -0.3,-5.2 0,-0.5 -0.1,-1 -0.1,-1.6 0,-1 -0.3,-2 -0.4,-3 -0.1,-0.5 -0.2,-0.9 -0.3,-1.3 -0.2,-0.7 -0.3,-1.5 -0.5,-2.2 -0.2,-0.8 -0.2,-1.6 0,-2.2 0.1,-0.2 0.3,-0.4 0.4,-0.6 0.2,-0.4 0.2,-0.8 0.2,-1.2 -0.1,-0.2 -0.6,0 -0.7,-0.2 -0.3,-2.2 -0.6,-4.3 -0.8,-6.6 -0.1,-0.8 -0.1,-1.5 -0.1,-2.3 -0.1,-1.5 0,-3.1 -0.2,-4.6 -0.1,-0.7 -0.2,-1.4 -0.3,-2.1 -0.3,-2 -0.8,-4.5 -0.4,-6.6 0.3,-1.3 0.7,-2.4 1.5,-3.4 0.5,-0.7 1.1,-1.3 1.7,-2 0.6,-0.6 1.3,-1.2 2,-1.7 0.5,-0.3 1,-0.7 1.5,-1 1.1,-0.5 2.6,-1 4.2,-1.1 1.6,-0.1 3.4,-0.1 4.9,0.2 1.5,0.3 3,0.5 4.5,0.8 1.4,0.3 2.8,0.7 4.2,1 0.2,0 0.3,0.2 0.5,0.2 0.4,0.1 0.9,0.1 1.4,0.3 1.3,0.3 2.9,0.5 4.5,0.5 1.7,0 3.2,0 4.6,-0.4 0.2,-0.1 0.4,-0.2 0.6,-0.2 0.2,-0.1 0.5,-0.1 0.7,-0.1 0.1,0 0.3,-0.2 0.4,-0.3 0.8,-0.4 1.5,-0.8 2.2,-1.3 0.6,-0.4 1,-0.7 1.8,-1 0.3,-0.1 0.7,-0.3 1,-0.4 0.7,-0.2 1.5,-0.4 2,-0.8 0.9,-0.5 1.5,-1.3 2.2,-2 0.7,-0.6 1.5,-1.3 2.3,-1.9 1.6,-1.3 3.2,-2.4 4.7,-3.6 0.8,-0.6 1.6,-1.2 2.5,-1.7 1.7,-1 3.5,-2.1 6,-2.3 1,-0.1 2,-0.1 3,0 0.3,0 0.6,0.2 0.9,0.1 0.3,-0.1 0.5,-0.5 0.6,-0.8 0.4,-0.7 0.6,-1.1 1,-1.9 0.2,-0.5 0.1,-1 0.6,-1 0.5,0 0.4,1.3 0.4,1.8 0,0.6 -0.1,1.4 0,1.8 0.1,0.3 0.5,0.7 0.9,0.7 0.3,0 0.5,-0.2 0.7,-0.4 0.3,-0.2 0.5,-0.2 0.7,-0.4 0.4,-0.3 0.9,-0.8 1.3,-1.2 0.3,-0.3 0.9,-1.2 1.4,-1.1 1,0.1 0,1.6 -0.2,2 -0.5,1.1 -1,2 -1.6,3 -0.2,0.4 -0.8,1 -0.8,1.5 0,0.3 0.3,0.5 0.4,0.9 0.1,0.2 0.1,0.3 0.2,0.5 0.3,0.8 0.6,1.9 0.9,2.8 0.2,0.8 0.4,1.6 0.7,2.3 0.3,0.7 0.7,1.4 1,2.2 0.1,0.2 0.1,0.4 0.2,0.6 0.6,1.6 1.2,3.4 2,5 0.3,0.6 0.7,1.4 0.7,2.3 0,1 -0.5,1.5 -1,2.3 -0.2,0.4 -0.6,1 -1,1.1 -0.3,0.1 -0.6,0 -0.9,0 -0.4,0.1 -0.7,0.3 -1,0.3 -0.9,0.1 -1.8,-0.6 -2,-1.3 -0.1,-0.2 0,-0.5 -0.1,-0.8 -0.2,-1.1 -0.8,-1.6 -1.5,-2.4 -0.5,-0.5 -0.9,-0.8 -1.5,-1.1 -0.9,-0.5 -1.8,-0.7 -2.8,-1.2 -0.3,-0.2 -0.8,-0.4 -1.1,-0.3 -0.5,0.1 -1,0.9 -1.4,1.4 -2.4,3.2 -4.6,6.5 -6.9,9.6 -1.6,2.1 -3.2,4.2 -4.5,6.5 -0.3,0.6 -0.5,1.3 -0.8,2 -0.2,0.7 -0.4,1.4 -0.6,2.2 -0.9,2.6 -1.2,5.8 -2,8.5 -0.1,0.3 -0.1,0.6 -0.2,0.9 -0.4,1.4 -0.8,3 -1.2,4.5 -0.3,1.1 -0.4,2.6 -0.5,4 0,1.4 -0.1,3.3 0.4,4.1 0.3,0.5 1.2,0.6 1.5,1.1 0.2,0.3 0.4,1 0.7,1.4 0.2,0.3 0.7,0.9 0.6,1.4 0,0.3 -0.3,0.6 -0.6,0.7 -0.3,0.1 -0.7,0.1 -1,0.2 0,0.4 0.1,0.8 -0.2,1 z"
         class="st1"
         inkscape:connector-curvature="0"
         style="clip-rule:evenodd;fill:#4e2817;fill-rule:evenodd" />
      <path
         id="path2081"
         d="m 455.4,99 c -5.7,0 -9.9,1.8 -13.8,5.8 -2.9,-4 -7.1,-5.8 -12.2,-5.8 -4.2,0 -8.5,1.7 -11.5,4.8 v -4.2 h -11.2 v 46 h 11.5 v -27.8 c 0,-6.3 4.1,-8.4 7.7,-8.4 3.6,0 7.6,2.1 7.6,8.4 v 27.8 H 445 v -28.1 c 0,-6 4.2,-8.1 7.7,-8.1 3.6,0 7.6,2.1 7.6,8.4 v 27.8 h 11.5 v -29.4 c 0,-5 -1.3,-9.4 -5,-13.1 C 464.1,100.5 460,99 455.4,99 Z"
         class="st2"
         inkscape:connector-curvature="0"
         style="fill:#f26922" />
      <path
         id="path2083"
         d="m 505.3,127.4 c 0,6.3 -4.1,8.4 -7.7,8.4 -3.6,0 -7.6,-2.1 -7.6,-8.4 V 99.5 H 478.5 V 129 c 0,5 1,9.4 4.7,13.1 2.6,2.6 6.3,4.1 10.9,4.1 4.2,0 8.5,-1.6 11.5,-4.8 v 4.2 h 11.2 v -46 h -11.5 z"
         class="st2"
         inkscape:connector-curvature="0"
         style="fill:#f26922" />
      <path
         id="path2085"
         d="m 535.6,131.7 v -49 h -11.5 v 49.7 c 0,6.5 4,13.2 13.4,13.2 h 6.5 v -9.7 h -4.4 c -2.9,0 -4,-1.4 -4,-4.2 z"
         class="st2"
         inkscape:connector-curvature="0"
         style="fill:#f26922" />
      <path
         id="path2087"
         d="m 586.2,121 c 0,-12.6 -7.2,-22 -20.1,-22 -11.9,0 -20.1,8.5 -20.1,23.5 0,18.6 10.4,23.6 21.3,23.6 8.3,0 12.8,-2.6 17.5,-7.2 l -7,-6.8 c -2.9,2.9 -5.4,4.3 -10.4,4.3 -6.5,0 -10.1,-4.3 -10.1,-10.2 h 28.8 V 121 Z m -28.8,-2.7 c 0.1,-2 0.4,-3.3 1.1,-4.9 1.2,-2.7 3.8,-4.8 7.7,-4.8 3.9,0 6.4,2 7.7,4.8 0.7,1.7 1,2.9 1.1,4.9 z"
         class="st2"
         inkscape:connector-curvature="0"
         style="fill:#f26922" />
    </g>
  </g>
  <style
     id="style2058"
     type="text/css">
	.Arched_x0020_Green{fill:url(#SVGID_1_);stroke:#FFFFFF;stroke-width:0.25;stroke-miterlimit:1;}
	.st0{fill:#4E2817;}
	.st1{fill-rule:evenodd;clip-rule:evenodd;fill:#4E2817;}
	.st2{fill:#F26922;}
</style>
</svg>
